<svg width="926" height="406" viewBox="0 0 926 406" fill="none" xmlns="http://www.w3.org/2000/svg">
<g filter="url(#filter0_d_0_1)">
<path d="M919.044 53.2796L918.637 53.1705L918.746 52.7635C919.364 50.4573 917.974 48.049 915.667 47.4311L907.053 45.1228C904.746 44.5048 902.338 45.8952 901.72 48.2015L901.611 48.6085L901.204 48.4994C900.39 48.2813 899.589 48.2849 898.87 48.5283C898.368 47.9577 897.677 47.5543 896.863 47.3362L896.727 47.2998L896.836 46.8929C897.454 44.5866 896.064 42.1784 893.758 41.5604L884.872 39.1794C882.565 38.5614 880.225 39.97 879.607 42.2763L879.498 42.6833L879.362 42.6469C877.056 42.029 874.666 43.3515 874.048 45.6578L870.431 59.1563C869.813 61.4626 871.203 63.8708 873.51 64.4888L873.645 64.5251L873.536 64.9321C872.918 67.2384 874.309 69.6466 876.615 70.2646L876.751 70.3009L876.642 70.7079C876.024 73.0142 877.414 75.4224 879.72 76.0404L880.127 76.1494L880.018 76.5564C879.4 78.8627 880.791 81.2709 883.097 81.8889L883.233 81.9252L883.124 82.3322C882.506 84.6385 883.896 87.0467 886.202 87.6647L890.543 88.8279C892.85 89.4459 895.258 88.0555 895.876 85.7492L895.985 85.3422L896.392 85.4513C898.698 86.0693 901.106 84.6789 901.724 82.3726L901.834 81.9656L901.969 82.002C904.275 82.6199 906.684 81.2295 907.302 78.9233L907.411 78.5163L907.546 78.5526C909.853 79.1706 912.261 77.7802 912.879 75.4739L912.988 75.0669L913.395 75.176C915.701 75.7939 918.109 74.4036 918.727 72.0973L922.344 58.5987C922.759 56.2379 921.35 53.8976 919.044 53.2796Z" fill="white"/>
<path d="M909.118 55.0555L904.709 53.8741L903.473 58.4866L899.064 57.3052L897.847 61.85L893.438 60.6686L894.655 56.1238L890.246 54.9424L891.482 50.3299L887.073 49.1484L882.664 47.967L881.428 52.5796L880.21 57.1243L878.993 61.6691L883.402 62.8505L882.184 67.3952L886.593 68.5766L885.357 73.1892L889.766 74.3706L888.548 78.9153L892.957 80.0968L894.175 75.552L898.584 76.7334L899.82 72.1209L904.229 73.3023L905.447 68.7575L909.856 69.9389L911.074 65.3942L912.292 60.8495L913.528 56.2369L909.118 55.0555Z" fill="#B1EAEB"/>
<path d="M892.956 80.0956L888.547 78.9142L887.329 83.4589L891.738 84.6403L892.956 80.0956Z" fill="#2DC8CB"/>
<path d="M898.583 76.7315L894.174 75.55L892.956 80.0948L897.365 81.2762L898.583 76.7315Z" fill="#2DC8CB"/>
<path d="M889.766 74.3683L885.357 73.1869L884.139 77.7316L888.548 78.913L889.766 74.3683Z" fill="#2DC8CB"/>
<path d="M904.228 73.3019L899.819 72.1205L898.601 76.6652L903.01 77.8466L904.228 73.3019Z" fill="#2DC8CB"/>
<path d="M886.591 68.5757L882.182 67.3943L880.965 71.939L885.374 73.1204L886.591 68.5757Z" fill="#2DC8CB"/>
<path d="M909.856 69.9373L905.447 68.7559L904.229 73.3006L908.638 74.482L909.856 69.9373Z" fill="#2DC8CB"/>
<path d="M883.399 62.848L878.99 61.6666L877.773 66.2114L882.182 67.3928L883.399 62.848Z" fill="#2DC8CB"/>
<path d="M899.063 57.3029L894.653 56.1215L893.436 60.6662L897.845 61.8476L899.063 57.3029Z" fill="#2DC8CB"/>
<path d="M881.426 52.5767L882.662 47.9641L878.185 46.7645L876.949 51.3771L875.731 55.9218L874.514 60.4666L878.991 61.6661L880.208 57.1214L881.426 52.5767Z" fill="#2DC8CB"/>
<path d="M913.527 56.2372L912.291 60.8498L911.073 65.3945L909.855 69.9392L914.264 71.1206L915.482 66.5759L916.7 62.0312L917.936 57.4186L913.527 56.2372Z" fill="#2DC8CB"/>
<path d="M904.709 53.8712L900.3 52.6898L899.082 57.2346L903.491 58.416L904.709 53.8712Z" fill="#2DC8CB"/>
<path d="M895.89 51.5094L891.48 50.328L890.263 54.8727L894.672 56.0541L895.89 51.5094Z" fill="#2DC8CB"/>
<path d="M913.525 56.2354L914.743 51.6907L910.334 50.5093L905.925 49.3279L904.707 53.8726L909.116 55.054L913.525 56.2354Z" fill="#2DC8CB"/>
<path d="M891.482 50.3275L892.699 45.7827L888.29 44.6013L883.881 43.4199L882.663 47.9647L887.072 49.1461L891.482 50.3275Z" fill="#2DC8CB"/>
</g>
<g filter="url(#filter1_d_0_1)">
<path d="M850.97 391.917L848.946 391.513L849.364 389.417C849.438 389.047 849.362 388.662 849.152 388.348C848.942 388.033 848.616 387.815 848.246 387.741L846.29 387.351L846.691 385.339C846.765 384.968 846.689 384.583 846.479 384.269C846.27 383.955 845.944 383.736 845.573 383.662L843.406 383.23L843.852 380.994C843.926 380.624 843.85 380.239 843.64 379.924C843.431 379.61 843.105 379.392 842.734 379.318L840.71 378.914L841.128 376.818C841.202 376.447 841.126 376.063 840.916 375.748C840.706 375.434 840.38 375.216 840.01 375.142L837.851 374.711L838.255 372.688C838.329 372.317 838.253 371.932 838.043 371.618C837.833 371.303 837.507 371.085 837.137 371.011L816.062 366.804C815.692 366.73 815.307 366.806 814.993 367.016C814.678 367.225 814.46 367.551 814.386 367.922L813.982 369.945L811.757 369.501C811.386 369.427 811.001 369.503 810.687 369.713C810.372 369.922 810.154 370.248 810.08 370.619L809.662 372.715L807.566 372.296C807.195 372.222 806.811 372.298 806.496 372.508C806.182 372.718 805.964 373.044 805.89 373.414L805.443 375.65L803.218 375.206C802.847 375.132 802.462 375.208 802.148 375.418C801.834 375.627 801.615 375.953 801.541 376.324L801.138 378.347L799.114 377.943C798.744 377.869 798.359 377.945 798.045 378.155C797.73 378.365 797.512 378.691 797.438 379.061L797.02 381.157L794.924 380.739C794.553 380.665 794.168 380.741 793.854 380.951C793.54 381.16 793.322 381.486 793.248 381.857L791.633 389.941C791.559 390.312 791.636 390.697 791.845 391.011C792.055 391.325 792.381 391.544 792.752 391.618L800.836 393.232C801.207 393.306 801.591 393.229 801.906 393.02C802.22 392.81 802.438 392.484 802.512 392.113L802.931 390.018L805.027 390.436C805.397 390.51 805.782 390.434 806.096 390.224C806.411 390.014 806.629 389.688 806.703 389.318L807.107 387.295L809.13 387.699C809.5 387.773 809.885 387.696 810.2 387.487C810.514 387.277 810.732 386.951 810.806 386.58L811.251 384.355L813.476 384.799C813.847 384.873 814.232 384.797 814.546 384.587C814.86 384.377 815.079 384.051 815.152 383.681L815.571 381.585L817.667 382.003C818.037 382.077 818.422 382.001 818.736 381.791C819.051 381.582 819.269 381.256 819.343 380.885L819.747 378.862L829.173 380.744L828.769 382.767C828.695 383.138 828.771 383.522 828.981 383.837C829.19 384.151 829.516 384.369 829.887 384.443L831.913 384.848L831.494 386.944C831.421 387.314 831.497 387.699 831.706 388.013C831.916 388.328 832.242 388.546 832.613 388.62L834.771 389.051L834.327 391.277C834.253 391.647 834.329 392.032 834.539 392.346C834.749 392.661 835.075 392.879 835.445 392.953L837.401 393.343L836.997 395.367C836.923 395.737 837 396.122 837.209 396.436C837.419 396.751 837.745 396.969 838.116 397.043L840.142 397.447L839.723 399.543C839.649 399.914 839.726 400.298 839.935 400.613C840.145 400.927 840.471 401.145 840.841 401.219L848.796 402.807C849.166 402.881 849.551 402.805 849.866 402.595C850.18 402.386 850.398 402.06 850.472 401.689L852.088 393.594C852.162 393.223 852.086 392.838 851.876 392.524C851.667 392.21 851.341 391.991 850.97 391.917ZM849.077 401.399L841.128 399.812L841.826 396.319L838.403 395.635L839.085 392.215L835.732 391.545L836.455 387.922L832.9 387.212L833.597 383.719L830.174 383.036L830.857 379.616L818.637 377.176L817.954 380.596L814.461 379.899L813.763 383.392L810.14 382.668L809.417 386.291L805.996 385.608L805.313 389.029L801.82 388.331L801.123 391.824L793.048 390.212L794.662 382.128L798.156 382.825L798.853 379.332L802.273 380.015L802.954 376.606L806.577 377.329L807.302 373.696L810.795 374.394L811.493 370.901L815.116 371.624L815.799 368.204L836.875 372.412L836.192 375.832L839.748 376.542L839.05 380.035L842.455 380.715L841.73 384.348L845.286 385.058L844.603 388.478L847.956 389.148L847.259 392.641L850.689 393.326L849.077 401.399Z" fill="white"/>
</g>
<path d="M846.762 392.966L847.459 389.479L844.103 388.809L844.785 385.388L841.23 384.678L841.953 381.055L838.53 380.372L839.226 376.884L835.671 376.175L836.354 372.754L816.117 368.713L815.434 372.134L811.811 371.411L811.115 374.898L807.627 374.202L806.904 377.825L803.281 377.101L802.598 380.522L799.178 379.839L798.481 383.326L794.994 382.63L793.547 389.876L800.793 391.323L801.489 387.835L804.977 388.532L805.66 385.111L809.08 385.794L809.803 382.171L813.426 382.894L814.123 379.407L817.61 380.103L818.293 376.683L831.352 379.29L830.669 382.711L834.091 383.394L833.394 386.881L836.95 387.591L836.227 391.214L839.584 391.885L838.901 395.305L842.323 395.988L841.627 399.476L848.739 400.896L850.186 393.65L846.762 392.966Z" fill="#B1EAEB" stroke="#2DC8CB" stroke-width="2.32315" stroke-miterlimit="10"/>
<g filter="url(#filter2_d_0_1)">
<path d="M3.96537 21.6881L5.48381 21.3849L5.16996 19.8131C5.11447 19.5351 5.17166 19.2466 5.32894 19.0108C5.48623 18.775 5.73072 18.6114 6.00865 18.5559L7.47574 18.263L7.17445 16.754C7.11895 16.4761 7.17614 16.1875 7.33343 15.9517C7.49071 15.7159 7.73521 15.5523 8.01313 15.4968L9.63846 15.1723L9.30369 13.4956C9.2482 13.2177 9.30539 12.9291 9.46267 12.6934C9.61996 12.4576 9.86445 12.294 10.1424 12.2385L11.6608 11.9353L11.347 10.3634C11.2915 10.0855 11.3487 9.79692 11.506 9.56116C11.6632 9.3254 11.9077 9.16178 12.1857 9.10628L13.8047 8.78302L13.5017 7.26564C13.4462 6.98771 13.5034 6.69913 13.6607 6.46336C13.818 6.2276 14.0625 6.06398 14.3404 6.00849L30.1462 2.85266C30.4241 2.79716 30.7127 2.85435 30.9485 3.01164C31.1842 3.16892 31.3479 3.41342 31.4034 3.69134L31.7063 5.20873L33.3757 4.87543C33.6536 4.81994 33.9422 4.87713 34.1779 5.03441C34.4137 5.1917 34.5773 5.43619 34.6328 5.71412L34.9467 7.286L36.5185 6.97215C36.7965 6.91666 37.085 6.97385 37.3208 7.13114C37.5566 7.28842 37.7202 7.53292 37.7757 7.81084L38.1105 9.48751L39.7798 9.15421C40.0577 9.09872 40.3463 9.1559 40.5821 9.31319C40.8178 9.47047 40.9814 9.71497 41.0369 9.9929L41.3399 11.5103L42.8573 11.2073C43.1352 11.1518 43.4238 11.209 43.6596 11.3663C43.8953 11.5236 44.059 11.7681 44.1145 12.046L44.4283 13.6179L46.0002 13.304C46.2781 13.2485 46.5667 13.3057 46.8025 13.463C47.0382 13.6203 47.2019 13.8648 47.2573 14.1427L48.468 20.206C48.5234 20.4839 48.4663 20.7725 48.309 21.0083C48.1517 21.244 47.9072 21.4077 47.6293 21.4631L41.566 22.6738C41.2881 22.7293 40.9995 22.6721 40.7637 22.5148C40.5279 22.3575 40.3643 22.113 40.3088 21.8351L39.995 20.2632L38.4231 20.577C38.1452 20.6325 37.8566 20.5753 37.6208 20.4181C37.3851 20.2608 37.2214 20.0163 37.166 19.7383L36.863 18.221L35.3456 18.5239C35.0677 18.5794 34.7791 18.5222 34.5433 18.3649C34.3076 18.2077 34.1439 17.9632 34.0884 17.6852L33.7551 16.0159L32.0858 16.3492C31.8079 16.4047 31.5193 16.3475 31.2835 16.1902C31.0478 16.0329 30.8842 15.7884 30.8287 15.5105L30.5148 13.9386L28.9429 14.2525C28.665 14.308 28.3764 14.2508 28.1407 14.0935C27.9049 13.9362 27.7413 13.6917 27.6858 13.4138L27.3828 11.8964L20.3135 13.3079L20.6165 14.8253C20.672 15.1032 20.6148 15.3918 20.4575 15.6275C20.3003 15.8633 20.0557 16.0269 19.7778 16.0824L18.2583 16.3858L18.5722 17.9577C18.6277 18.2356 18.5705 18.5242 18.4132 18.76C18.2559 18.9957 18.0114 19.1593 17.7335 19.2148L16.1144 19.5381L16.4477 21.2074C16.5032 21.4854 16.446 21.7739 16.2888 22.0097C16.1315 22.2455 15.887 22.4091 15.6091 22.4646L14.142 22.7575L14.4449 24.2749C14.5004 24.5528 14.4432 24.8414 14.286 25.0772C14.1287 25.3129 13.8842 25.4765 13.6062 25.532L12.0868 25.8354L12.4006 27.4073C12.4561 27.6852 12.3989 27.9738 12.2416 28.2096C12.0843 28.4453 11.8398 28.609 11.5619 28.6645L5.59611 29.8556C5.31819 29.9111 5.0296 29.8539 4.79384 29.6966C4.55808 29.5393 4.39445 29.2948 4.33896 29.0169L3.12668 22.9453C3.07119 22.6673 3.12838 22.3788 3.28566 22.143C3.44295 21.9072 3.68744 21.7436 3.96537 21.6881ZM5.38521 28.7993L11.3468 27.609L10.8237 24.9892L13.3911 24.4766L12.8789 21.9113L15.394 21.4091L14.8514 18.6919L17.5184 18.1594L16.9953 15.5396L19.5627 15.0269L19.0505 12.4616L28.2156 10.6317L28.7278 13.197L31.3476 12.6739L31.8707 15.2937L34.588 14.7512L35.1305 17.4685L37.6958 16.9563L38.208 19.5216L40.8278 18.9985L41.3509 21.6183L47.4068 20.4092L46.1962 14.3459L43.5764 14.869L43.0533 12.2492L40.488 12.7614L39.9775 10.2044L37.2603 10.747L36.7163 8.02237L34.0964 8.54545L33.5734 5.92565L30.8561 6.46819L30.3439 3.90288L14.5371 7.05891L15.0493 9.62422L12.3823 10.1567L12.9054 12.7765L10.3516 13.2864L10.8956 16.011L8.22866 16.5435L8.74086 19.1088L6.22585 19.611L6.74892 22.2308L4.17627 22.7444L5.38521 28.7993Z" fill="white"/>
</g>
<path d="M7.12109 22.4746L6.59885 19.859L9.11596 19.3564L8.60376 16.7911L11.2707 16.2586L10.7282 13.5414L13.2956 13.0288L12.7733 10.4132L15.4393 9.88087L14.9271 7.31556L30.1051 4.28506L30.6173 6.85037L33.3346 6.30783L33.8568 8.92344L36.4724 8.4012L37.015 11.1185L39.7322 10.5759L40.2444 13.1412L42.8097 12.629L43.332 15.2446L45.9476 14.7224L47.0327 20.1569L41.5981 21.242L41.0759 18.6264L38.4603 19.1486L37.9481 16.5833L35.3828 17.0955L34.8403 14.3783L32.123 14.9208L31.6008 12.3052L28.9851 12.8274L28.473 10.2621L18.6791 12.2176L19.1913 14.7829L16.6249 15.2953L17.1472 17.9109L14.4802 18.4434L15.0227 21.1607L12.5046 21.6634L13.0168 24.2287L10.4504 24.7412L10.9727 27.3568L5.63876 28.4217L4.55369 22.9872L7.12109 22.4746Z" fill="#B1EAEB" stroke="#2DC8CB" stroke-width="2.32315" stroke-miterlimit="10"/>
<defs>
<filter id="filter0_d_0_1" x="870.284" y="39.0338" width="54.7395" height="53.4173" filterUnits="userSpaceOnUse" color-interpolation-filters="sRGB">
<feFlood flood-opacity="0" result="BackgroundImageFix"/>
<feColorMatrix in="SourceAlpha" type="matrix" values="0 0 0 0 0 0 0 0 0 0 0 0 0 0 0 0 0 0 127 0" result="hardAlpha"/>
<feOffset dx="2.6073" dy="3.4764"/>
<feComposite in2="hardAlpha" operator="out"/>
<feColorMatrix type="matrix" values="0 0 0 0 0.0117647 0 0 0 0 0.854902 0 0 0 0 0.772549 0 0 0 0.25 0"/>
<feBlend mode="normal" in2="BackgroundImageFix" result="effect1_dropShadow_0_1"/>
<feBlend mode="normal" in="SourceGraphic" in2="effect1_dropShadow_0_1" result="shape"/>
</filter>
<filter id="filter1_d_0_1" x="791.606" y="366.776" width="62.7284" height="39.0166" filterUnits="userSpaceOnUse" color-interpolation-filters="sRGB">
<feFlood flood-opacity="0" result="BackgroundImageFix"/>
<feColorMatrix in="SourceAlpha" type="matrix" values="0 0 0 0 0 0 0 0 0 0 0 0 0 0 0 0 0 0 127 0" result="hardAlpha"/>
<feOffset dx="2.21816" dy="2.95755"/>
<feComposite in2="hardAlpha" operator="out"/>
<feColorMatrix type="matrix" values="0 0 0 0 0.0117647 0 0 0 0 0.854902 0 0 0 0 0.772549 0 0 0 0.25 0"/>
<feBlend mode="normal" in2="BackgroundImageFix" result="effect1_dropShadow_0_1"/>
<feBlend mode="normal" in="SourceGraphic" in2="effect1_dropShadow_0_1" result="shape"/>
</filter>
<filter id="filter2_d_0_1" x="3.10599" y="2.83191" width="47.6008" height="30.002" filterUnits="userSpaceOnUse" color-interpolation-filters="sRGB">
<feFlood flood-opacity="0" result="BackgroundImageFix"/>
<feColorMatrix in="SourceAlpha" type="matrix" values="0 0 0 0 0 0 0 0 0 0 0 0 0 0 0 0 0 0 127 0" result="hardAlpha"/>
<feOffset dx="2.21816" dy="2.95755"/>
<feComposite in2="hardAlpha" operator="out"/>
<feColorMatrix type="matrix" values="0 0 0 0 0.0117647 0 0 0 0 0.854902 0 0 0 0 0.772549 0 0 0 0.25 0"/>
<feBlend mode="normal" in2="BackgroundImageFix" result="effect1_dropShadow_0_1"/>
<feBlend mode="normal" in="SourceGraphic" in2="effect1_dropShadow_0_1" result="shape"/>
</filter>
</defs>
</svg>
