<svg width="29" height="29" viewBox="0 0 29 29" fill="none" xmlns="http://www.w3.org/2000/svg">
<circle cx="14.5" cy="14.5" r="14.5" fill="black"/>
<path d="M15.1363 11.7554C15.1465 11.7656 15.1567 11.7861 15.1669 11.7963L15.1771 11.8065C15.1872 11.8167 15.1872 11.8269 15.1974 11.8371C15.2076 11.8473 15.2178 11.8473 15.2178 11.8575L16.3905 13.0312C16.4415 13.0822 16.5026 13.1026 16.574 13.1026H16.5842C16.625 13.1231 16.6658 13.1333 16.7168 13.1333L20.1123 13.0516C20.3978 13.0414 20.6222 12.8169 20.6222 12.5311V10.4899C20.6222 9.62238 20.4896 8.96919 20.1939 8.4793C20.1939 8.40786 18.695 6.88716 18.6746 6.86674C18.0933 6.33603 17.1756 6.13191 15.8704 6.24418L11.6795 6.57077C9.41583 6.76468 8.26359 7.71385 8.26359 9.38764V18.0117C8.26359 18.6241 8.40634 19.2059 8.68166 19.5835C8.95697 19.9611 10.3132 21.3083 10.5579 21.4818L10.5681 21.492C10.5987 21.5124 10.6191 21.5328 10.6598 21.543C11.2309 21.9105 11.9854 22.1452 12.9134 22.2268L17.0533 22.5636C17.2368 22.5841 17.4204 22.5841 17.5835 22.5841C18.5216 22.5841 19.2558 22.3493 19.7758 21.8696C20.3367 21.3491 20.6222 20.5735 20.6222 19.5427V16.685C20.6222 16.6441 20.612 16.6135 20.6018 16.5727C20.612 16.491 20.5916 16.4196 20.5304 16.3584L19.3068 15.1438C19.2762 15.1132 19.2456 15.0928 19.2048 15.0826C19.1334 15.0418 19.062 15.0214 18.9703 15.0214L15.5747 14.9703C15.4422 14.9703 15.2994 15.0214 15.2076 15.1234C15.1057 15.2255 15.0547 15.348 15.0547 15.4909V17.9811L13.8719 17.9403V10.9288L15.0445 10.8675V11.4595C15.0445 11.5615 15.0751 11.6636 15.1363 11.7554ZM19.3985 8.32621C19.4189 8.34662 19.4495 8.36703 19.4699 8.38745C19.8982 8.78548 20.1021 9.44887 20.1021 10.4797V12.2555L19.4393 11.5513C19.4597 11.5003 19.4699 11.4391 19.4699 11.3778V9.33661C19.4801 8.95898 19.4597 8.62218 19.3985 8.32621ZM16.727 12.6025L16.0846 11.9596L18.9805 11.8881C19.0009 11.8881 19.0315 11.8881 19.0519 11.8779L19.6637 12.5311L16.727 12.6025ZM20.1123 16.7054V19.5631C20.1123 20.4408 19.888 21.094 19.4291 21.5022C18.9295 21.9615 18.1545 22.1452 17.0941 22.0533L12.9541 21.7267C12.0976 21.6553 11.4144 21.4512 10.925 21.1348L10.7108 20.9205C11.0371 21.0021 11.3838 21.0634 11.7713 21.094L15.9112 21.4308C16.0948 21.4512 16.2783 21.4512 16.4415 21.4512C17.3796 21.4512 18.1137 21.2164 18.6338 20.7368C19.1946 20.2162 19.4801 19.4406 19.4801 18.4098V16.0624L20.1123 16.685C20.1123 16.6952 20.1123 16.7054 20.1123 16.7054ZM12.7298 17.8791V10.1021L13.3926 10.7552C13.3722 10.8063 13.362 10.8675 13.362 10.9185V17.9097L12.7298 17.8791ZM13.8515 10.4082C13.8311 10.4082 13.8005 10.4184 13.7801 10.4184L13.1173 9.75506L15.0445 9.6632V10.347L13.8515 10.4082Z" fill="white"/>
</svg>
