<svg width="1041" height="504" viewBox="0 0 1041 504" fill="none" xmlns="http://www.w3.org/2000/svg">
<g filter="url(#filter0_d_4_1605)">
<path d="M62.3828 359.297V364.01H60.0527V366.34H57.6696V368.67H55.3395V371.053H53.0094V373.383H48.2963V375.713H41.253V378.096H31.8796V375.713H24.8363V373.383H20.1232V371.053H17.7931V368.67H15.463V366.34H13.0799V364.01H10.7498V359.297H8.41968V352.253H6.03662V342.88H8.41968V335.837H10.7498V331.124H13.0799V328.794H15.463V326.463H17.7931V324.08H20.1232V321.75H24.8363V319.42H31.8796V317.037H41.253V319.42H48.2963V321.75H53.0094V324.08H55.3395V326.463H57.6696V328.794H60.0527V331.124H62.3828V335.837H64.7129V342.88H67.096V352.253H64.7129V359.297H62.3828Z" fill="#B1EAEB"/>
<path d="M69.4263 342.88H67.0962V352.253H69.4263V342.88Z" fill="#2DC8CB"/>
<path d="M67.043 352.253H64.7129V359.296H67.043V352.253Z" fill="#2DC8CB"/>
<path d="M67.043 335.837H64.7129V342.88H67.043V335.837Z" fill="#2DC8CB"/>
<path d="M64.7129 331.123H62.3828V335.836H64.7129V331.123Z" fill="#2DC8CB"/>
<path d="M64.7129 359.296H62.3828V364.01H64.7129V359.296Z" fill="#2DC8CB"/>
<path d="M62.3828 328.793H60.0527V331.123H62.3828V328.793Z" fill="#2DC8CB"/>
<path d="M62.3828 364.01H60.0527V366.34H62.3828V364.01Z" fill="#2DC8CB"/>
<path d="M60 326.463H57.6699V328.793H60V326.463Z" fill="#2DC8CB"/>
<path d="M60 366.339H57.6699V368.669H60V366.339Z" fill="#2DC8CB"/>
<path d="M57.6699 324.08H55.3398V326.41H57.6699V324.08Z" fill="#2DC8CB"/>
<path d="M57.6699 368.669H55.3398V371H57.6699V368.669Z" fill="#2DC8CB"/>
<path d="M55.3394 321.75H53.0093V324.08H55.3394V321.75Z" fill="#2DC8CB"/>
<path d="M55.3394 371.053H53.0093V373.383H55.3394V371.053Z" fill="#2DC8CB"/>
<path d="M53.0096 319.419H48.2964V321.75H53.0096V319.419Z" fill="#2DC8CB"/>
<path d="M53.0096 373.383H48.2964V375.713H53.0096V373.383Z" fill="#2DC8CB"/>
<path d="M48.2962 375.713H41.2529V378.043H48.2962V375.713Z" fill="#2DC8CB"/>
<path d="M48.2962 317.037H41.2529V319.367H48.2962V317.037Z" fill="#2DC8CB"/>
<path d="M41.2533 378.096H31.8799V380.426H41.2533V378.096Z" fill="#2DC8CB"/>
<path d="M41.2533 314.707H31.8799V317.037H41.2533V314.707Z" fill="#2DC8CB"/>
<path d="M31.8797 375.713H24.8364V378.043H31.8797V375.713Z" fill="#2DC8CB"/>
<path d="M31.8797 317.037H24.8364V319.367H31.8797V317.037Z" fill="#2DC8CB"/>
<path d="M24.8367 319.419H20.1235V321.75H24.8367V319.419Z" fill="#2DC8CB"/>
<path d="M24.8367 373.383H20.1235V375.713H24.8367V373.383Z" fill="#2DC8CB"/>
<path d="M20.1231 321.75H17.793V324.08H20.1231V321.75Z" fill="#2DC8CB"/>
<path d="M20.1231 371.053H17.793V373.383H20.1231V371.053Z" fill="#2DC8CB"/>
<path d="M17.7935 324.08H15.4634V326.41H17.7935V324.08Z" fill="#2DC8CB"/>
<path d="M17.7935 368.669H15.4634V371H17.7935V368.669Z" fill="#2DC8CB"/>
<path d="M15.4102 326.463H13.0801V328.793H15.4102V326.463Z" fill="#2DC8CB"/>
<path d="M15.4102 366.339H13.0801V368.669H15.4102V366.339Z" fill="#2DC8CB"/>
<path d="M13.0796 328.793H10.7495V331.123H13.0796V328.793Z" fill="#2DC8CB"/>
<path d="M13.0796 364.01H10.7495V366.34H13.0796V364.01Z" fill="#2DC8CB"/>
<path d="M10.75 331.123H8.41992V335.836H10.75V331.123Z" fill="#2DC8CB"/>
<path d="M10.75 359.296H8.41992V364.01H10.75V359.296Z" fill="#2DC8CB"/>
<path d="M8.36673 335.837H6.03662V342.88H8.36673V335.837Z" fill="#2DC8CB"/>
<path d="M8.36673 352.253H6.03662V359.296H8.36673V352.253Z" fill="#2DC8CB"/>
<path d="M6.03665 342.88H3.70654V352.253H6.03665V342.88Z" fill="#2DC8CB"/>
<path d="M69.4266 382.756V385.139H62.3833V382.756H60.0532V375.712H62.3833V373.382H69.4266V375.712H71.7567V382.756H69.4266Z" fill="#B1EAEB"/>
<path d="M74.0869 375.712H71.7568V382.755H74.0869V375.712Z" fill="#2DC8CB"/>
<path d="M71.7569 382.755H69.4268V385.085H71.7569V382.755Z" fill="#2DC8CB"/>
<path d="M71.7569 373.382H69.4268V375.712H71.7569V373.382Z" fill="#2DC8CB"/>
<path d="M69.4271 385.138H62.3838V387.468H69.4271V385.138Z" fill="#2DC8CB"/>
<path d="M69.4271 371.052H62.3838V373.382H69.4271V371.052Z" fill="#2DC8CB"/>
<path d="M62.3833 373.382H60.0532V375.712H62.3833V373.382Z" fill="#2DC8CB"/>
<path d="M62.3833 382.755H60.0532V385.085H62.3833V382.755Z" fill="#2DC8CB"/>
<path d="M60.0005 375.712H57.6704V382.755H60.0005V375.712Z" fill="#2DC8CB"/>
<path d="M78.8528 387.47H74.1396V392.183H78.8528V387.47Z" fill="#B1EAEB"/>
<path d="M81.1299 387.47H78.7998V392.183H81.1299V387.47Z" fill="#2DC8CB"/>
<path d="M78.8528 385.139H74.1396V387.469H78.8528V385.139Z" fill="#2DC8CB"/>
<path d="M78.8528 392.13H74.1396V394.46H78.8528V392.13Z" fill="#2DC8CB"/>
<path d="M74.0869 387.47H71.7568V392.183H74.0869V387.47Z" fill="#2DC8CB"/>
<path d="M41.2535 314.707V317.037H48.2967V319.367H53.0099V321.697H55.34V324.027H57.6701V326.358H60.0002V328.688H62.3303V331.124H64.6604V335.837H66.9905V342.88H69.3206V352.253H66.9905V359.297H64.6604V364.01H62.3303V366.34H60.0002V368.67H57.6701V371H55.34V373.33H53.0099V375.66H48.2967V377.991H41.2535V380.321H31.8801V377.991H24.8368V375.66H20.1236V373.33H17.7935V371H15.4634V368.67H13.1333V366.34H10.8032V364.01H8.47311V359.297H6.14301V352.253H3.70699V342.88H6.03709V335.837H8.3672V331.124H10.6973V328.794H13.0274V326.463H15.3575V324.133H17.6876V321.803H20.1236V319.473H24.8368V317.143H31.8801V314.707H41.2535ZM69.4266 371.053V373.383H71.7567V375.713H74.0868V382.757H71.7567V385.087H69.4266V387.417H62.3833V385.14H60.0532V382.81H57.7231V375.766H60.0532V373.436H62.3833V371.106H69.4266V371.053ZM78.7999 385.14V387.47H81.13V392.183H78.7999V394.513H74.1397V392.183H71.8096V387.47H74.1397V385.14H78.7999ZM44.9604 311H41.2535H31.8801H28.1731V313.33H24.8368H21.1298V315.66H20.1236H16.4167V317.99H14.0865V320.32H11.7564V322.651H9.42634V324.981H7.09623V327.417H4.71317V331.124V332.13H2.33011V335.837V339.173H0V342.88V352.253V355.96H2.33011V359.297V363.004H4.66021V364.01V367.717H6.99032V370.047H9.32042V372.377H11.6505V374.707H13.9806V377.037H16.4167V379.367H20.1236H21.1298V381.698H24.8368H28.1731V384.028H31.8801H41.2535H44.9604V381.698H48.2967H52.0037V379.367H53.0099H54.0161V382.704V386.411H56.3462V388.741H58.6763V391.071H62.3833H68.0497V392.077V395.784H70.3798V398.114H74.0868H78.7999H82.5069V395.784H84.837V392.077V387.364V383.657H82.5069V381.433H78.7999H77.8467V375.766V372.059H75.5166V369.729H73.1865V367.399H69.4795H68.4733V364.063V363.057H70.8034V359.35V356.013H73.1335V352.306V342.88V339.173H70.8034V335.837V332.13H68.4733V331.124V327.417H66.1432V325.087H63.8131V322.756H61.483V320.426H59.1529V318.096H56.8228V315.713H53.1158H52.1096V313.33H48.4026H45.0664V311H44.9604Z" fill="white"/>
</g>
<g filter="url(#filter1_d_4_1605)">
<path d="M1030.58 32.1478L1029.96 31.9544L1030.09 31.4065C1030.8 28.3013 1028.5 24.8418 1025.01 23.7462L1011.96 19.6536C1008.47 18.5579 1005.01 20.2128 1004.3 23.318L1004.17 23.8659L1003.56 23.6726C1002.32 23.2859 1001.13 23.2054 1000.08 23.4633C999.283 22.6254 998.216 21.9969 996.983 21.6102L996.777 21.5457L996.903 20.9978C997.614 17.8926 995.322 14.4331 991.83 13.3375L978.372 9.11602C974.879 8.02037 971.52 9.70747 970.809 12.8126L970.684 13.3606L970.478 13.2961C966.985 12.2005 963.544 13.764 962.834 16.8692L958.674 35.0435C957.963 38.1486 960.254 41.6081 963.747 42.7038L963.953 42.7682L963.827 43.3162C963.117 46.4213 965.408 49.8808 968.901 50.9765L969.106 51.0409L968.981 51.5889C968.27 54.694 970.561 58.1535 974.054 59.2492L974.67 59.4425L974.545 59.9905C973.834 63.0956 976.125 66.5551 979.618 67.6508L979.824 67.7152L979.698 68.2632C978.988 71.3683 981.279 74.8278 984.772 75.9235L991.347 77.9859C994.839 79.0815 998.301 77.4266 999.012 74.3215L999.137 73.7735L999.754 73.9669C1003.25 75.0625 1006.71 73.4076 1007.42 70.3025L1007.54 69.7545L1007.75 69.819C1011.24 70.9146 1014.7 69.2597 1015.42 66.1546L1015.54 65.6066L1015.75 65.6711C1019.24 66.7667 1022.7 65.1118 1023.41 62.0067L1023.54 61.4587L1024.15 61.6521C1027.65 62.7477 1031.11 61.0928 1031.82 57.9877L1035.98 39.8134C1036.38 36.6116 1034.07 33.2434 1030.58 32.1478Z" fill="white"/>
<path d="M1015.92 33.5716L1009.25 31.482L1007.83 37.6775L1001.17 35.5879L999.769 41.6922L993.104 39.6026L994.502 33.4982L987.837 31.4086L989.256 25.2132L982.59 23.1236L975.925 21.0339L974.506 27.2294L973.108 33.3337L971.71 39.4381L978.375 41.5277L976.977 47.632L983.643 49.7216L982.224 55.9171L988.889 58.0067L987.491 64.111L994.157 66.2007L995.555 60.0963L1002.22 62.1859L1003.64 55.9905L1010.3 58.0801L1011.7 51.9758L1018.37 54.0654L1019.77 47.961L1021.16 41.8567L1022.58 35.6612L1015.92 33.5716Z" fill="#B1EAEB"/>
<path d="M992.922 67.8307L986.165 65.6544L984.81 71.7342L991.567 73.9105L992.922 67.8307Z" fill="#2DC8CB"/>
<path d="M1001.04 62.9801L994.279 60.8038L992.924 66.8836L999.681 69.0599L1001.04 62.9801Z" fill="#2DC8CB"/>
<path d="M988.323 59.5734L981.566 57.3971L980.211 63.4769L986.968 65.6532L988.323 59.5734Z" fill="#2DC8CB"/>
<path d="M1009.18 58.0353L1002.42 55.859L1001.06 61.9388L1007.82 64.1151L1009.18 58.0353Z" fill="#2DC8CB"/>
<path d="M983.746 51.2211L976.988 49.0448L975.633 55.1246L982.39 57.3009L983.746 51.2211Z" fill="#2DC8CB"/>
<path d="M1017.29 53.1847L1010.53 51.0084L1009.18 57.0882L1015.93 59.2645L1017.29 53.1847Z" fill="#2DC8CB"/>
<path d="M979.144 42.963L972.387 40.7867L971.031 46.8665L977.789 49.0428L979.144 42.963Z" fill="#2DC8CB"/>
<path d="M1001.73 34.9678L994.97 32.7915L993.614 38.8713L1000.37 41.0476L1001.73 34.9678Z" fill="#2DC8CB"/>
<path d="M976.605 28.0664L978.081 21.6118L970.718 19.3003L969.242 25.7549L967.787 32.1146L966.333 38.4743L973.696 40.7858L975.15 34.4261L976.605 28.0664Z" fill="#2DC8CB"/>
<path d="M1021.68 32.9579L1020.2 39.4152L1018.75 45.7775L1017.29 52.1398L1024.55 54.4172L1026.01 48.0549L1027.46 41.6926L1028.94 35.2353L1021.68 32.9579Z" fill="#2DC8CB"/>
<path d="M1009.87 30.0202L1003.11 27.8439L1001.76 33.9237L1008.51 36.0999L1009.87 30.0202Z" fill="#2DC8CB"/>
<path d="M997.153 26.6148L990.395 24.4385L989.04 30.5183L995.797 32.6946L997.153 26.6148Z" fill="#2DC8CB"/>
<path d="M1023.02 32.9556L1024.34 27.1514L1017.76 25.0737L1011.19 22.9961L1009.87 28.8003L1016.44 30.8779L1023.02 32.9556Z" fill="#2DC8CB"/>
<path d="M991.234 24.4376L992.553 18.6334L985.977 16.5558L979.402 14.4781L978.083 20.2823L984.659 22.36L991.234 24.4376Z" fill="#2DC8CB"/>
</g>
<g filter="url(#filter2_d_4_1605)">
<path d="M845.172 493.492C844.209 493.35 843.432 492.445 843.505 491.553L844.055 484.862C844.128 483.97 845.034 483.313 845.997 483.455L846.598 483.544L847.771 469.27C847.844 468.378 848.75 467.722 849.713 467.864L850.314 467.953L850.36 467.395C850.433 466.503 851.339 465.847 852.301 465.989L852.903 466.078L852.949 465.52C853.022 464.628 853.928 463.972 854.89 464.114L855.492 464.203L855.537 463.645C855.611 462.753 856.517 462.097 857.479 462.239L857.96 462.31L858.052 461.195L857.45 461.106C856.488 460.964 855.71 460.059 855.784 459.167L855.83 458.609L855.228 458.521C854.266 458.378 853.488 457.473 853.562 456.581L853.607 456.024L853.006 455.935C852.044 455.793 851.266 454.888 851.339 453.995L851.385 453.438L850.784 453.349C849.822 453.207 849.044 452.302 849.117 451.41L850.29 437.136L849.689 437.047C848.727 436.905 847.949 435.999 848.022 435.107L848.581 428.305C848.655 427.413 849.561 426.756 850.523 426.899L891.898 433.012C892.86 433.154 893.638 434.059 893.564 434.951L893.005 441.754C892.932 442.646 892.026 443.302 891.064 443.16L890.462 443.071L889.289 457.345C889.216 458.237 888.31 458.894 887.348 458.751L886.746 458.663L886.7 459.22C886.627 460.112 885.721 460.769 884.759 460.626L884.157 460.537L884.112 461.095C884.038 461.987 883.132 462.643 882.17 462.501L881.569 462.412L881.523 462.97C881.449 463.862 880.543 464.518 879.581 464.376L878.98 464.287L878.888 465.402L879.61 465.509C880.572 465.651 881.35 466.556 881.276 467.448L881.231 468.006L881.832 468.095C882.794 468.237 883.572 469.142 883.499 470.034L883.453 470.592L884.054 470.681C885.016 470.823 885.794 471.728 885.721 472.62L885.675 473.178L886.276 473.266C887.239 473.409 888.016 474.314 887.943 475.206L886.779 489.368L887.38 489.457C888.343 489.599 889.12 490.504 889.047 491.397L888.497 498.088C888.424 498.98 887.518 499.636 886.556 499.494L845.181 493.38L845.172 493.492Z" fill="white"/>
<path d="M891.745 434.707L891.561 436.936L891.378 439.165L891.195 441.394L888.792 441.039L888.609 443.267L888.426 445.496L888.243 447.725L888.06 449.954L887.877 452.182L887.675 454.634L887.492 456.863L885.089 456.508L884.906 458.737L882.503 458.381L882.32 460.61L879.917 460.255L879.734 462.484L877.331 462.129L877.148 464.357L876.965 466.586L877.085 466.604L879.488 466.959L879.305 469.188L881.708 469.543L881.525 471.772L883.928 472.127L883.745 474.356L886.148 474.711L885.964 476.94L885.763 479.391L885.58 481.62L885.397 483.849L885.214 486.078L885.031 488.307L884.847 490.535L887.25 490.891L887.067 493.119L886.884 495.348L886.701 497.577L884.298 497.222L881.895 496.867L879.492 496.511L877.089 496.156L874.686 495.801L872.283 495.446L869.88 495.091L867.478 494.736L864.834 494.345L862.431 493.99L860.028 493.634L857.625 493.279L855.222 492.924L852.82 492.569L850.417 492.214L848.014 491.859L845.611 491.503L845.794 489.275L845.977 487.046L846.16 484.817L848.563 485.172L848.746 482.943L848.929 480.715L849.112 478.486L849.295 476.257L849.478 474.028L849.68 471.577L849.863 469.348L852.266 469.703L852.449 467.474L854.852 467.829L855.035 465.601L857.438 465.956L857.621 463.727L859.904 464.064L860.087 461.836L860.27 459.607L857.867 459.252L858.05 457.023L855.407 456.632L855.59 454.403L853.187 454.048L853.37 451.819L850.967 451.464L851.15 449.235L851.352 446.784L851.535 444.555L851.718 442.326L851.901 440.097L852.084 437.869L852.267 435.64L849.864 435.285L850.048 433.056L850.231 430.827L850.414 428.598L852.817 428.954L855.22 429.309L857.623 429.664L860.026 430.019L862.429 430.374L864.831 430.729L867.234 431.085L869.637 431.44L872.281 431.83L874.684 432.186L877.087 432.541L879.489 432.896L881.892 433.251L884.295 433.606L886.698 433.962L889.101 434.317L891.745 434.707ZM892.019 431.364L889.616 431.009L887.213 430.654L884.81 430.299L882.407 429.943L880.004 429.588L877.601 429.233L875.199 428.878L872.796 428.523L870.152 428.132L867.749 427.777L865.346 427.422L862.943 427.067L860.541 426.711L857.897 426.321L855.494 425.966L853.091 425.61L850.688 425.255C848.646 424.953 846.965 426.171 846.809 428.066L846.626 430.294L846.443 432.523L846.26 434.752C846.141 436.201 847.001 437.569 848.407 438.227L848.297 439.565L848.114 441.793L847.931 444.022L847.747 446.251L847.546 448.703L847.363 450.932C847.235 452.492 848.215 453.877 849.621 454.536C849.889 455.704 850.666 456.608 851.84 457.12C852.109 458.288 853.006 459.21 854.06 459.704C854.135 460.279 854.458 460.778 854.791 461.166C854.403 461.447 854.127 461.857 853.97 462.285C852.741 462.442 851.836 463.097 851.384 464.159C850.155 464.315 849.241 465.083 848.798 466.032C847.319 466.265 846.137 467.331 846.009 468.891L845.826 471.12L845.625 473.571L845.441 475.8L845.258 478.029L845.075 480.258L844.965 481.595C843.487 481.828 842.425 482.912 842.306 484.36L842.123 486.589L841.94 488.818L841.757 491.047C841.601 492.941 843.044 494.621 845.087 494.923L847.49 495.278L849.892 495.633L852.295 495.988L854.698 496.343L857.101 496.698L859.504 497.054L861.907 497.409L864.31 497.764L866.953 498.155L869.356 498.51L871.759 498.865L874.162 499.22L876.565 499.575L878.968 499.931L881.371 500.286L883.774 500.641L886.177 500.996C888.22 501.298 889.9 500.08 890.056 498.186L890.239 495.957L890.422 493.728L890.605 491.499C890.724 490.051 889.864 488.683 888.459 488.024L888.569 486.687L888.752 484.458L888.935 482.229L889.118 480L889.319 477.548L889.503 475.32C889.631 473.76 888.65 472.374 887.245 471.715C886.976 470.547 886.199 469.643 885.025 469.131C884.756 467.963 883.859 467.041 882.805 466.547C882.731 465.972 882.407 465.473 882.074 465.086C882.462 464.804 882.739 464.394 882.896 463.966C884.125 463.81 885.039 463.042 885.482 462.093C886.711 461.936 887.616 461.28 888.068 460.219C889.546 459.986 890.728 458.92 890.856 457.36L891.039 455.131L891.241 452.68L891.424 450.451L891.607 448.222L891.79 445.993L891.9 444.656C893.378 444.423 894.44 443.34 894.559 441.891L894.742 439.662L894.926 437.433L895.109 435.205C895.505 433.346 894.062 431.666 892.019 431.364Z" fill="white"/>
<path d="M870.252 458.885L867.635 458.459L867.475 460.606L870.092 461.032L870.252 458.885Z" fill="#2DC8CB"/>
<path d="M879.641 455.594L879.477 457.797L877.042 457.399L876.878 459.602L874.443 459.204L874.271 461.518L871.835 461.12L871.671 463.323L871.508 465.526L873.943 465.924L874.186 465.963L874.023 468.166L876.458 468.564L876.294 470.767L878.729 471.165L878.566 473.368L881.001 473.765L883.436 474.163L883.6 471.96L881.165 471.562L881.329 469.359L878.893 468.962L879.057 466.759L876.622 466.361L876.378 466.321L876.542 464.118L876.706 461.915L879.141 462.313L879.313 460L881.87 460.417L882.034 458.214L884.469 458.612L884.633 456.409L882.198 456.011L879.641 455.594Z" fill="#2DC8CB"/>
<path d="M873.053 454.539L870.666 454.149L870.505 456.306L872.892 456.696L873.053 454.539Z" fill="#2DC8CB"/>
<path d="M868.233 454.008L865.846 453.618L865.686 455.776L868.073 456.166L868.233 454.008Z" fill="#2DC8CB"/>
<path d="M875.6 452.497L873.213 452.107L873.052 454.265L875.44 454.655L875.6 452.497Z" fill="#2DC8CB"/>
<path d="M871.01 452.002L868.393 451.576L868.233 453.723L870.85 454.149L871.01 452.002Z" fill="#2DC8CB"/>
<path d="M866.192 451.46L863.805 451.07L863.644 453.228L866.031 453.618L866.192 451.46Z" fill="#2DC8CB"/>
<path d="M878.173 450.227L875.777 449.835L875.6 452.22L877.996 452.612L878.173 450.227Z" fill="#2DC8CB"/>
<path d="M873.583 449.721L871.188 449.329L871.011 451.714L873.406 452.106L873.583 449.721Z" fill="#2DC8CB"/>
<path d="M868.764 449.191L866.368 448.799L866.191 451.184L868.587 451.576L868.764 449.191Z" fill="#2DC8CB"/>
<path d="M864.175 448.684L861.779 448.292L861.602 450.677L863.998 451.069L864.175 448.684Z" fill="#2DC8CB"/>
<path d="M854.796 446.127L854.956 444.036L855.116 441.944L855.276 439.853L855.436 437.761L855.595 435.67L857.945 436.043L860.295 436.417L862.645 436.79L864.995 437.164L867.345 437.537L869.695 437.911L872.28 438.321L874.63 438.695L876.98 439.068L879.33 439.442L881.68 439.815L884.03 440.189L886.38 440.562L886.22 442.654L886.061 444.745L885.901 446.837L885.741 448.929L885.581 451.02L885.405 453.321L885.246 455.412L887.596 455.786L887.755 453.694L887.931 451.394L888.091 449.302L888.251 447.21L888.411 445.119L888.57 443.027L888.73 440.936L891.08 441.309L891.248 439.113L891.408 437.022L891.568 434.93L889.218 434.557L886.868 434.183L884.518 433.81L882.168 433.436L879.818 433.063L877.468 432.689L875.118 432.316L872.768 431.942L870.183 431.531L867.833 431.158L865.483 430.784L863.133 430.411L860.783 430.037L858.433 429.664L856.083 429.29L853.733 428.917L851.383 428.543L851.223 430.635L851.063 432.727L850.903 434.818L853.253 435.192L853.094 437.283L852.934 439.375L852.774 441.466L852.614 443.558L852.454 445.649L852.279 447.95L852.119 450.042L854.469 450.415L854.629 448.324L854.796 446.127ZM853.573 431.008L855.923 431.382L858.273 431.755L860.623 432.129L862.973 432.502L865.323 432.876L867.673 433.249L870.023 433.623L872.608 434.034L874.958 434.407L877.308 434.781L879.658 435.154L882.008 435.528L884.358 435.901L886.708 436.275L889.058 436.648L888.898 438.74L886.548 438.366L884.198 437.993L881.848 437.619L879.498 437.246L877.148 436.872L874.798 436.499L872.448 436.125L869.863 435.714L867.513 435.341L865.163 434.967L862.813 434.594L860.463 434.22L858.113 433.847L855.763 433.474L853.413 433.1L853.573 431.008Z" fill="#2DC8CB"/>
<path d="M857.431 470.917L857.595 468.714L860.032 469.111L860.196 466.907L862.632 467.305L862.796 465.101L865.111 465.479L865.275 463.275L865.439 461.072L863.002 460.674L863.174 458.36L860.738 457.962L860.902 455.758L858.465 455.36L858.629 453.156L856.071 452.739L853.634 452.341L853.47 454.545L855.907 454.943L855.743 457.147L858.301 457.564L858.129 459.878L860.566 460.276L860.402 462.48L860.238 464.684L857.923 464.306L857.759 466.51L855.323 466.112L855.159 468.316L852.722 467.918L852.558 470.122L854.995 470.52L857.431 470.917Z" fill="#2DC8CB"/>
<path d="M868.698 475.092L866.072 474.663L865.895 477.037L868.521 477.465L868.698 475.092Z" fill="#2DC8CB"/>
<path d="M865.782 477.312L863.395 476.922L863.235 479.08L865.622 479.47L865.782 477.312Z" fill="#2DC8CB"/>
<path d="M870.6 477.843L868.213 477.453L868.052 479.611L870.44 480.001L870.6 477.843Z" fill="#2DC8CB"/>
<path d="M863.234 479.353L860.847 478.963L860.687 481.121L863.074 481.511L863.234 479.353Z" fill="#2DC8CB"/>
<path d="M868.167 479.908L865.55 479.482L865.39 481.629L868.007 482.055L868.167 479.908Z" fill="#2DC8CB"/>
<path d="M872.643 480.39L870.255 480L870.095 482.157L872.482 482.547L872.643 480.39Z" fill="#2DC8CB"/>
<path d="M860.687 481.396L858.299 481.006L858.139 483.164L860.526 483.553L860.687 481.396Z" fill="#2DC8CB"/>
<path d="M865.275 481.901L862.888 481.511L862.728 483.669L865.115 484.058L865.275 481.901Z" fill="#2DC8CB"/>
<path d="M870.096 482.432L867.709 482.042L867.549 484.2L869.936 484.59L870.096 482.432Z" fill="#2DC8CB"/>
<path d="M874.799 482.95L872.412 482.561L872.251 484.718L874.638 485.108L874.799 482.95Z" fill="#2DC8CB"/>
<path d="M858.139 483.437L855.751 483.047L855.591 485.205L857.978 485.595L858.139 483.437Z" fill="#2DC8CB"/>
<path d="M862.728 483.943L860.341 483.553L860.18 485.711L862.568 486.101L862.728 483.943Z" fill="#2DC8CB"/>
<path d="M867.661 484.497L865.044 484.071L864.884 486.218L867.501 486.644L867.661 484.497Z" fill="#2DC8CB"/>
<path d="M872.137 484.98L869.75 484.59L869.59 486.748L871.977 487.138L872.137 484.98Z" fill="#2DC8CB"/>
<path d="M876.841 485.498L874.454 485.108L874.293 487.266L876.68 487.656L876.841 485.498Z" fill="#2DC8CB"/>
<path d="M883.813 491.316L883.973 489.225L884.132 487.134L884.292 485.043L884.452 482.952L884.612 480.862L884.788 478.562L884.948 476.471L882.598 476.097L882.438 478.188L882.262 480.488L882.102 482.579L881.943 484.67L881.783 486.761L881.623 488.852L881.463 490.943L879.113 490.569L879.273 488.478L876.924 488.105L876.764 490.196L874.414 489.823L874.574 487.732L872.224 487.359L872.064 489.449L869.715 489.076L869.874 486.985L867.525 486.612L867.365 488.703L864.78 488.292L864.94 486.201L862.59 485.828L862.43 487.919L860.081 487.546L860.241 485.455L857.891 485.081L857.731 487.172L855.381 486.799L855.541 484.708L853.191 484.335L853.032 486.426L850.682 486.052L850.842 483.962L851.002 481.871L851.161 479.78L851.321 477.689L851.481 475.598L851.657 473.298L851.817 471.207L849.467 470.834L849.307 472.925L849.131 475.225L848.971 477.316L848.812 479.407L848.652 481.497L848.492 483.588L848.332 485.679L845.983 485.306L845.823 487.397L845.663 489.488L845.503 491.578L847.853 491.952L850.202 492.325L852.552 492.698L854.902 493.072L857.252 493.445L859.601 493.818L861.951 494.192L864.301 494.565L866.885 494.975L869.235 495.349L871.585 495.722L873.935 496.095L876.284 496.469L878.634 496.842L880.984 497.215L883.333 497.588L885.683 497.962L885.843 495.871L886.003 493.78L886.163 491.689L883.813 491.316ZM883.493 495.498L881.144 495.124L878.794 494.751L876.444 494.378L874.094 494.004L871.745 493.631L869.395 493.258L867.045 492.885L864.461 492.474L862.111 492.101L859.761 491.727L857.411 491.354L855.062 490.981L852.712 490.607L850.362 490.234L848.013 489.861L848.172 487.77L850.522 488.143L852.872 488.517L855.222 488.89L857.571 489.263L859.921 489.636L862.271 490.01L864.62 490.383L867.205 490.794L869.555 491.167L871.904 491.54L874.254 491.914L876.604 492.287L878.954 492.66L881.303 493.033L883.653 493.407L883.493 495.498Z" fill="#2DC8CB"/>
</g>
<defs>
<filter id="filter0_d_4_1605" x="0" y="311" width="87.0551" height="90.0718" filterUnits="userSpaceOnUse" color-interpolation-filters="sRGB">
<feFlood flood-opacity="0" result="BackgroundImageFix"/>
<feColorMatrix in="SourceAlpha" type="matrix" values="0 0 0 0 0 0 0 0 0 0 0 0 0 0 0 0 0 0 127 0" result="hardAlpha"/>
<feOffset dx="2.21816" dy="2.95755"/>
<feComposite in2="hardAlpha" operator="out"/>
<feColorMatrix type="matrix" values="0 0 0 0 0.596078 0 0 0 0 0.278431 0 0 0 0 1 0 0 0 0.25 0"/>
<feBlend mode="normal" in2="BackgroundImageFix" result="effect1_dropShadow_4_1605"/>
<feBlend mode="normal" in="SourceGraphic" in2="effect1_dropShadow_4_1605" result="shape"/>
</filter>
<filter id="filter1_d_4_1605" x="958.544" y="8.78125" width="79.6977" height="72.5005" filterUnits="userSpaceOnUse" color-interpolation-filters="sRGB">
<feFlood flood-opacity="0" result="BackgroundImageFix"/>
<feColorMatrix in="SourceAlpha" type="matrix" values="0 0 0 0 0 0 0 0 0 0 0 0 0 0 0 0 0 0 127 0" result="hardAlpha"/>
<feOffset dx="2.21816" dy="2.95755"/>
<feComposite in2="hardAlpha" operator="out"/>
<feColorMatrix type="matrix" values="0 0 0 0 0.596078 0 0 0 0 0.278431 0 0 0 0 1 0 0 0 0.25 0"/>
<feBlend mode="normal" in2="BackgroundImageFix" result="effect1_dropShadow_4_1605"/>
<feBlend mode="normal" in="SourceGraphic" in2="effect1_dropShadow_4_1605" result="shape"/>
</filter>
<filter id="filter2_d_4_1605" x="841.745" y="425.209" width="55.6474" height="78.7903" filterUnits="userSpaceOnUse" color-interpolation-filters="sRGB">
<feFlood flood-opacity="0" result="BackgroundImageFix"/>
<feColorMatrix in="SourceAlpha" type="matrix" values="0 0 0 0 0 0 0 0 0 0 0 0 0 0 0 0 0 0 127 0" result="hardAlpha"/>
<feOffset dx="2.21816" dy="2.95755"/>
<feComposite in2="hardAlpha" operator="out"/>
<feColorMatrix type="matrix" values="0 0 0 0 0.596078 0 0 0 0 0.278431 0 0 0 0 1 0 0 0 0.25 0"/>
<feBlend mode="normal" in2="BackgroundImageFix" result="effect1_dropShadow_4_1605"/>
<feBlend mode="normal" in="SourceGraphic" in2="effect1_dropShadow_4_1605" result="shape"/>
</filter>
</defs>
</svg>
