<svg width="1040" height="503" viewBox="0 0 1040 503" fill="none" xmlns="http://www.w3.org/2000/svg">
<g filter="url(#filter0_d_4_1604)">
<path d="M62.3828 357.297V362.01H60.0527V364.34H57.6696V366.67H55.3395V369.053H53.0094V371.383H48.2963V373.713H41.253V376.096H31.8796V373.713H24.8363V371.383H20.1232V369.053H17.7931V366.67H15.463V364.34H13.0799V362.01H10.7498V357.297H8.41968V350.253H6.03662V340.88H8.41968V333.837H10.7498V329.124H13.0799V326.794H15.463V324.463H17.7931V322.08H20.1232V319.75H24.8363V317.42H31.8796V315.037H41.253V317.42H48.2963V319.75H53.0094V322.08H55.3395V324.463H57.6696V326.794H60.0527V329.124H62.3828V333.837H64.7129V340.88H67.096V350.253H64.7129V357.297H62.3828Z" fill="#E4D1FF"/>
<path d="M69.4263 340.88H67.0962V350.253H69.4263V340.88Z" fill="#9847FF"/>
<path d="M67.043 350.253H64.7129V357.296H67.043V350.253Z" fill="#9847FF"/>
<path d="M67.043 333.837H64.7129V340.88H67.043V333.837Z" fill="#9847FF"/>
<path d="M64.7129 329.123H62.3828V333.836H64.7129V329.123Z" fill="#9847FF"/>
<path d="M64.7129 357.296H62.3828V362.01H64.7129V357.296Z" fill="#9847FF"/>
<path d="M62.3828 326.793H60.0527V329.123H62.3828V326.793Z" fill="#9847FF"/>
<path d="M62.3828 362.009H60.0527V364.339H62.3828V362.009Z" fill="#9847FF"/>
<path d="M60 324.463H57.6699V326.793H60V324.463Z" fill="#9847FF"/>
<path d="M60 364.339H57.6699V366.669H60V364.339Z" fill="#9847FF"/>
<path d="M57.6699 322.08H55.3398V324.41H57.6699V322.08Z" fill="#9847FF"/>
<path d="M57.6699 366.669H55.3398V369H57.6699V366.669Z" fill="#9847FF"/>
<path d="M55.3394 319.75H53.0093V322.08H55.3394V319.75Z" fill="#9847FF"/>
<path d="M55.3394 369.053H53.0093V371.383H55.3394V369.053Z" fill="#9847FF"/>
<path d="M53.0096 317.419H48.2964V319.75H53.0096V317.419Z" fill="#9847FF"/>
<path d="M53.0096 371.383H48.2964V373.713H53.0096V371.383Z" fill="#9847FF"/>
<path d="M48.2962 373.713H41.2529V376.043H48.2962V373.713Z" fill="#9847FF"/>
<path d="M48.2962 315.037H41.2529V317.367H48.2962V315.037Z" fill="#9847FF"/>
<path d="M41.2533 376.096H31.8799V378.426H41.2533V376.096Z" fill="#9847FF"/>
<path d="M41.2533 312.707H31.8799V315.037H41.2533V312.707Z" fill="#9847FF"/>
<path d="M31.8797 373.713H24.8364V376.043H31.8797V373.713Z" fill="#9847FF"/>
<path d="M31.8797 315.037H24.8364V317.367H31.8797V315.037Z" fill="#9847FF"/>
<path d="M24.8367 317.419H20.1235V319.75H24.8367V317.419Z" fill="#9847FF"/>
<path d="M24.8367 371.383H20.1235V373.713H24.8367V371.383Z" fill="#9847FF"/>
<path d="M20.1231 319.75H17.793V322.08H20.1231V319.75Z" fill="#9847FF"/>
<path d="M20.1231 369.053H17.793V371.383H20.1231V369.053Z" fill="#9847FF"/>
<path d="M17.7935 322.08H15.4634V324.41H17.7935V322.08Z" fill="#9847FF"/>
<path d="M17.7935 366.669H15.4634V369H17.7935V366.669Z" fill="#9847FF"/>
<path d="M15.4102 324.463H13.0801V326.793H15.4102V324.463Z" fill="#9847FF"/>
<path d="M15.4102 364.339H13.0801V366.669H15.4102V364.339Z" fill="#9847FF"/>
<path d="M13.0796 326.793H10.7495V329.123H13.0796V326.793Z" fill="#9847FF"/>
<path d="M13.0796 362.009H10.7495V364.339H13.0796V362.009Z" fill="#9847FF"/>
<path d="M10.75 329.123H8.41992V333.836H10.75V329.123Z" fill="#9847FF"/>
<path d="M10.75 357.296H8.41992V362.01H10.75V357.296Z" fill="#9847FF"/>
<path d="M8.36673 333.837H6.03662V340.88H8.36673V333.837Z" fill="#9847FF"/>
<path d="M8.36673 350.253H6.03662V357.296H8.36673V350.253Z" fill="#9847FF"/>
<path d="M6.03665 340.88H3.70654V350.253H6.03665V340.88Z" fill="#9847FF"/>
<path d="M69.4266 380.756V383.139H62.3833V380.756H60.0532V373.712H62.3833V371.382H69.4266V373.712H71.7567V380.756H69.4266Z" fill="#E4D1FF"/>
<path d="M74.0869 373.712H71.7568V380.755H74.0869V373.712Z" fill="#9847FF"/>
<path d="M71.7569 380.755H69.4268V383.085H71.7569V380.755Z" fill="#9847FF"/>
<path d="M71.7569 371.382H69.4268V373.712H71.7569V371.382Z" fill="#9847FF"/>
<path d="M69.4271 383.138H62.3838V385.468H69.4271V383.138Z" fill="#9847FF"/>
<path d="M69.4271 369.052H62.3838V371.382H69.4271V369.052Z" fill="#9847FF"/>
<path d="M62.3833 371.382H60.0532V373.712H62.3833V371.382Z" fill="#9847FF"/>
<path d="M62.3833 380.755H60.0532V383.085H62.3833V380.755Z" fill="#9847FF"/>
<path d="M60.0005 373.712H57.6704V380.755H60.0005V373.712Z" fill="#9847FF"/>
<path d="M78.8528 385.47H74.1396V390.183H78.8528V385.47Z" fill="#E4D1FF"/>
<path d="M81.1299 385.47H78.7998V390.183H81.1299V385.47Z" fill="#9847FF"/>
<path d="M78.8528 383.139H74.1396V385.469H78.8528V383.139Z" fill="#9847FF"/>
<path d="M78.8528 390.13H74.1396V392.46H78.8528V390.13Z" fill="#9847FF"/>
<path d="M74.0869 385.47H71.7568V390.183H74.0869V385.47Z" fill="#9847FF"/>
<path d="M41.2535 312.707V315.037H48.2967V317.367H53.0099V319.697H55.34V322.027H57.6701V324.358H60.0002V326.688H62.3303V329.124H64.6604V333.837H66.9905V340.88H69.3206V350.253H66.9905V357.297H64.6604V362.01H62.3303V364.34H60.0002V366.67H57.6701V369H55.34V371.33H53.0099V373.66H48.2967V375.991H41.2535V378.321H31.8801V375.991H24.8368V373.66H20.1236V371.33H17.7935V369H15.4634V366.67H13.1333V364.34H10.8032V362.01H8.47311V357.297H6.14301V350.253H3.70699V340.88H6.03709V333.837H8.3672V329.124H10.6973V326.794H13.0274V324.463H15.3575V322.133H17.6876V319.803H20.1236V317.473H24.8368V315.143H31.8801V312.707H41.2535ZM69.4266 369.053V371.383H71.7567V373.713H74.0868V380.757H71.7567V383.087H69.4266V385.417H62.3833V383.14H60.0532V380.81H57.7231V373.766H60.0532V371.436H62.3833V369.106H69.4266V369.053ZM78.7999 383.14V385.47H81.13V390.183H78.7999V392.513H74.1397V390.183H71.8096V385.47H74.1397V383.14H78.7999ZM44.9604 309H41.2535H31.8801H28.1731V311.33H24.8368H21.1298V313.66H20.1236H16.4167V315.99H14.0865V318.32H11.7564V320.651H9.42634V322.981H7.09623V325.417H4.71317V329.124V330.13H2.33011V333.837V337.173H0V340.88V350.253V353.96H2.33011V357.297V361.004H4.66021V362.01V365.717H6.99032V368.047H9.32042V370.377H11.6505V372.707H13.9806V375.037H16.4167V377.367H20.1236H21.1298V379.698H24.8368H28.1731V382.028H31.8801H41.2535H44.9604V379.698H48.2967H52.0037V377.367H53.0099H54.0161V380.704V384.411H56.3462V386.741H58.6763V389.071H62.3833H68.0497V390.077V393.784H70.3798V396.114H74.0868H78.7999H82.5069V393.784H84.837V390.077V385.364V381.657H82.5069V379.433H78.7999H77.8467V373.766V370.059H75.5166V367.729H73.1865V365.399H69.4795H68.4733V362.063V361.057H70.8034V357.35V354.013H73.1335V350.306V340.88V337.173H70.8034V333.837V330.13H68.4733V329.124V325.417H66.1432V323.087H63.8131V320.756H61.483V318.426H59.1529V316.096H56.8228V313.713H53.1158H52.1096V311.33H48.4026H45.0664V309H44.9604Z" fill="white"/>
</g>
<g filter="url(#filter1_d_4_1604)">
<path d="M1030.56 28.4534L1029.96 28.2777L1030.09 27.7107C1030.86 24.4976 1028.66 21.0319 1025.22 20.0366L1012.38 16.319C1008.94 15.3238 1005.47 17.1502 1004.71 20.3634L1004.57 20.9304L1003.96 20.7547C1002.75 20.4035 1001.57 20.365 1000.52 20.6686C999.748 19.8381 998.703 19.2326 997.489 18.8813L997.287 18.8228L997.423 18.2557C998.192 15.0426 995.993 11.5769 992.554 10.5816L979.304 6.74694C975.865 5.75168 972.501 7.60742 971.732 10.8205L971.597 11.3876L971.394 11.329C967.955 10.3338 964.513 12.0657 963.744 15.2788L959.245 34.085C958.476 37.2982 960.675 40.7639 964.114 41.7592L964.316 41.8177L964.18 42.3847C963.411 45.5978 965.61 49.0636 969.049 50.0588L969.252 50.1174L969.116 50.6844C968.347 53.8975 970.546 57.3632 973.985 58.3585L974.592 58.5341L974.456 59.1012C973.687 62.3143 975.886 65.78 979.325 66.7753L979.528 66.8338L979.392 67.4008C978.623 70.614 980.822 74.0797 984.261 75.0749L990.734 76.9484C994.173 77.9436 997.638 76.1172 998.407 72.904L998.543 72.337L999.149 72.5127C1002.59 73.5079 1006.05 71.6815 1006.82 68.4683L1006.96 67.9013L1007.16 67.9599C1010.6 68.9551 1014.06 67.1286 1014.83 63.9155L1014.97 63.3485L1015.17 63.4071C1018.61 64.4023 1022.08 62.5758 1022.84 59.3627L1022.98 58.7957L1023.59 58.9713C1027.03 59.9666 1030.49 58.1401 1031.26 54.927L1035.76 36.1208C1036.22 32.8199 1034 29.4486 1030.56 28.4534Z" fill="white"/>
<path d="M1016.02 30.4343L1009.45 28.5343L1007.91 34.9531L1001.35 33.0531L999.835 39.3775L993.269 37.4775L994.782 31.1531L988.215 29.2531L989.751 22.8342L983.184 20.9342L976.618 19.0342L975.082 25.453L973.57 31.7774L972.057 38.1019L978.623 40.0019L977.11 46.3263L983.677 48.2264L982.141 54.6452L988.708 56.5452L987.195 62.8697L993.761 64.7697L995.274 58.4452L1001.84 60.3453L1003.38 53.9264L1009.94 55.8265L1011.46 49.502L1018.02 51.4021L1019.53 45.0776L1021.05 38.7532L1022.58 32.3344L1016.02 30.4343Z" fill="#E4D1FF"/>
<path d="M992.923 65.5976L986.297 63.6543L984.81 69.9671L991.436 71.9104L992.923 65.5976Z" fill="#9847FF"/>
<path d="M1001.04 60.747L994.411 58.8037L992.925 65.1165L999.551 67.0598L1001.04 60.747Z" fill="#9847FF"/>
<path d="M988.324 57.3403L981.698 55.397L980.211 61.7097L986.837 63.6531L988.324 57.3403Z" fill="#9847FF"/>
<path d="M1009.18 55.8022L1002.55 53.8589L1001.06 60.1717L1007.69 62.115L1009.18 55.8022Z" fill="#9847FF"/>
<path d="M983.746 48.9883L977.12 47.0449L975.633 53.3577L982.259 55.301L983.746 48.9883Z" fill="#9847FF"/>
<path d="M1017.29 50.9516L1010.66 49.0083L1009.18 55.3211L1015.8 57.2644L1017.29 50.9516Z" fill="#9847FF"/>
<path d="M979.145 40.73L972.518 38.7866L971.032 45.0994L977.658 47.0427L979.145 40.73Z" fill="#9847FF"/>
<path d="M1001.73 32.7348L995.101 30.7915L993.615 37.1043L1000.24 39.0476L1001.73 32.7348Z" fill="#9847FF"/>
<path d="M976.502 25.8683L978.081 19.3131L971.026 17.3003L969.446 23.8555L967.889 30.3142L966.333 36.773L973.389 38.7859L974.945 32.3271L976.502 25.8683Z" fill="#9847FF"/>
<path d="M1021.99 30.958L1020.4 37.5146L1018.85 43.9747L1017.29 50.4349L1024.24 52.4173L1025.8 45.9572L1027.36 39.497L1028.94 32.9405L1021.99 30.958Z" fill="#9847FF"/>
<path d="M1009.87 27.7871L1003.24 25.8438L1001.76 32.1565L1008.38 34.0998L1009.87 27.7871Z" fill="#9847FF"/>
<path d="M997.153 24.3818L990.527 22.4385L989.04 28.7512L995.666 30.6946L997.153 24.3818Z" fill="#9847FF"/>
<path d="M1022.88 30.9556L1024.34 24.7719L1017.83 22.884L1011.32 20.9961L1009.87 27.1797L1016.38 29.0676L1022.88 30.9556Z" fill="#9847FF"/>
<path d="M991.1 22.4375L992.553 16.2539L986.045 14.366L979.537 12.478L978.083 18.6616L984.592 20.5496L991.1 22.4375Z" fill="#9847FF"/>
</g>
<g filter="url(#filter2_d_4_1604)">
<path d="M845.138 492.293C844.192 492.169 843.438 491.27 843.522 490.366L844.15 483.591C844.234 482.688 845.135 482.006 846.08 482.13L846.671 482.208L848.011 467.755C848.095 466.851 848.996 466.17 849.941 466.294L850.532 466.372L850.585 465.807C850.669 464.904 851.569 464.222 852.515 464.346L853.106 464.424L853.158 463.86C853.242 462.956 854.143 462.275 855.088 462.399L855.679 462.477L855.732 461.912C855.815 461.009 856.716 460.327 857.662 460.451L858.134 460.513L858.239 459.384L857.648 459.307C856.702 459.182 855.948 458.283 856.032 457.38L856.084 456.815L855.493 456.737C854.548 456.613 853.794 455.714 853.878 454.811L853.93 454.246L853.339 454.168C852.393 454.044 851.639 453.145 851.723 452.241L851.775 451.677L851.184 451.599C850.239 451.475 849.485 450.576 849.569 449.672L850.909 435.219L850.318 435.141C849.372 435.017 848.618 434.117 848.702 433.214L849.341 426.326C849.424 425.423 850.325 424.741 851.271 424.865L891.93 430.211C892.876 430.336 893.63 431.235 893.546 432.138L892.908 439.026C892.824 439.93 891.923 440.611 890.978 440.487L890.387 440.409L889.046 454.863C888.963 455.766 888.062 456.448 887.116 456.323L886.525 456.246L886.473 456.81C886.389 457.714 885.489 458.395 884.543 458.271L883.952 458.193L883.9 458.758C883.816 459.661 882.915 460.343 881.97 460.218L881.379 460.141L881.326 460.705C881.243 461.609 880.342 462.29 879.396 462.166L878.805 462.088L878.701 463.217L879.41 463.311C880.355 463.435 881.11 464.334 881.026 465.238L880.973 465.802L881.564 465.88C882.51 466.004 883.264 466.903 883.18 467.807L883.128 468.371L883.719 468.449C884.665 468.573 885.419 469.473 885.335 470.376L885.282 470.941L885.873 471.018C886.819 471.143 887.573 472.042 887.489 472.945L886.16 487.286L886.751 487.363C887.696 487.488 888.45 488.387 888.367 489.29L887.738 496.065C887.655 496.969 886.754 497.65 885.808 497.526L845.148 492.18L845.138 492.293Z" fill="white"/>
<path d="M891.764 431.919L891.554 434.176L891.345 436.434L891.136 438.691L888.774 438.381L888.564 440.638L888.355 442.896L888.146 445.153L887.936 447.41L887.727 449.668L887.497 452.151L887.288 454.409L884.925 454.098L884.716 456.355L882.354 456.045L882.144 458.302L879.782 457.991L879.573 460.249L877.21 459.938L877.001 462.196L876.792 464.453L876.91 464.469L879.272 464.779L879.063 467.037L881.425 467.348L881.216 469.605L883.578 469.916L883.369 472.173L885.732 472.484L885.522 474.741L885.292 477.225L885.083 479.482L884.874 481.739L884.664 483.997L884.455 486.254L884.246 488.512L886.608 488.823L886.399 491.08L886.19 493.337L885.98 495.595L883.618 495.284L881.256 494.974L878.893 494.663L876.531 494.352L874.168 494.041L871.806 493.731L869.444 493.42L867.081 493.109L864.483 492.768L862.12 492.457L859.758 492.146L857.396 491.836L855.033 491.525L852.671 491.214L850.309 490.903L847.946 490.593L845.584 490.282L845.793 488.025L846.002 485.767L846.212 483.51L848.574 483.82L848.783 481.563L848.993 479.305L849.202 477.048L849.411 474.79L849.62 472.533L849.851 470.05L850.06 467.792L852.422 468.103L852.632 465.846L854.994 466.156L855.203 463.899L857.566 464.209L857.775 461.952L860.019 462.247L860.228 459.99L860.438 457.732L858.075 457.422L858.284 455.164L855.686 454.822L855.895 452.565L853.533 452.254L853.742 449.997L851.38 449.686L851.589 447.429L851.819 444.945L852.028 442.688L852.238 440.43L852.447 438.173L852.656 435.915L852.866 433.658L850.503 433.347L850.712 431.09L850.922 428.832L851.131 426.575L853.493 426.886L855.856 427.196L858.218 427.507L860.58 427.818L862.943 428.128L865.305 428.439L867.668 428.75L870.03 429.06L872.629 429.402L874.991 429.713L877.353 430.024L879.716 430.334L882.078 430.645L884.44 430.956L886.803 431.266L889.165 431.577L891.764 431.919ZM892.078 428.533L889.715 428.222L887.353 427.911L884.991 427.601L882.628 427.29L880.266 426.979L877.903 426.669L875.541 426.358L873.179 426.047L870.58 425.705L868.218 425.395L865.855 425.084L863.493 424.773L861.131 424.463L858.532 424.121L856.17 423.81L853.807 423.499L851.445 423.189C849.437 422.925 847.765 424.19 847.587 426.109L847.378 428.366L847.169 430.624L846.96 432.881C846.824 434.349 847.653 435.714 849.029 436.352L848.903 437.707L848.694 439.964L848.485 442.222L848.276 444.479L848.045 446.962L847.836 449.22C847.69 450.8 848.638 452.182 850.013 452.82C850.263 453.995 851.016 454.894 852.166 455.388C852.416 456.563 853.288 457.477 854.319 457.956C854.385 458.536 854.698 459.034 855.021 459.419C854.635 459.711 854.357 460.131 854.197 460.567C852.984 460.751 852.084 461.432 851.625 462.514C850.413 462.697 849.502 463.492 849.054 464.461C847.594 464.726 846.416 465.828 846.27 467.408L846.06 469.666L845.83 472.149L845.621 474.406L845.412 476.664L845.202 478.921L845.077 480.276C843.617 480.541 842.557 481.658 842.421 483.125L842.212 485.383L842.003 487.64L841.794 489.898C841.616 491.817 843.015 493.486 845.023 493.75L847.386 494.061L849.748 494.371L852.11 494.682L854.473 494.993L856.835 495.304L859.197 495.614L861.56 495.925L863.922 496.236L866.521 496.577L868.883 496.888L871.245 497.199L873.608 497.509L875.97 497.82L878.333 498.131L880.695 498.442L883.057 498.752L885.42 499.063C887.428 499.327 889.099 498.062 889.277 496.143L889.486 493.885L889.696 491.628L889.905 489.37C890.041 487.903 889.211 486.537 887.836 485.899L887.961 484.545L888.17 482.287L888.38 480.03L888.589 477.772L888.819 475.289L889.028 473.032C889.175 471.451 888.227 470.07 886.851 469.432C886.602 468.257 885.848 467.358 884.698 466.864C884.449 465.689 883.577 464.774 882.545 464.296C882.479 463.716 882.167 463.218 881.844 462.833C882.23 462.541 882.508 462.12 882.668 461.684C883.88 461.501 884.791 460.707 885.239 459.737C886.452 459.554 887.352 458.873 887.811 457.791C889.27 457.526 890.448 456.424 890.595 454.844L890.804 452.586L891.034 450.103L891.244 447.845L891.453 445.588L891.662 443.33L891.788 441.976C893.247 441.711 894.307 440.594 894.443 439.126L894.652 436.869L894.862 434.611L895.071 432.354C895.485 430.466 894.086 428.797 892.078 428.533Z" fill="white"/>
<path d="M870.252 456.822L867.671 456.458L867.475 458.668L870.057 459.031L870.252 456.822Z" fill="#9847FF"/>
<path d="M879.758 453.41L879.558 455.652L877.179 455.315L876.98 457.557L874.6 457.22L874.391 459.574L872.011 459.237L871.812 461.479L871.613 463.721L873.993 464.057L874.231 464.091L874.032 466.333L876.411 466.669L876.212 468.911L878.591 469.248L878.392 471.489L880.772 471.826L883.151 472.163L883.351 469.921L880.971 469.584L881.17 467.343L878.791 467.006L878.99 464.764L876.61 464.428L876.372 464.394L876.571 462.152L876.771 459.911L879.15 460.247L879.359 457.894L881.858 458.247L882.057 456.005L884.436 456.342L884.636 454.1L882.256 453.764L879.758 453.41Z" fill="#9847FF"/>
<path d="M873.052 452.481L870.701 452.148L870.504 454.364L872.856 454.696L873.052 452.481Z" fill="#9847FF"/>
<path d="M868.233 451.95L865.881 451.618L865.685 453.833L868.037 454.165L868.233 451.95Z" fill="#9847FF"/>
<path d="M875.6 450.439L873.248 450.107L873.052 452.323L875.403 452.655L875.6 450.439Z" fill="#9847FF"/>
<path d="M871.01 449.939L868.429 449.576L868.233 451.785L870.814 452.149L871.01 449.939Z" fill="#9847FF"/>
<path d="M866.191 449.402L863.84 449.07L863.644 451.285L865.995 451.617L866.191 449.402Z" fill="#9847FF"/>
<path d="M878.172 448.168L875.816 447.835L875.599 450.279L877.956 450.612L878.172 448.168Z" fill="#9847FF"/>
<path d="M873.583 447.663L871.227 447.329L871.01 449.773L873.367 450.106L873.583 447.663Z" fill="#9847FF"/>
<path d="M868.764 447.133L866.407 446.799L866.191 449.243L868.547 449.576L868.764 447.133Z" fill="#9847FF"/>
<path d="M864.175 446.626L861.818 446.292L861.602 448.736L863.958 449.07L864.175 446.626Z" fill="#9847FF"/>
<path d="M854.827 444.733L855.021 442.553L855.215 440.373L855.409 438.193L855.603 436.013L855.797 433.834L858.127 434.155L860.457 434.476L862.786 434.797L865.116 435.118L867.446 435.439L869.775 435.76L872.338 436.113L874.668 436.434L876.997 436.756L879.327 437.077L881.657 437.398L883.986 437.719L886.316 438.04L886.122 440.22L885.928 442.4L885.734 444.579L885.54 446.759L885.346 448.939L885.132 451.337L884.938 453.517L887.268 453.838L887.462 451.658L887.675 449.26L887.869 447.08L888.063 444.9L888.257 442.721L888.451 440.541L888.646 438.361L890.975 438.682L891.179 436.393L891.373 434.213L891.567 432.034L889.237 431.713L886.908 431.391L884.578 431.07L882.248 430.749L879.919 430.428L877.589 430.107L875.259 429.786L872.93 429.465L870.367 429.112L868.037 428.791L865.708 428.47L863.378 428.148L861.048 427.827L858.719 427.506L856.389 427.185L854.059 426.864L851.73 426.543L851.536 428.723L851.342 430.903L851.148 433.082L853.477 433.404L853.283 435.583L853.089 437.763L852.895 439.943L852.701 442.123L852.507 444.303L852.294 446.701L852.1 448.88L854.429 449.201L854.623 447.022L854.827 444.733ZM853.865 429.044L856.195 429.365L858.525 429.686L860.854 430.007L863.184 430.328L865.514 430.649L867.843 430.97L870.173 431.292L872.736 431.645L875.065 431.966L877.395 432.287L879.725 432.608L882.054 432.929L884.384 433.25L886.714 433.571L889.043 433.892L888.849 436.072L886.52 435.751L884.19 435.43L881.86 435.109L879.531 434.788L877.201 434.467L874.871 434.146L872.542 433.825L869.979 433.471L867.649 433.15L865.32 432.829L862.99 432.508L860.66 432.187L858.331 431.866L856.001 431.545L853.671 431.224L853.865 429.044Z" fill="#9847FF"/>
<path d="M857.313 469.098L857.512 466.856L859.893 467.192L860.092 464.95L862.472 465.287L862.671 463.045L864.933 463.365L865.132 461.122L865.331 458.88L862.951 458.544L863.16 456.189L860.78 455.853L860.979 453.61L858.599 453.274L858.798 451.032L856.299 450.678L853.918 450.341L853.719 452.583L856.099 452.92L855.9 455.162L858.4 455.516L858.19 457.87L860.571 458.207L860.371 460.449L860.172 462.691L857.911 462.371L857.712 464.613L855.331 464.277L855.132 466.519L852.752 466.182L852.553 468.424L854.933 468.761L857.313 469.098Z" fill="#9847FF"/>
<path d="M868.698 473.029L866.111 472.664L865.895 475.101L868.482 475.466L868.698 473.029Z" fill="#9847FF"/>
<path d="M865.782 475.254L863.43 474.922L863.234 477.138L865.585 477.47L865.782 475.254Z" fill="#9847FF"/>
<path d="M870.6 475.785L868.248 475.453L868.052 477.669L870.403 478.001L870.6 475.785Z" fill="#9847FF"/>
<path d="M863.234 477.295L860.883 476.963L860.686 479.178L863.038 479.511L863.234 477.295Z" fill="#9847FF"/>
<path d="M868.167 477.845L865.586 477.481L865.39 479.691L867.972 480.054L868.167 477.845Z" fill="#9847FF"/>
<path d="M872.642 478.332L870.29 478L870.094 480.216L872.446 480.548L872.642 478.332Z" fill="#9847FF"/>
<path d="M860.686 479.338L858.334 479.006L858.138 481.221L860.489 481.553L860.686 479.338Z" fill="#9847FF"/>
<path d="M865.275 479.843L862.924 479.511L862.727 481.726L865.079 482.058L865.275 479.843Z" fill="#9847FF"/>
<path d="M870.095 480.375L867.744 480.042L867.548 482.258L869.899 482.59L870.095 480.375Z" fill="#9847FF"/>
<path d="M874.798 480.893L872.447 480.561L872.251 482.776L874.602 483.108L874.798 480.893Z" fill="#9847FF"/>
<path d="M858.138 481.379L855.787 481.047L855.59 483.263L857.942 483.595L858.138 481.379Z" fill="#9847FF"/>
<path d="M862.727 481.885L860.376 481.553L860.18 483.769L862.531 484.101L862.727 481.885Z" fill="#9847FF"/>
<path d="M867.661 482.435L865.08 482.071L864.884 484.281L867.466 484.644L867.661 482.435Z" fill="#9847FF"/>
<path d="M872.136 482.922L869.785 482.59L869.589 484.806L871.94 485.138L872.136 482.922Z" fill="#9847FF"/>
<path d="M876.84 483.44L874.489 483.108L874.293 485.323L876.644 485.656L876.84 483.44Z" fill="#9847FF"/>
<path d="M883.59 489.103L883.784 486.923L883.978 484.744L884.172 482.564L884.366 480.385L884.56 478.205L884.774 475.808L884.968 473.628L882.638 473.307L882.444 475.487L882.231 477.884L882.037 480.064L881.843 482.243L881.649 484.423L881.454 486.602L881.26 488.782L878.931 488.461L879.125 486.281L876.795 485.96L876.601 488.14L874.272 487.819L874.466 485.639L872.136 485.318L871.942 487.498L869.613 487.177L869.807 484.997L867.477 484.676L867.283 486.856L864.721 486.503L864.915 484.323L862.586 484.002L862.392 486.182L860.062 485.861L860.256 483.682L857.927 483.361L857.733 485.54L855.403 485.219L855.597 483.04L853.268 482.719L853.074 484.898L850.744 484.577L850.938 482.398L851.132 480.218L851.326 478.039L851.52 475.859L851.714 473.68L851.928 471.282L852.122 469.103L849.792 468.782L849.598 470.961L849.385 473.359L849.191 475.538L848.997 477.718L848.803 479.897L848.609 482.077L848.415 484.256L846.085 483.935L845.891 486.115L845.697 488.294L845.503 490.474L847.832 490.795L850.162 491.116L852.491 491.437L854.821 491.757L857.15 492.078L859.48 492.399L861.809 492.72L864.139 493.041L866.701 493.394L869.031 493.715L871.36 494.036L873.69 494.357L876.019 494.678L878.349 494.999L880.678 495.32L883.008 495.641L885.337 495.962L885.531 493.783L885.725 491.603L885.919 489.424L883.59 489.103ZM883.202 493.462L880.872 493.141L878.543 492.82L876.213 492.499L873.884 492.178L871.554 491.857L869.225 491.536L866.895 491.215L864.333 490.862L862.003 490.541L859.674 490.22L857.344 489.899L855.015 489.578L852.685 489.257L850.356 488.936L848.026 488.615L848.22 486.436L850.55 486.757L852.879 487.078L855.209 487.399L857.538 487.72L859.868 488.04L862.197 488.361L864.527 488.682L867.089 489.035L869.419 489.356L871.748 489.677L874.078 489.998L876.407 490.319L878.737 490.64L881.066 490.961L883.396 491.282L883.202 493.462Z" fill="#9847FF"/>
</g>
<defs>
<filter id="filter0_d_4_1604" x="0" y="309" width="87.0551" height="90.0718" filterUnits="userSpaceOnUse" color-interpolation-filters="sRGB">
<feFlood flood-opacity="0" result="BackgroundImageFix"/>
<feColorMatrix in="SourceAlpha" type="matrix" values="0 0 0 0 0 0 0 0 0 0 0 0 0 0 0 0 0 0 127 0" result="hardAlpha"/>
<feOffset dx="2.21816" dy="2.95755"/>
<feComposite in2="hardAlpha" operator="out"/>
<feColorMatrix type="matrix" values="0 0 0 0 0.596078 0 0 0 0 0.278431 0 0 0 0 1 0 0 0 0.25 0"/>
<feBlend mode="normal" in2="BackgroundImageFix" result="effect1_dropShadow_4_1604"/>
<feBlend mode="normal" in="SourceGraphic" in2="effect1_dropShadow_4_1604" result="shape"/>
</filter>
<filter id="filter1_d_4_1604" x="959.091" y="6.47803" width="78.9469" height="73.6997" filterUnits="userSpaceOnUse" color-interpolation-filters="sRGB">
<feFlood flood-opacity="0" result="BackgroundImageFix"/>
<feColorMatrix in="SourceAlpha" type="matrix" values="0 0 0 0 0 0 0 0 0 0 0 0 0 0 0 0 0 0 127 0" result="hardAlpha"/>
<feOffset dx="2.21816" dy="2.95755"/>
<feComposite in2="hardAlpha" operator="out"/>
<feColorMatrix type="matrix" values="0 0 0 0 0.596078 0 0 0 0 0.278431 0 0 0 0 1 0 0 0 0.25 0"/>
<feBlend mode="normal" in2="BackgroundImageFix" result="effect1_dropShadow_4_1604"/>
<feBlend mode="normal" in="SourceGraphic" in2="effect1_dropShadow_4_1604" result="shape"/>
</filter>
<filter id="filter2_d_4_1604" x="841.778" y="423.154" width="55.5836" height="78.9014" filterUnits="userSpaceOnUse" color-interpolation-filters="sRGB">
<feFlood flood-opacity="0" result="BackgroundImageFix"/>
<feColorMatrix in="SourceAlpha" type="matrix" values="0 0 0 0 0 0 0 0 0 0 0 0 0 0 0 0 0 0 127 0" result="hardAlpha"/>
<feOffset dx="2.21816" dy="2.95755"/>
<feComposite in2="hardAlpha" operator="out"/>
<feColorMatrix type="matrix" values="0 0 0 0 0.596078 0 0 0 0 0.278431 0 0 0 0 1 0 0 0 0.25 0"/>
<feBlend mode="normal" in2="BackgroundImageFix" result="effect1_dropShadow_4_1604"/>
<feBlend mode="normal" in="SourceGraphic" in2="effect1_dropShadow_4_1604" result="shape"/>
</filter>
</defs>
</svg>
