<svg width="983" height="451" viewBox="0 0 983 451" fill="none" xmlns="http://www.w3.org/2000/svg">
<g filter="url(#filter0_d_201_8220)">
<path d="M966.803 54.1923L966.321 54.0938L966.528 53.5053C967.698 50.1705 966.416 46.9649 963.689 46.407L953.502 44.3233C950.775 43.7654 947.565 46.0523 946.395 49.3871L946.188 49.9756L945.707 49.8772C944.745 49.6803 943.759 49.794 942.83 50.2349C942.315 49.4987 941.536 49.024 940.574 48.8271L940.413 48.7943L940.62 48.2058C941.79 44.871 940.508 41.6653 937.781 41.1075L927.273 38.9581C924.546 38.4003 921.417 40.7036 920.246 44.0384L920.04 44.6268L919.879 44.594C917.152 44.0362 913.977 46.225 912.806 49.5598L905.955 69.078C904.785 72.4128 906.067 75.6185 908.794 76.1764L908.954 76.2092L908.748 76.7977C907.577 80.1324 908.859 83.3381 911.586 83.896L911.747 83.9288L911.54 84.5173C910.37 87.8521 911.652 91.0577 914.379 91.6156L914.86 91.714L914.654 92.3025C913.483 95.6373 914.765 98.843 917.492 99.4008L917.653 99.4337L917.446 100.022C916.276 103.357 917.558 106.563 920.285 107.12L925.418 108.171C928.145 108.728 931.355 106.441 932.526 103.107L932.732 102.518L933.214 102.617C935.941 103.175 939.151 100.888 940.321 97.5528L940.528 96.9644L940.688 96.9972C943.415 97.555 946.625 95.2681 947.796 91.9333L948.002 91.3449L948.163 91.3777C950.89 91.9355 954.1 89.6486 955.27 86.3139L955.477 85.7254L955.958 85.8238C958.685 86.3816 961.895 84.0948 963.065 80.76L969.916 61.2417C970.846 57.8577 969.53 54.7501 966.803 54.1923Z" fill="white"/>
<path d="M954.341 57.9753L949.107 56.9053L946.756 63.5971L941.522 62.5271L939.207 69.1205L933.973 68.0504L936.288 61.457L931.054 60.387L933.404 53.6952L928.17 52.6252L922.936 51.5552L920.586 58.247L918.27 64.8404L915.955 71.4337L921.189 72.5038L918.873 79.0972L924.107 80.1672L921.757 86.859L926.991 87.929L924.676 94.5224L929.91 95.5924L932.225 88.999L937.46 90.069L939.81 83.3773L945.044 84.4473L947.359 77.8539L952.593 78.9239L954.909 72.3305L957.225 65.7372L959.575 59.0454L954.341 57.9753Z" fill="#B1EAEB"/>
<path d="M932.329 93.5336L927.285 92.542L924.877 99.1342L929.921 100.126L932.329 93.5336Z" fill="#2DC8CB"/>
<path d="M939.782 89.078L934.738 88.0864L932.33 94.6786L937.374 95.6702L939.782 89.078Z" fill="#2DC8CB"/>
<path d="M928.105 85.9481L923.061 84.9565L920.653 91.5489L925.697 92.5405L928.105 85.9481Z" fill="#2DC8CB"/>
<path d="M947.258 84.536L942.214 83.5444L939.806 90.1366L944.851 91.1282L947.258 84.536Z" fill="#2DC8CB"/>
<path d="M923.9 78.2763L918.855 77.2847L916.448 83.877L921.492 84.8687L923.9 78.2763Z" fill="#2DC8CB"/>
<path d="M954.711 80.08L949.667 79.0884L947.259 85.6805L952.304 86.6721L954.711 80.08Z" fill="#2DC8CB"/>
<path d="M919.672 70.6908L914.628 69.6992L912.22 76.2914L917.265 77.283L919.672 70.6908Z" fill="#2DC8CB"/>
<path d="M940.417 63.3466L935.373 62.355L932.965 68.9474L938.009 69.939L940.417 63.3466Z" fill="#2DC8CB"/>
<path d="M916.566 57.2375L918.696 50.914L914.231 49.9624L912.101 56.2859L910.003 62.5164L907.904 68.7469L912.369 69.6985L914.467 63.468L916.566 57.2375Z" fill="#2DC8CB"/>
<path d="M961.026 62.5083L958.9 68.8287L956.806 75.0561L954.712 81.2835L959.099 82.2202L961.194 75.9928L963.288 69.7654L965.414 63.445L961.026 62.5083Z" fill="#2DC8CB"/>
<path d="M947.896 58.8016L942.851 57.8101L940.443 64.4022L945.488 65.3938L947.896 58.8016Z" fill="#2DC8CB"/>
<path d="M936.214 55.6732L931.17 54.6816L928.762 61.274L933.807 62.2656L936.214 55.6732Z" fill="#2DC8CB"/>
<path d="M958.624 62.5059L961.185 55.4731L955.82 54.4153L950.454 53.3574L947.893 60.3902L953.259 61.448L958.624 62.5059Z" fill="#2DC8CB"/>
<path d="M929.429 54.6814L931.99 47.6485L926.624 46.5906L921.259 45.5327L918.698 52.5657L924.063 53.6235L929.429 54.6814Z" fill="#2DC8CB"/>
</g>
<g filter="url(#filter1_d_201_8220)">
<path d="M945.57 424.394L941.271 423.536L942.16 419.087C942.317 418.3 942.155 417.483 941.71 416.815C941.264 416.148 940.572 415.685 939.785 415.528L935.632 414.699L936.485 410.427C936.642 409.64 936.48 408.823 936.035 408.156C935.59 407.488 934.898 407.025 934.111 406.868L929.51 405.95L930.458 401.203C930.615 400.417 930.453 399.6 930.008 398.932C929.563 398.265 928.87 397.802 928.084 397.645L923.785 396.786L924.674 392.337C924.831 391.55 924.669 390.733 924.224 390.066C923.778 389.398 923.086 388.935 922.3 388.778L917.716 387.863L918.574 383.567C918.731 382.781 918.569 381.964 918.124 381.296C917.679 380.629 916.987 380.166 916.2 380.009L871.457 371.075C870.67 370.918 869.853 371.08 869.186 371.525C868.519 371.971 868.056 372.663 867.898 373.449L867.041 377.745L862.315 376.801C861.529 376.644 860.712 376.806 860.044 377.251C859.377 377.697 858.914 378.389 858.757 379.175L857.868 383.625L853.418 382.737C852.632 382.58 851.815 382.741 851.147 383.187C850.48 383.632 850.017 384.324 849.86 385.111L848.912 389.857L844.187 388.914C843.4 388.757 842.583 388.918 841.915 389.364C841.248 389.809 840.785 390.501 840.628 391.288L839.77 395.583L835.475 394.726C834.688 394.568 833.871 394.73 833.204 395.176C832.536 395.621 832.073 396.313 831.916 397.1L831.028 401.549L826.578 400.661C825.791 400.504 824.974 400.666 824.307 401.111C823.639 401.556 823.176 402.248 823.019 403.035L819.592 420.199C819.435 420.986 819.597 421.803 820.042 422.47C820.487 423.137 821.18 423.6 821.966 423.758L839.13 427.185C839.917 427.342 840.734 427.18 841.401 426.735C842.069 426.289 842.532 425.597 842.689 424.81L843.577 420.361L848.027 421.249C848.814 421.406 849.631 421.244 850.298 420.799C850.965 420.354 851.429 419.662 851.586 418.875L852.443 414.58L856.739 415.437C857.526 415.594 858.342 415.432 859.01 414.987C859.677 414.542 860.14 413.85 860.298 413.063L861.241 408.338L865.967 409.281C866.753 409.438 867.57 409.276 868.238 408.831C868.905 408.386 869.368 407.694 869.525 406.907L870.414 402.457L874.863 403.346C875.65 403.503 876.467 403.341 877.134 402.896C877.802 402.45 878.265 401.758 878.422 400.972L879.28 396.676L899.291 400.672L898.434 404.967C898.277 405.754 898.438 406.571 898.884 407.238C899.329 407.906 900.021 408.369 900.808 408.526L905.109 409.385L904.221 413.834C904.064 414.621 904.226 415.438 904.671 416.105C905.116 416.773 905.808 417.236 906.595 417.393L911.178 418.308L910.235 423.034C910.077 423.82 910.239 424.637 910.685 425.305C911.13 425.972 911.822 426.435 912.609 426.592L916.762 427.422L915.904 431.717C915.747 432.504 915.909 433.321 916.354 433.988C916.799 434.655 917.491 435.119 918.278 435.276L922.58 436.135L921.691 440.584C921.534 441.371 921.696 442.188 922.141 442.855C922.586 443.523 923.279 443.986 924.065 444.143L940.953 447.515C941.74 447.672 942.557 447.51 943.224 447.065C943.892 446.62 944.355 445.927 944.512 445.141L947.944 427.953C948.101 427.166 947.939 426.349 947.494 425.682C947.048 425.015 946.356 424.552 945.57 424.394ZM941.55 444.525L924.674 441.155L926.155 433.739L918.887 432.288L920.337 425.026L913.218 423.605L914.753 415.913L907.204 414.405L908.684 406.989L901.417 405.538L902.867 398.276L876.922 393.096L875.472 400.358L868.056 398.877L866.575 406.293L858.883 404.757L857.348 412.449L850.086 411L848.636 418.261L841.22 416.781L839.739 424.197L822.596 420.774L826.023 403.61L833.439 405.091L834.92 397.675L842.182 399.125L843.627 391.887L851.319 393.422L852.859 385.71L860.275 387.19L861.756 379.774L869.448 381.31L870.898 374.048L915.643 382.982L914.193 390.244L921.743 391.751L920.262 399.168L927.491 400.611L925.951 408.324L933.501 409.831L932.051 417.093L939.171 418.514L937.69 425.931L944.972 427.385L941.55 444.525Z" fill="white"/>
</g>
<path d="M936.636 426.621L938.114 419.217L930.989 417.794L932.439 410.532L924.889 409.025L926.425 401.333L919.157 399.882L920.636 392.477L913.089 390.971L914.539 383.709L871.573 375.13L870.123 382.392L862.431 380.856L860.953 388.26L853.548 386.782L852.013 394.474L844.321 392.938L842.871 400.2L835.609 398.75L834.131 406.154L826.726 404.676L823.655 420.06L839.039 423.132L840.517 415.727L847.921 417.206L849.371 409.944L856.633 411.394L858.169 403.702L865.861 405.238L867.339 397.833L874.743 399.312L876.193 392.05L903.918 397.585L902.468 404.847L909.733 406.298L908.254 413.702L915.804 415.209L914.268 422.901L921.396 424.325L919.946 431.586L927.211 433.037L925.733 440.441L940.832 443.456L943.904 428.072L936.636 426.621Z" fill="#B1EAEB" stroke="#2DC8CB" stroke-width="2.32315" stroke-miterlimit="10"/>
<g filter="url(#filter2_d_201_8220)">
<path d="M6.50621 38.5481L9.20506 38.0092L8.64723 35.2154C8.5486 34.7214 8.65025 34.2085 8.9298 33.7895C9.20936 33.3704 9.64392 33.0796 10.1379 32.981L12.7455 32.4603L12.21 29.7782C12.1113 29.2843 12.213 28.7713 12.4925 28.3523C12.7721 27.9333 13.2067 27.6424 13.7006 27.5438L16.5895 26.967L15.9944 23.9869C15.8958 23.4929 15.9975 22.98 16.277 22.561C16.5566 22.1419 16.9911 21.8511 17.4851 21.7525L20.184 21.2136L19.6261 18.4198C19.5275 17.9258 19.6292 17.4129 19.9087 16.9939C20.1883 16.5748 20.6228 16.284 21.1168 16.1854L23.9944 15.6108L23.456 12.9138C23.3573 12.4198 23.459 11.9069 23.7385 11.4879C24.0181 11.0688 24.4526 10.778 24.9466 10.6794L53.0395 5.07027C53.5335 4.97164 54.0464 5.07328 54.4655 5.35284C54.8845 5.63239 55.1753 6.06695 55.274 6.56093L55.8124 9.25791L58.7795 8.6655C59.2735 8.56687 59.7864 8.66852 60.2054 8.94807C60.6245 9.22763 60.9153 9.66219 61.0139 10.1562L61.5717 12.95L64.3656 12.3922C64.8595 12.2935 65.3725 12.3952 65.7915 12.6747C66.2105 12.9543 66.5014 13.3889 66.6 13.8828L67.195 16.8629L70.1621 16.2705C70.656 16.1719 71.169 16.2735 71.588 16.5531C72.0071 16.8326 72.2979 17.2672 72.3965 17.7612L72.935 20.4582L75.632 19.9197C76.126 19.821 76.6389 19.9227 77.0579 20.2022C77.477 20.4818 77.7678 20.9164 77.8664 21.4103L78.4242 24.2042L81.2181 23.6463C81.7121 23.5477 82.225 23.6494 82.644 23.9289C83.0631 24.2085 83.3539 24.643 83.4525 25.137L85.6042 35.9137C85.7028 36.4077 85.6012 36.9207 85.3216 37.3397C85.0421 37.7587 84.6075 38.0496 84.1135 38.1482L73.3368 40.2999C72.8428 40.3985 72.3299 40.2969 71.9109 40.0173C71.4918 39.7378 71.201 39.3032 71.1024 38.8092L70.5445 36.0154L67.7507 36.5732C67.2567 36.6719 66.7438 36.5702 66.3248 36.2907C65.9057 36.0111 65.6149 35.5765 65.5163 35.0826L64.9778 32.3856L62.2808 32.9241C61.7868 33.0227 61.2739 32.9211 60.8549 32.6415C60.4358 32.3619 60.145 31.9274 60.0464 31.4334L59.454 28.4664L56.4869 29.0588C55.993 29.1574 55.48 29.0558 55.061 28.7762C54.642 28.4967 54.3511 28.0621 54.2525 27.5681L53.6947 24.7743L50.9009 25.3321C50.4069 25.4307 49.8939 25.3291 49.4749 25.0495C49.0559 24.77 48.765 24.3354 48.6664 23.8414L48.1279 21.1444L35.5631 23.6532L36.1016 26.3502C36.2002 26.8441 36.0986 27.3571 35.8191 27.7761C35.5395 28.1951 35.1049 28.486 34.6109 28.5846L31.9102 29.1238L32.468 31.9177C32.5667 32.4116 32.4651 32.9246 32.1855 33.3436C31.906 33.7626 31.4714 34.0535 30.9774 34.1521L28.0997 34.7267L28.6921 37.6937C28.7908 38.1877 28.6891 38.7006 28.4096 39.1196C28.13 39.5387 27.6955 39.8295 27.2015 39.9281L24.5939 40.4488L25.1324 43.1457C25.231 43.6397 25.1294 44.1527 24.8498 44.5717C24.5703 44.9907 24.1357 45.2816 23.6417 45.3802L20.941 45.9194L21.4988 48.7132C21.5975 49.2072 21.4958 49.7202 21.2163 50.1392C20.9367 50.5582 20.5021 50.8491 20.0082 50.9477L9.40466 53.0648C8.91068 53.1634 8.39776 53.0618 7.97872 52.7822C7.55968 52.5027 7.26885 52.0681 7.17023 51.5741L5.01554 40.7825C4.91691 40.2885 5.01856 39.7756 5.29812 39.3566C5.57767 38.9375 6.01223 38.6467 6.50621 38.5481ZM9.0298 51.1874L19.6259 49.0717L18.6961 44.4153L23.2594 43.5042L22.349 38.9447L26.8192 38.0522L25.8549 33.2226L30.5951 32.2761L29.6654 27.6197L34.2287 26.7086L33.3183 22.1491L49.6082 18.8966L50.5185 23.4561L55.1749 22.5264L56.1046 27.1828L60.9342 26.2185L61.8985 31.0481L66.458 30.1377L67.3684 34.6973L72.0248 33.7676L72.9545 38.424L83.7182 36.2748L81.5665 25.4981L76.9101 26.4278L75.9804 21.7714L71.4209 22.6818L70.5135 18.1372L65.6839 19.1015L64.717 14.2588L60.0606 15.1885L59.1309 10.5321L54.3013 11.4964L53.3909 6.93691L25.2962 12.5464L26.2065 17.1059L21.4664 18.0524L22.3961 22.7088L17.857 23.615L18.8239 28.4577L14.0837 29.4041L14.9941 33.9636L10.5239 34.8562L11.4536 39.5126L6.88107 40.4255L9.0298 51.1874Z" fill="white"/>
</g>
<path d="M12.1149 39.9461L11.1867 35.2972L15.6606 34.4039L14.7502 29.8444L19.4904 28.8979L18.5261 24.0683L23.0893 23.1572L22.1611 18.5083L26.8995 17.5622L25.9891 13.0027L52.9663 7.6163L53.8767 12.1758L58.7063 11.2115L59.6345 15.8605L64.2834 14.9322L65.2477 19.7619L70.0773 18.7976L70.9877 23.3571L75.5472 22.4467L76.4754 27.0956L81.1244 26.1674L83.0529 35.8266L73.3937 37.7552L72.4655 33.1063L67.8166 34.0345L66.9062 29.475L62.3467 30.3853L61.3824 25.5557L56.5528 26.52L55.6246 21.8711L50.9757 22.7993L50.0653 18.2398L32.6579 21.7154L33.5682 26.275L29.0068 27.1857L29.9351 31.8346L25.1949 32.7811L26.1592 37.6107L21.6834 38.5043L22.5938 43.0638L18.0324 43.9746L18.9606 48.6235L9.48024 50.5164L7.55166 40.8572L12.1149 39.9461Z" fill="#B1EAEB" stroke="#2DC8CB" stroke-width="2.32315" stroke-miterlimit="10"/>
<defs>
<filter id="filter0_d_201_8220" x="905.521" y="38.875" width="67.2987" height="72.8558" filterUnits="userSpaceOnUse" color-interpolation-filters="sRGB">
<feFlood flood-opacity="0" result="BackgroundImageFix"/>
<feColorMatrix in="SourceAlpha" type="matrix" values="0 0 0 0 0 0 0 0 0 0 0 0 0 0 0 0 0 0 127 0" result="hardAlpha"/>
<feOffset dx="2.6073" dy="3.4764"/>
<feComposite in2="hardAlpha" operator="out"/>
<feColorMatrix type="matrix" values="0 0 0 0 0.0117647 0 0 0 0 0.854902 0 0 0 0 0.772549 0 0 0 0.25 0"/>
<feBlend mode="normal" in2="BackgroundImageFix" result="effect1_dropShadow_201_8220"/>
<feBlend mode="normal" in="SourceGraphic" in2="effect1_dropShadow_201_8220" result="shape"/>
</filter>
<filter id="filter1_d_201_8220" x="819.534" y="371.017" width="130.687" height="79.5142" filterUnits="userSpaceOnUse" color-interpolation-filters="sRGB">
<feFlood flood-opacity="0" result="BackgroundImageFix"/>
<feColorMatrix in="SourceAlpha" type="matrix" values="0 0 0 0 0 0 0 0 0 0 0 0 0 0 0 0 0 0 127 0" result="hardAlpha"/>
<feOffset dx="2.21816" dy="2.95755"/>
<feComposite in2="hardAlpha" operator="out"/>
<feColorMatrix type="matrix" values="0 0 0 0 0.0117647 0 0 0 0 0.854902 0 0 0 0 0.772549 0 0 0 0.25 0"/>
<feBlend mode="normal" in2="BackgroundImageFix" result="effect1_dropShadow_201_8220"/>
<feBlend mode="normal" in="SourceGraphic" in2="effect1_dropShadow_201_8220" result="shape"/>
</filter>
<filter id="filter2_d_201_8220" x="4.979" y="5.03369" width="82.8803" height="51.0254" filterUnits="userSpaceOnUse" color-interpolation-filters="sRGB">
<feFlood flood-opacity="0" result="BackgroundImageFix"/>
<feColorMatrix in="SourceAlpha" type="matrix" values="0 0 0 0 0 0 0 0 0 0 0 0 0 0 0 0 0 0 127 0" result="hardAlpha"/>
<feOffset dx="2.21816" dy="2.95755"/>
<feComposite in2="hardAlpha" operator="out"/>
<feColorMatrix type="matrix" values="0 0 0 0 0.0117647 0 0 0 0 0.854902 0 0 0 0 0.772549 0 0 0 0.25 0"/>
<feBlend mode="normal" in2="BackgroundImageFix" result="effect1_dropShadow_201_8220"/>
<feBlend mode="normal" in="SourceGraphic" in2="effect1_dropShadow_201_8220" result="shape"/>
</filter>
</defs>
</svg>
