<svg width="988" height="477" viewBox="0 0 988 477" fill="none" xmlns="http://www.w3.org/2000/svg">
<g filter="url(#filter0_d_201_8220)">
<path d="M962.24 441.695C962.15 440.439 961.676 439.242 960.884 438.263C960.091 437.285 959.017 436.574 957.808 436.225L953.257 434.905L962.571 402.805C961.861 398.087 959.49 393.778 955.884 390.653L927.534 382.427C922.855 383.122 918.6 385.526 915.591 389.175L913.547 396.219C913.399 396.74 913.322 397.279 913.319 397.82C913.254 397.767 913.186 397.718 913.115 397.672C911.47 394.659 909.821 391.648 908.168 388.639C906.505 385.631 904.846 382.62 903.191 379.607C903.1 378.351 902.627 377.153 901.835 376.173C901.043 375.194 899.971 374.48 898.761 374.128L891.762 372.098C887.786 372.987 883.998 374.574 880.575 376.785C879.686 376.849 878.822 377.104 878.042 377.533C877.262 377.963 876.584 378.556 876.054 379.272C875.166 379.338 874.303 379.594 873.523 380.023C872.743 380.452 872.064 381.045 871.534 381.76C867.822 383.455 864.441 385.794 861.546 388.67L860.529 392.174C861.239 396.892 863.611 401.202 867.216 404.327L871.767 405.647L862.456 437.737C863.166 442.455 865.537 446.765 869.142 449.89L897.492 458.116C902.174 457.43 906.432 455.024 909.436 451.368L911.464 444.379C911.612 443.858 911.689 443.319 911.692 442.777L911.895 442.925C913.544 445.936 915.197 448.945 916.854 451.952C918.506 454.967 920.161 457.98 921.82 460.99C921.913 462.245 922.387 463.442 923.179 464.419C923.971 465.397 925.044 466.109 926.252 466.46L933.251 468.49C937.229 467.585 941.015 465.98 944.433 463.752C945.322 463.689 946.186 463.433 946.966 463.004C947.747 462.575 948.425 461.982 948.954 461.265C949.842 461.2 950.705 460.944 951.485 460.514C952.266 460.085 952.944 459.493 953.475 458.778C957.186 457.083 960.568 454.743 963.462 451.868L964.479 448.364C964.828 447.156 964.801 445.871 964.401 444.68C964.001 443.488 963.247 442.447 962.24 441.695ZM905.005 432.292L893.1 428.838L897.65 413.157L902.201 414.477C906.913 413.751 911.217 411.382 914.353 407.79L915.37 404.286C915.496 403.838 915.571 403.376 915.592 402.91C915.707 404.134 916.184 405.295 916.963 406.245C917.742 407.196 918.787 407.892 919.965 408.244L931.896 411.706L927.346 427.387L922.796 426.067C918.102 426.799 913.819 429.171 910.709 432.763L909.693 436.267C909.698 437.041 909.482 437.8 909.068 438.454C908.654 439.108 908.062 439.629 907.36 439.956C906.659 440.283 905.878 440.401 905.111 440.296C904.345 440.192 903.624 439.869 903.035 439.367C902.447 438.865 902.015 438.204 901.791 437.463C901.568 436.722 901.562 435.933 901.774 435.189C901.986 434.445 902.408 433.777 902.989 433.266C903.57 432.755 904.285 432.421 905.05 432.305L905.005 432.292Z" fill="white"/>
<path d="M893.425 405.508L889.921 404.491L878.892 442.507L871.893 440.476L882.923 402.461L879.428 401.447L879.425 401.456L880.442 397.952L869.939 394.905L870.956 391.401L874.451 392.415L875.465 388.92L878.969 389.936L879.985 386.432L883.48 387.446L884.497 383.943L884.503 383.954L887.998 384.968L889.015 381.464L896.013 383.495L894.997 386.999L898.501 388.016L898.503 388.006L897.487 391.51L900.991 392.527L899.974 396.031L903.469 397.045L902.455 400.54L905.959 401.556L904.942 405.06L894.439 402.013L893.423 405.517" fill="#E4E7FF"/>
<path d="M897.03 379.991L890.032 377.96L889.015 381.464L896.014 383.495L897.03 379.991Z" fill="#1130FF"/>
<path d="M889.024 381.466L885.521 380.45L884.504 383.954L888.008 384.97L889.024 381.466Z" fill="#1130FF"/>
<path d="M899.526 384.514L896.022 383.497L895.006 387.001L898.51 388.018L899.526 384.514Z" fill="#1130FF"/>
<path d="M884.506 383.945L881.002 382.928L879.985 386.432L883.489 387.449L884.506 383.945Z" fill="#1130FF"/>
<path d="M902.007 389.023L898.503 388.006L897.486 391.51L900.99 392.527L902.007 389.023Z" fill="#1130FF"/>
<path d="M879.986 386.432L876.482 385.416L875.465 388.92L878.969 389.936L879.986 386.432Z" fill="#1130FF"/>
<path d="M904.494 393.543L900.99 392.527L899.974 396.031L903.478 397.047L904.494 393.543Z" fill="#1130FF"/>
<path d="M909.463 402.573L905.959 401.557L904.943 405.061L908.447 406.077L909.463 402.573Z" fill="#1130FF"/>
<path d="M906.973 398.061L903.469 397.045L902.453 400.549L905.957 401.565L906.973 398.061Z" fill="#1130FF"/>
<path d="M880.443 397.951L869.94 394.904L868.923 398.408L879.426 401.455L880.443 397.951Z" fill="#1130FF"/>
<path d="M904.942 405.06L894.439 402.013L893.423 405.517L903.926 408.564L904.942 405.06Z" fill="#1130FF"/>
<path d="M882.932 402.463L879.428 401.446L868.398 439.462L871.902 440.478L882.932 402.463Z" fill="#1130FF"/>
<path d="M900.244 448.702L871.894 440.476L870.877 443.98L899.227 452.206L900.244 448.702Z" fill="#1130FF"/>
<path d="M893.435 405.51L889.931 404.493L880.931 435.51L884.435 436.527L893.435 405.51Z" fill="#1130FF"/>
<path d="M875.474 388.922L871.97 387.905L870.953 391.409L874.457 392.426L875.474 388.922Z" fill="#1130FF"/>
<path d="M870.956 391.4L867.452 390.384L866.436 393.887L869.939 394.904L870.956 391.4Z" fill="#1130FF"/>
<path d="M900.252 448.704L903.547 449.659L905.578 442.661L902.283 441.705L900.252 448.704Z" fill="#1130FF"/>
<path d="M903.287 438.207L885.44 433.029L884.423 436.533L902.271 441.711L903.287 438.207Z" fill="#1130FF"/>
<path d="M873.924 433.477L871.894 440.476L900.253 448.704L902.283 441.706L873.924 433.477Z" fill="#E4E7FF"/>
<path d="M931.59 435.032L935.094 436.049L946.124 398.034L953.123 400.064L942.093 438.08L945.597 439.096L945.599 439.087L944.583 442.591L955.086 445.638L954.069 449.142L954.072 449.133L950.568 448.117L949.551 451.621L946.056 450.607L945.039 454.11L941.536 453.094L940.519 456.598L940.522 456.589L937.018 455.572L936.001 459.076L929.002 457.045L930.019 453.541L926.515 452.525L926.521 452.536L927.538 449.033L924.034 448.016L925.051 444.512L921.547 443.495L922.563 439.991L919.069 438.977L919.066 438.987L920.083 435.483L930.585 438.53L931.602 435.026" fill="#E4E7FF"/>
<path d="M936.002 459.077L929.003 457.046L927.986 460.55L934.985 462.58L936.002 459.077Z" fill="#1130FF"/>
<path d="M940.522 456.589L937.018 455.572L936.001 459.076L939.505 460.093L940.522 456.589Z" fill="#1130FF"/>
<path d="M930.02 453.542L926.516 452.525L925.499 456.029L929.003 457.045L930.02 453.542Z" fill="#1130FF"/>
<path d="M945.04 454.111L941.536 453.094L940.519 456.598L944.023 457.615L945.04 454.111Z" fill="#1130FF"/>
<path d="M927.538 449.033L924.034 448.016L923.018 451.52L926.521 452.536L927.538 449.033Z" fill="#1130FF"/>
<path d="M949.552 451.621L946.048 450.604L945.032 454.108L948.536 455.125L949.552 451.621Z" fill="#1130FF"/>
<path d="M925.051 444.512L921.547 443.496L920.531 447L924.035 448.016L925.051 444.512Z" fill="#1130FF"/>
<path d="M920.083 435.482L916.579 434.466L915.562 437.97L919.066 438.986L920.083 435.482Z" fill="#1130FF"/>
<path d="M922.562 440L919.058 438.984L918.041 442.488L921.545 443.504L922.562 440Z" fill="#1130FF"/>
<path d="M956.102 442.135L945.599 439.087L944.582 442.591L955.085 445.639L956.102 442.135Z" fill="#1130FF"/>
<path d="M931.593 435.024L921.09 431.976L920.073 435.48L930.576 438.528L931.593 435.024Z" fill="#1130FF"/>
<path d="M956.627 401.081L953.123 400.065L942.093 438.08L945.597 439.097L956.627 401.081Z" fill="#1130FF"/>
<path d="M954.14 396.561L925.79 388.335L924.773 391.839L953.123 400.065L954.14 396.561Z" fill="#1130FF"/>
<path d="M944.097 405.023L940.593 404.007L931.594 435.023L935.098 436.04L944.097 405.023Z" fill="#1130FF"/>
<path d="M954.07 449.142L950.566 448.126L949.549 451.63L953.053 452.646L954.07 449.142Z" fill="#1130FF"/>
<path d="M958.589 446.655L955.085 445.639L954.069 449.143L957.573 450.159L958.589 446.655Z" fill="#1130FF"/>
<path d="M924.773 391.839L921.479 390.883L919.448 397.882L922.742 398.838L924.773 391.839Z" fill="#1130FF"/>
<path d="M940.589 404.016L922.742 398.838L921.726 402.342L939.573 407.52L940.589 404.016Z" fill="#1130FF"/>
<path d="M951.092 407.064L953.123 400.065L924.764 391.837L922.733 398.835L951.092 407.064Z" fill="#E4E7FF"/>
</g>
<g filter="url(#filter1_d_201_8220)">
<path d="M76.5163 260.522C74.6334 259.991 72.8994 259.03 71.4509 257.715C69.1079 255.892 66.486 254.458 63.6863 253.47L57.2358 254.757C57.938 254.288 58.4853 253.622 58.808 252.841C59.1308 252.061 59.2145 251.203 59.0487 250.375L57.4529 242.378C57.2317 241.27 56.5792 240.295 55.639 239.667C54.6987 239.04 53.5478 238.811 52.4393 239.033L41.7257 241.171C39.5246 243.16 37.6564 245.489 36.1921 248.069C35.979 248.4 35.6978 248.681 35.3674 248.894C35.037 249.107 34.6649 249.247 34.276 249.305C33.8872 249.362 33.4903 249.336 33.1123 249.229C32.7342 249.121 32.3837 248.933 32.0838 248.679L26.7268 249.748C25.6183 249.969 24.6431 250.622 24.0157 251.562C23.3883 252.502 23.1601 253.653 23.3813 254.762L23.9137 257.43C24.0795 258.256 24.4867 259.015 25.0838 259.61C25.6809 260.206 26.441 260.61 27.2681 260.773L15.426 263.136C13.2249 265.126 11.3569 267.455 9.89262 270.035C8.06882 272.376 6.63482 274.995 5.64597 277.793L8.85563 293.877C9.02238 294.72 9.43993 295.493 10.0537 296.095C10.6675 296.696 11.4487 297.098 12.2949 297.247L13.1179 301.371C13.2863 302.218 13.7082 302.995 14.3277 303.597C14.9471 304.199 15.7349 304.598 16.5866 304.743L16.8758 306.191C18.8659 308.399 21.1964 310.274 23.7788 311.746C25.9245 313.17 28.0664 314.599 30.2046 316.034C30.6479 316.812 31.3253 317.432 32.1407 317.804C32.9561 318.175 33.8679 318.281 34.7465 318.104L48.1351 315.433C48.7617 314.651 49.6436 314.116 50.6257 313.92C51.6078 313.724 52.6275 313.88 53.506 314.361L66.8806 311.692C69.0906 309.702 70.9679 307.371 72.4419 304.788C73.0218 304.459 73.5165 303.999 73.8865 303.445C74.2564 302.89 74.4912 302.257 74.5719 301.595C76.3887 299.243 77.8207 296.618 78.8144 293.817L78.5239 292.361C79.2525 291.901 79.8244 291.231 80.1642 290.439C80.504 289.647 80.5959 288.77 80.4274 287.925L79.6045 283.801C80.3316 283.34 80.9019 282.669 81.2404 281.878C81.5789 281.086 81.6697 280.211 81.5009 279.366L78.2843 263.247C78.0779 262.141 77.4424 261.161 76.5163 260.522ZM77.3701 280.155L74.6951 280.688L76.2965 288.713L73.6147 289.248L74.6837 294.605L72.0087 295.139L72.5452 297.828L69.8565 298.364L70.3888 301.032L67.7139 301.566L68.249 304.248L65.5601 304.785L66.0925 307.453L52.7178 310.121L52.1854 307.453L46.8147 308.525L47.3471 311.193L33.9585 313.865L33.4261 311.197L30.7372 311.734L30.202 309.052L27.5341 309.584L27.0017 306.916L24.3128 307.453L23.7762 304.764L21.1084 305.296L20.0394 299.939L17.3435 300.477L15.7422 292.452L13.0811 292.983L9.87143 276.899L12.5325 276.368L12.0001 273.7L14.689 273.163L14.1525 270.475L16.8203 269.942L16.2838 267.253L32.3613 264.045L32.8937 266.713L38.2505 265.644L37.1829 260.294L34.5081 260.828L33.9757 258.16L31.2937 258.695L30.7572 256.006L28.0822 256.54L27.5498 253.872L32.9067 252.803L33.4391 255.471L36.1139 254.937L36.6505 257.626L39.3325 257.091L38.2635 251.734L40.9523 251.198L40.4199 248.53L43.0879 247.997L42.5597 245.35L53.2665 243.214L54.8651 251.225L52.197 251.757L52.7336 254.446L50.0447 254.982L50.5771 257.65L47.9162 258.181L48.4527 260.87L64.5162 257.665L65.0472 260.326L67.7222 259.792L68.2587 262.481L70.9407 261.946L71.4731 264.614L74.1549 264.078L77.3701 280.155Z" fill="white"/>
<path d="M48.4584 260.862L43.1016 261.931L43.634 264.599L48.9908 263.53L48.4584 260.862Z" fill="white"/>
<path d="M71.4871 264.611L70.9547 261.943L68.2659 262.48L67.7293 259.791L65.0613 260.323L64.5289 257.655L48.4584 260.862L48.9908 263.53L43.634 264.599L43.1016 261.931L48.4584 260.862L47.9219 258.173L50.5898 257.641L50.0588 254.98L52.7477 254.443L52.2111 251.754L54.8721 251.223L54.3397 248.556L53.8087 245.858L53.2764 243.19L42.5627 245.328L43.0951 247.996L40.4341 248.527L40.9706 251.216L38.2818 251.753L39.3507 257.109L36.6619 257.646L36.1253 254.957L33.4573 255.49L32.9249 252.822L27.5611 253.892L28.0935 256.56L30.7685 256.026L31.305 258.715L33.9939 258.178L34.5249 260.839L37.1929 260.307L38.2618 265.664L32.905 266.733L32.3726 264.065L16.3021 267.272L16.8345 269.94L14.1665 270.472L14.7031 273.161L12.0142 273.698L12.5466 276.366L9.87863 276.898L13.0883 292.982L15.7563 292.45L17.3576 300.475L20.0465 299.938L21.1154 305.295L23.7834 304.763L24.3186 307.445L27.0075 306.908L27.5399 309.576L30.2009 309.045L30.7374 311.734L33.4263 311.197L33.9587 313.865L47.3473 311.194L46.8149 308.526L52.1926 307.452L52.725 310.12L66.0997 307.451L65.5673 304.783L68.2562 304.247L67.7196 301.558L70.3946 301.024L69.8622 298.356L72.5441 297.821L72.0089 295.139L74.6838 294.605L73.6149 289.249L76.2968 288.713L74.6954 280.689L77.3703 280.155L74.1607 264.07L71.4871 264.611Z" fill="#1130FF"/>
<path d="M72.5563 269.968L74.1618 278.014L71.4729 278.55L73.0785 286.596L70.4105 287.128L71.4781 292.478L68.7892 293.015L69.3216 295.683L66.6467 296.216L67.1832 298.905L64.4944 299.442L65.0268 302.11L62.3658 302.641L62.9023 305.33L54.8566 306.935L54.32 304.246L51.6521 304.779L51.1197 302.111L45.7489 303.183L46.2813 305.851L43.6064 306.384L44.1429 309.073L36.1042 310.677L35.5676 307.988L32.8927 308.522L32.3603 305.854L29.6714 306.391L29.1349 303.702L26.4669 304.234L25.9345 301.566L23.2456 302.103L22.1781 296.753L19.5101 297.285L17.9046 289.24L15.2157 289.776L13.0778 279.063L15.7666 278.526L15.2301 275.837L17.898 275.305L17.367 272.644L20.0559 272.107L19.5193 269.418L30.233 267.28L30.7696 269.969L36.1264 268.9L36.6574 271.561L47.3711 269.423L46.8401 266.762L52.1969 265.694L51.6604 263.005L62.374 260.867L62.9106 263.556L65.5995 263.019L66.1305 265.68L68.8054 265.146L69.342 267.835L72.0239 267.3L72.5563 269.968Z" fill="#E4E7FF"/>
<path d="M41.4962 253.885L44.1642 253.353L43.6332 250.692L46.3151 250.157L45.7771 247.461L51.134 246.392L51.6705 249.081L48.9817 249.617L49.514 252.285L46.8461 252.818L47.3826 255.506L44.7007 256.042L45.2331 258.71L42.5652 259.242L41.4962 253.885Z" fill="#E4E7FF"/>
</g>
<g filter="url(#filter2_d_201_8220)">
<path d="M980.724 43.91C978.107 41.28 975.484 38.6567 972.854 36.04C970.237 33.41 967.614 30.7867 964.984 28.17C962.364 25.54 959.741 22.9134 957.114 20.29C954.484 17.6734 951.861 15.05 949.244 12.42C946.614 9.80338 943.991 7.18004 941.374 4.55005C940.791 3.20064 939.826 2.051 938.599 1.24261C937.371 0.434229 935.934 0.0023038 934.464 0H930.524C928.529 0 926.617 0.792302 925.206 2.20258C923.796 3.61285 923.004 5.52559 923.004 7.52002V74.43C923.004 76.4244 923.796 78.3372 925.206 79.7474C926.617 81.1577 928.529 81.95 930.524 81.95H938.364C939.835 81.9516 941.274 81.5212 942.502 80.7123C943.73 79.9035 944.694 78.7518 945.274 77.4C945.621 77.2575 945.955 77.0869 946.274 76.89C946.384 76.97 946.504 77.04 946.624 77.11V78.37C947.657 80.9545 949.205 83.3021 951.174 85.2703C953.142 87.2386 955.489 88.7864 958.074 89.82H965.944C968.523 88.784 970.866 87.235 972.829 85.2668C974.792 83.2987 976.335 80.9523 977.364 78.37V70.4901C977.366 68.9583 976.894 67.4634 976.014 66.21H977.714C979.708 66.21 981.621 65.4177 983.031 64.0074C984.442 62.5972 985.234 60.6844 985.234 58.69V50.82C985.239 49.3537 984.814 47.918 984.013 46.6901C983.212 45.4622 982.068 44.4958 980.724 43.91Z" fill="white"/>
<path d="M970.674 51.4598V47.2698H966.484V43.0798H962.304V38.8998H958.114V34.7098H953.924V30.5198H949.744V26.3398H945.554V22.1498H941.364V17.9598H937.184V13.7798H932.994V17.9598V22.1498V26.3398V30.5198V34.7098V38.8998V43.0798V47.2698V51.4598V55.6398V59.8298V64.0098V68.1998V72.3898H937.184V68.1998H941.364V64.0098H945.554V59.8298H949.744V64.0098H953.924V68.1998V72.3898H958.114V76.5798V80.7598H962.304H966.484V76.5798V72.3898H962.304V68.1998V64.0098H958.114V59.8298V55.6398H962.304H966.484H970.674H974.864V51.4598H970.674Z" fill="#E4E7FF"/>
<path d="M958.114 80.7598V84.9498H962.304H966.484V80.7598H962.304H958.114Z" fill="#1130FF"/>
<path d="M966.484 80.7601H970.674V76.5801V72.3901H966.484V76.5801V80.7601Z" fill="#1130FF"/>
<path d="M958.114 72.3901H953.924V76.5801V80.7601H958.114V76.5801V72.3901Z" fill="#1130FF"/>
<path d="M962.304 72.3898H966.484V68.1998V64.0098H962.304V68.1998V72.3898Z" fill="#1130FF"/>
<path d="M941.374 68.2002H937.184V72.3902H941.374V68.2002Z" fill="#1130FF"/>
<path d="M932.994 68.1999V64.0099V59.8299V55.6399V51.4599V47.2699V43.0799V38.8999V34.7099V30.5199V26.3399V22.1499V17.9599V13.7799H937.184V9.5899H932.994V5.3999H928.804V9.5899V13.7799V17.9599V22.1499V26.3399V30.5199V34.7099V38.8999V43.0799V47.2699V51.4599V55.6399V59.8299V64.0099V68.1999V72.3899V76.5799H932.994H937.184V72.3899H932.994V68.1999Z" fill="#1130FF"/>
<path d="M953.924 64.0098H949.744V68.1998V72.3898H953.924V68.1998V64.0098Z" fill="#1130FF"/>
<path d="M945.554 64.0098H941.364V68.1998H945.554V64.0098Z" fill="#1130FF"/>
<path d="M949.744 59.8301H945.554V64.0201H949.744V59.8301Z" fill="#1130FF"/>
<path d="M974.864 51.46V55.64H970.674H966.484H962.304H958.114V59.83V64.01H962.304V59.83H966.484H970.674H974.864H979.044V55.64V51.46H974.864Z" fill="#1130FF"/>
<path d="M974.864 47.27H970.674V51.46H974.864V47.27Z" fill="#1130FF"/>
<path d="M970.674 43.0801H966.484V47.2701H970.674V43.0801Z" fill="#1130FF"/>
<path d="M966.494 38.8999H962.304V43.0899H966.494V38.8999Z" fill="#1130FF"/>
<path d="M962.304 34.71H958.114V38.9H962.304V34.71Z" fill="#1130FF"/>
<path d="M958.114 30.52H953.924V34.71H958.114V30.52Z" fill="#1130FF"/>
<path d="M953.934 26.3398H949.744V30.5298H953.934V26.3398Z" fill="#1130FF"/>
<path d="M949.744 22.1499H945.554V26.3399H949.744V22.1499Z" fill="#1130FF"/>
<path d="M945.554 17.96H941.364V22.15H945.554V17.96Z" fill="#1130FF"/>
<path d="M941.374 13.77H937.184V17.96H941.374V13.77Z" fill="#1130FF"/>
</g>
<defs>
<filter id="filter0_d_201_8220" x="860.529" y="372.098" width="106.691" height="99.7232" filterUnits="userSpaceOnUse" color-interpolation-filters="sRGB">
<feFlood flood-opacity="0" result="BackgroundImageFix"/>
<feColorMatrix in="SourceAlpha" type="matrix" values="0 0 0 0 0 0 0 0 0 0 0 0 0 0 0 0 0 0 127 0" result="hardAlpha"/>
<feOffset dx="2.49793" dy="3.33057"/>
<feComposite in2="hardAlpha" operator="out"/>
<feColorMatrix type="matrix" values="0 0 0 0 0.0666667 0 0 0 0 0.188235 0 0 0 0 1 0 0 0 0.25 0"/>
<feBlend mode="normal" in2="BackgroundImageFix" result="effect1_dropShadow_201_8220"/>
<feBlend mode="normal" in="SourceGraphic" in2="effect1_dropShadow_201_8220" result="shape"/>
</filter>
<filter id="filter1_d_201_8220" x="5.646" y="238.95" width="78.1557" height="82.1949" filterUnits="userSpaceOnUse" color-interpolation-filters="sRGB">
<feFlood flood-opacity="0" result="BackgroundImageFix"/>
<feColorMatrix in="SourceAlpha" type="matrix" values="0 0 0 0 0 0 0 0 0 0 0 0 0 0 0 0 0 0 127 0" result="hardAlpha"/>
<feOffset dx="2.21816" dy="2.95755"/>
<feComposite in2="hardAlpha" operator="out"/>
<feColorMatrix type="matrix" values="0 0 0 0 0.0666667 0 0 0 0 0.188235 0 0 0 0 1 0 0 0 0.25 0"/>
<feBlend mode="normal" in2="BackgroundImageFix" result="effect1_dropShadow_201_8220"/>
<feBlend mode="normal" in="SourceGraphic" in2="effect1_dropShadow_201_8220" result="shape"/>
</filter>
<filter id="filter2_d_201_8220" x="923.004" y="0" width="64.7279" height="93.1506" filterUnits="userSpaceOnUse" color-interpolation-filters="sRGB">
<feFlood flood-opacity="0" result="BackgroundImageFix"/>
<feColorMatrix in="SourceAlpha" type="matrix" values="0 0 0 0 0 0 0 0 0 0 0 0 0 0 0 0 0 0 127 0" result="hardAlpha"/>
<feOffset dx="2.49793" dy="3.33057"/>
<feComposite in2="hardAlpha" operator="out"/>
<feColorMatrix type="matrix" values="0 0 0 0 0.0666667 0 0 0 0 0.188235 0 0 0 0 1 0 0 0 0.25 0"/>
<feBlend mode="normal" in2="BackgroundImageFix" result="effect1_dropShadow_201_8220"/>
<feBlend mode="normal" in="SourceGraphic" in2="effect1_dropShadow_201_8220" result="shape"/>
</filter>
</defs>
</svg>
