<svg width="956" height="422" viewBox="0 0 956 422" fill="none" xmlns="http://www.w3.org/2000/svg">
<g filter="url(#filter0_d_0_1)">
<path d="M911.358 403.613C911.312 402.97 911.07 402.357 910.664 401.856C910.258 401.355 909.708 400.991 909.089 400.813L906.759 400.137L911.527 383.702C911.164 381.286 909.95 379.079 908.104 377.479L893.589 373.268C891.193 373.624 889.015 374.854 887.474 376.723L886.427 380.329C886.352 380.596 886.312 380.872 886.311 381.149C886.277 381.122 886.242 381.097 886.206 381.073C885.364 379.531 884.52 377.989 883.673 376.449C882.822 374.908 881.972 373.367 881.125 371.824C881.078 371.181 880.836 370.567 880.431 370.066C880.025 369.565 879.476 369.199 878.857 369.019L875.274 367.979C873.238 368.435 871.298 369.247 869.546 370.379C869.091 370.412 868.648 370.543 868.249 370.762C867.849 370.982 867.502 371.286 867.231 371.653C866.776 371.686 866.334 371.817 865.935 372.037C865.536 372.257 865.188 372.56 864.917 372.926C863.016 373.794 861.285 374.992 859.803 376.464L859.282 378.258C859.646 380.674 860.86 382.88 862.706 384.48L865.036 385.156L860.269 401.587C860.632 404.002 861.846 406.209 863.692 407.809L878.207 412.02C880.604 411.669 882.785 410.437 884.322 408.566L885.361 404.987C885.437 404.72 885.476 404.444 885.477 404.167L885.582 404.243C886.426 405.784 887.272 407.325 888.121 408.865C888.966 410.408 889.814 411.951 890.663 413.492C890.711 414.135 890.953 414.747 891.359 415.248C891.765 415.748 892.314 416.113 892.932 416.293L896.516 417.332C898.553 416.869 900.491 416.047 902.241 414.906C902.696 414.874 903.138 414.743 903.538 414.523C903.938 414.303 904.285 414 904.556 413.633C905.01 413.599 905.452 413.468 905.852 413.249C906.251 413.029 906.599 412.726 906.87 412.359C908.771 411.492 910.502 410.294 911.984 408.821L912.504 407.027C912.683 406.409 912.669 405.751 912.465 405.141C912.26 404.531 911.874 403.998 911.358 403.613V403.613ZM882.054 398.799L875.959 397.03L878.288 389.001L880.618 389.677C883.031 389.306 885.235 388.093 886.84 386.254L887.361 384.46C887.426 384.23 887.464 383.994 887.474 383.755C887.533 384.382 887.777 384.976 888.176 385.463C888.575 385.949 889.11 386.306 889.713 386.486L895.822 388.259L893.493 396.288L891.163 395.612C888.759 395.986 886.567 397.201 884.975 399.04L884.454 400.834C884.457 401.23 884.346 401.619 884.134 401.954C883.922 402.288 883.619 402.555 883.26 402.723C882.901 402.89 882.501 402.95 882.108 402.897C881.716 402.844 881.347 402.678 881.045 402.421C880.744 402.164 880.523 401.826 880.408 401.446C880.294 401.067 880.291 400.663 880.4 400.282C880.508 399.901 880.724 399.559 881.022 399.297C881.319 399.036 881.685 398.865 882.077 398.805L882.054 398.799Z" fill="white"/>
<path d="M876.125 385.085L874.331 384.565L868.684 404.029L865.101 402.989L870.748 383.525L868.959 383.006L868.957 383.011L869.478 381.217L864.1 379.656L864.621 377.862L866.41 378.381L866.929 376.592L868.723 377.113L869.244 375.319L871.033 375.838L871.554 374.044L871.557 374.05L873.347 374.569L873.867 372.775L877.45 373.815L876.93 375.609L878.724 376.129L878.725 376.125L878.205 377.919L879.999 378.439L879.478 380.233L881.268 380.752L880.748 382.542L882.542 383.062L882.022 384.856L876.645 383.296L876.124 385.09" fill="#E4E7FF"/>
<path d="M877.971 372.021L874.388 370.981L873.867 372.775L877.451 373.815L877.971 372.021Z" fill="#1130FF"/>
<path d="M873.872 372.776L872.078 372.255L871.557 374.05L873.351 374.57L873.872 372.776Z" fill="#1130FF"/>
<path d="M879.249 374.336L877.455 373.816L876.934 375.61L878.728 376.13L879.249 374.336Z" fill="#1130FF"/>
<path d="M871.558 374.045L869.764 373.524L869.244 375.318L871.038 375.839L871.558 374.045Z" fill="#1130FF"/>
<path d="M880.519 376.645L878.725 376.124L878.204 377.918L879.998 378.439L880.519 376.645Z" fill="#1130FF"/>
<path d="M869.244 375.319L867.45 374.798L866.93 376.592L868.724 377.113L869.244 375.319Z" fill="#1130FF"/>
<path d="M881.793 378.959L879.999 378.439L879.478 380.233L881.272 380.753L881.793 378.959Z" fill="#1130FF"/>
<path d="M884.337 383.583L882.543 383.062L882.022 384.856L883.816 385.377L884.337 383.583Z" fill="#1130FF"/>
<path d="M883.062 381.273L881.268 380.752L880.747 382.546L882.541 383.067L883.062 381.273Z" fill="#1130FF"/>
<path d="M869.478 381.216L864.101 379.656L863.58 381.45L868.958 383.01L869.478 381.216Z" fill="#1130FF"/>
<path d="M882.022 384.856L876.644 383.296L876.124 385.09L881.501 386.65L882.022 384.856Z" fill="#1130FF"/>
<path d="M870.752 383.526L868.958 383.006L863.311 402.47L865.105 402.99L870.752 383.526Z" fill="#1130FF"/>
<path d="M879.616 407.2L865.101 402.989L864.58 404.783L879.096 408.994L879.616 407.2Z" fill="#1130FF"/>
<path d="M876.13 385.086L874.336 384.566L869.728 400.446L871.522 400.967L876.13 385.086Z" fill="#1130FF"/>
<path d="M866.934 376.593L865.14 376.073L864.619 377.867L866.413 378.387L866.934 376.593Z" fill="#1130FF"/>
<path d="M864.621 377.862L862.827 377.342L862.307 379.136L864.101 379.656L864.621 377.862Z" fill="#1130FF"/>
<path d="M879.621 407.201L881.307 407.691L882.347 404.107L880.66 403.618L879.621 407.201Z" fill="#1130FF"/>
<path d="M881.174 401.827L872.037 399.176L871.516 400.97L880.654 403.621L881.174 401.827Z" fill="#1130FF"/>
<path d="M866.141 399.406L865.101 402.989L879.621 407.202L880.661 403.618L866.141 399.406Z" fill="#E4E7FF"/>
<path d="M895.666 400.202L897.46 400.722L903.107 381.258L906.69 382.298L901.043 401.762L902.837 402.282L902.838 402.278L902.318 404.072L907.695 405.632L907.175 407.426L907.176 407.421L905.382 406.901L904.862 408.695L903.072 408.176L902.552 409.97L900.758 409.449L900.237 411.243L900.239 411.239L898.445 410.718L897.924 412.512L894.341 411.472L894.861 409.678L893.067 409.158L893.071 409.164L893.591 407.37L891.797 406.849L892.318 405.055L890.524 404.535L891.044 402.741L889.255 402.222L889.253 402.226L889.774 400.432L895.151 401.992L895.672 400.198" fill="#E4E7FF"/>
<path d="M897.924 412.512L894.341 411.473L893.82 413.267L897.404 414.306L897.924 412.512Z" fill="#1130FF"/>
<path d="M900.238 411.239L898.444 410.718L897.924 412.512L899.718 413.033L900.238 411.239Z" fill="#1130FF"/>
<path d="M894.861 409.678L893.067 409.158L892.547 410.952L894.341 411.472L894.861 409.678Z" fill="#1130FF"/>
<path d="M902.552 409.97L900.758 409.449L900.237 411.243L902.031 411.764L902.552 409.97Z" fill="#1130FF"/>
<path d="M893.591 407.37L891.797 406.849L891.276 408.643L893.07 409.164L893.591 407.37Z" fill="#1130FF"/>
<path d="M904.862 408.695L903.068 408.175L902.548 409.969L904.342 410.489L904.862 408.695Z" fill="#1130FF"/>
<path d="M892.318 405.055L890.524 404.535L890.003 406.329L891.797 406.85L892.318 405.055Z" fill="#1130FF"/>
<path d="M889.774 400.432L887.98 399.912L887.459 401.706L889.253 402.226L889.774 400.432Z" fill="#1130FF"/>
<path d="M891.043 402.745L889.249 402.225L888.728 404.019L890.522 404.539L891.043 402.745Z" fill="#1130FF"/>
<path d="M908.216 403.838L902.838 402.278L902.318 404.072L907.695 405.632L908.216 403.838Z" fill="#1130FF"/>
<path d="M895.667 400.197L890.29 398.637L889.769 400.431L895.146 401.991L895.667 400.197Z" fill="#1130FF"/>
<path d="M908.485 382.819L906.691 382.298L901.043 401.762L902.837 402.283L908.485 382.819Z" fill="#1130FF"/>
<path d="M907.211 380.504L892.696 376.293L892.175 378.087L906.691 382.298L907.211 380.504Z" fill="#1130FF"/>
<path d="M902.069 384.837L900.275 384.317L895.667 400.197L897.461 400.718L902.069 384.837Z" fill="#1130FF"/>
<path d="M907.175 407.426L905.381 406.906L904.861 408.7L906.655 409.22L907.175 407.426Z" fill="#1130FF"/>
<path d="M909.489 406.153L907.695 405.632L907.175 407.426L908.969 407.947L909.489 406.153Z" fill="#1130FF"/>
<path d="M892.175 378.087L890.489 377.597L889.449 381.181L891.136 381.67L892.175 378.087Z" fill="#1130FF"/>
<path d="M900.273 384.321L891.135 381.67L890.615 383.464L899.753 386.115L900.273 384.321Z" fill="#1130FF"/>
<path d="M905.651 385.882L906.691 382.298L892.171 378.086L891.131 381.669L905.651 385.882Z" fill="#E4E7FF"/>
</g>
<g filter="url(#filter1_d_0_1)">
<path d="M43.9018 249.643C42.8214 249.339 41.8266 248.787 40.9955 248.033C39.6512 246.987 38.1468 246.164 36.5405 245.597L32.8395 246.336C33.2424 246.067 33.5564 245.684 33.7416 245.237C33.9268 244.789 33.9748 244.297 33.8797 243.822L32.9641 239.233C32.8371 238.597 32.4628 238.038 31.9233 237.678C31.3839 237.318 30.7235 237.187 30.0875 237.314L23.9405 238.54C22.6777 239.682 21.6058 241.018 20.7656 242.499C20.6433 242.688 20.482 242.849 20.2924 242.972C20.1028 243.094 19.8894 243.174 19.6663 243.207C19.4431 243.24 19.2155 243.226 18.9986 243.164C18.7816 243.102 18.5805 242.994 18.4085 242.849L15.3349 243.462C14.6989 243.589 14.1393 243.963 13.7793 244.503C13.4194 245.042 13.2884 245.702 13.4154 246.338L13.7208 247.869C13.8159 248.343 14.0496 248.779 14.3922 249.12C14.7347 249.462 15.1709 249.694 15.6454 249.788L8.85096 251.143C7.5881 252.285 6.51632 253.621 5.67618 255.102C4.62976 256.444 3.807 257.947 3.23964 259.553L5.0812 268.781C5.17688 269.265 5.41645 269.708 5.76861 270.053C6.12077 270.398 6.56901 270.629 7.05452 270.715L7.52668 273.081C7.62329 273.567 7.86539 274.012 8.22081 274.358C8.57622 274.703 9.02822 274.932 9.5169 275.015L9.68279 275.846C10.8246 277.113 12.1618 278.189 13.6435 279.033C14.8745 279.85 16.1035 280.67 17.3303 281.493C17.5846 281.94 17.9733 282.296 18.4411 282.509C18.9089 282.722 19.4321 282.783 19.9362 282.681L27.6179 281.149C27.9775 280.7 28.4835 280.393 29.0469 280.281C29.6104 280.168 30.1955 280.258 30.6995 280.534L38.3733 279.002C39.6412 277.86 40.7184 276.523 41.5641 275.041C41.8968 274.852 42.1806 274.589 42.3929 274.27C42.6051 273.952 42.7399 273.589 42.7862 273.209C43.8286 271.86 44.6502 270.354 45.2203 268.746L45.0536 267.911C45.4717 267.647 45.7998 267.262 45.9948 266.808C46.1897 266.354 46.2424 265.851 46.1458 265.366L45.6736 263C46.0908 262.735 46.418 262.351 46.6122 261.896C46.8065 261.442 46.8586 260.94 46.7617 260.455L44.9162 251.207C44.7978 250.572 44.4331 250.01 43.9018 249.643V249.643ZM44.3917 260.908L42.8569 261.214L43.7757 265.818L42.237 266.125L42.8503 269.199L41.3155 269.505L41.6234 271.048L40.0807 271.356L40.3861 272.886L38.8513 273.193L39.1584 274.731L37.6156 275.039L37.9211 276.57L30.2473 278.101L29.9419 276.57L26.8604 277.185L27.1658 278.716L19.4841 280.249L19.1786 278.718L17.6358 279.026L17.3288 277.487L15.7981 277.793L15.4926 276.262L13.9498 276.57L13.642 275.027L12.1113 275.333L11.4979 272.259L9.95115 272.568L9.03237 267.964L7.50558 268.268L5.66402 259.04L7.19081 258.735L6.88535 257.204L8.42814 256.896L8.12028 255.354L9.65097 255.048L9.34312 253.505L18.5677 251.665L18.8731 253.195L21.9466 252.582L21.3341 249.513L19.7994 249.819L19.4939 248.288L17.9551 248.595L17.6473 247.052L16.1125 247.359L15.807 245.828L18.8806 245.215L19.1861 246.745L20.7208 246.439L21.0286 247.982L22.5674 247.675L21.9541 244.601L23.4968 244.293L23.1913 242.763L24.7221 242.457L24.419 240.938L30.5621 239.713L31.4793 244.309L29.9485 244.614L30.2564 246.157L28.7136 246.465L29.019 247.996L27.4923 248.3L27.8002 249.843L37.0166 248.004L37.3213 249.531L38.8561 249.224L39.164 250.767L40.7028 250.46L41.0082 251.991L42.5469 251.684L44.3917 260.908Z" fill="white"/>
<path d="M27.8035 249.839L24.7299 250.452L25.0354 251.983L28.1089 251.369L27.8035 249.839Z" fill="white"/>
<path d="M41.0163 251.989L40.7108 250.459L39.168 250.767L38.8602 249.224L37.3294 249.529L37.024 247.999L27.8034 249.839L28.1089 251.369L25.0354 251.983L24.7299 250.452L27.8034 249.839L27.4956 248.296L29.0263 247.99L28.7217 246.464L30.2644 246.156L29.9566 244.613L31.4833 244.308L31.1779 242.778L30.8732 241.23L30.5677 239.699L24.4207 240.926L24.7262 242.457L23.1994 242.761L23.5073 244.304L21.9645 244.612L22.5779 247.685L21.0351 247.993L20.7273 246.45L19.1965 246.756L18.891 245.225L15.8135 245.839L16.119 247.37L17.6538 247.064L17.9616 248.607L19.5044 248.299L19.809 249.825L21.3398 249.52L21.9531 252.594L18.8796 253.207L18.5741 251.676L9.35362 253.516L9.65908 255.047L8.12832 255.352L8.43618 256.895L6.89343 257.203L7.19889 258.734L5.66814 259.039L7.50969 268.268L9.04045 267.962L9.95923 272.566L11.502 272.259L12.1153 275.332L13.6461 275.027L13.9531 276.565L15.4959 276.257L15.8013 277.788L17.3281 277.484L17.636 279.026L19.1787 278.718L19.4842 280.249L27.1659 278.716L26.8605 277.186L29.946 276.57L30.2514 278.101L37.9252 276.569L37.6197 275.039L39.1625 274.731L38.8546 273.188L40.3894 272.882L40.0839 271.351L41.6227 271.044L41.3156 269.505L42.8504 269.199L42.237 266.125L43.7758 265.818L42.857 261.214L44.3918 260.908L42.5502 251.679L41.0163 251.989Z" fill="#1130FF"/>
<path d="M41.6297 255.063L42.5509 259.679L41.0081 259.987L41.9293 264.603L40.3985 264.909L41.0111 267.978L39.4683 268.286L39.7738 269.817L38.239 270.123L38.5469 271.666L37.0041 271.974L37.3096 273.505L35.7828 273.809L36.0907 275.352L31.4744 276.273L31.1666 274.73L29.6358 275.036L29.3304 273.505L26.2489 274.12L26.5543 275.651L25.0196 275.957L25.3274 277.5L20.7152 278.42L20.4073 276.877L18.8725 277.184L18.5671 275.653L17.0243 275.961L16.7165 274.418L15.1857 274.723L14.8803 273.193L13.3375 273.501L12.725 270.431L11.1942 270.737L10.2731 266.12L8.7303 266.428L7.50366 260.281L9.04641 259.973L8.73855 258.43L10.2693 258.125L9.96465 256.598L11.5074 256.29L11.1995 254.748L17.3466 253.521L17.6544 255.064L20.7279 254.45L21.0326 255.977L27.1796 254.751L26.8749 253.224L29.9484 252.61L29.6406 251.068L35.7876 249.841L36.0954 251.384L37.6382 251.076L37.9429 252.603L39.4776 252.296L39.7855 253.839L41.3242 253.532L41.6297 255.063Z" fill="#E4E7FF"/>
<path d="M23.8088 245.835L25.3396 245.53L25.0349 244.003L26.5737 243.696L26.265 242.149L29.3385 241.536L29.6464 243.079L28.1036 243.387L28.4091 244.917L26.8784 245.223L27.1862 246.766L25.6475 247.073L25.9529 248.603L24.4222 248.909L23.8088 245.835Z" fill="#E4E7FF"/>
</g>
<g filter="url(#filter2_d_0_1)">
<path d="M950.826 21.1683C949.564 19.9004 948.3 18.6357 947.032 17.3743C945.77 16.1064 944.506 14.8417 943.238 13.5803C941.975 12.3124 940.71 11.0461 939.444 9.78147C938.176 8.52002 936.911 7.25536 935.65 5.98748C934.382 4.72604 933.117 3.46137 931.856 2.1935C931.575 1.54297 931.11 0.988751 930.518 0.599043C929.926 0.209334 929.233 0.00111062 928.525 0H926.625C925.664 0 924.742 0.381955 924.062 1.06182C923.382 1.74169 923 2.66379 923 3.62527V35.8814C923 36.8429 923.382 37.765 924.062 38.4448C924.742 39.1247 925.664 39.5067 926.625 39.5067H930.405C931.114 39.5074 931.807 39.2999 932.4 38.91C932.992 38.5201 933.456 37.9648 933.736 37.3132C933.903 37.2445 934.064 37.1623 934.218 37.0673C934.271 37.1059 934.329 37.1397 934.387 37.1734V37.7808C934.885 39.0267 935.631 40.1585 936.58 41.1073C937.529 42.0562 938.661 42.8024 939.907 43.3006H943.701C944.944 42.8012 946.073 42.0545 947.02 41.1056C947.966 40.1568 948.71 39.0257 949.206 37.7808V33.982C949.207 33.2436 948.98 32.5229 948.555 31.9187H949.375C950.336 31.9187 951.258 31.5367 951.938 30.8569C952.618 30.177 953 29.2549 953 28.2934V24.4994C953.002 23.7926 952.798 23.1004 952.411 22.5085C952.025 21.9165 951.474 21.4506 950.826 21.1683V21.1683Z" fill="white"/>
<path d="M945.981 24.8079V22.7879H943.961V20.768H941.946V18.7529H939.926V16.733H937.906V14.7131H935.891V12.6979H933.871V10.678H931.851V8.65809H929.836V6.64299H927.816V8.65809V10.678V12.6979V14.7131V16.733V18.7529V20.768V22.7879V24.8079V26.823V28.8429V30.858V32.8779V34.8978H929.836V32.8779H931.851V30.858H933.871V28.8429H935.891V30.858H937.906V32.8779V34.8978H939.926V36.9178V38.9329H941.946H943.961V36.9178V34.8978H941.946V32.8779V30.858H939.926V28.8429V26.823H941.946H943.961H945.981H948.001V24.8079H945.981Z" fill="#E4E7FF"/>
<path d="M939.926 38.9329V40.9528H941.946H943.961V38.9329H941.946H939.926Z" fill="#1130FF"/>
<path d="M943.961 38.933H945.981V36.9179V34.898H943.961V36.9179V38.933Z" fill="#1130FF"/>
<path d="M939.926 34.898H937.906V36.9179V38.933H939.926V36.9179V34.898Z" fill="#1130FF"/>
<path d="M941.946 34.8978H943.961V32.8779V30.858H941.946V32.8779V34.8978Z" fill="#1130FF"/>
<path d="M931.856 32.8781H929.836V34.898H931.856V32.8781Z" fill="#1130FF"/>
<path d="M927.816 32.878V30.858V28.8429V26.823V24.8079V22.788V20.7681V18.753V16.733V14.7131V12.698V10.6781V8.65815V6.64305H929.836V4.62312H927.816V2.6032H925.796V4.62312V6.64305V8.65815V10.6781V12.698V14.7131V16.733V18.753V20.7681V22.788V24.8079V26.823V28.8429V30.858V32.878V34.8979V36.9178H927.816H929.836V34.8979H927.816V32.878Z" fill="#1130FF"/>
<path d="M937.906 30.858H935.891V32.8779V34.8978H937.906V32.8779V30.858Z" fill="#1130FF"/>
<path d="M933.871 30.858H931.851V32.8779H933.871V30.858Z" fill="#1130FF"/>
<path d="M935.891 28.843H933.871V30.863H935.891V28.843Z" fill="#1130FF"/>
<path d="M948.001 24.8079V26.823H945.981H943.961H941.946H939.926V28.843V30.8581H941.946V28.843H943.961H945.981H948.001H950.016V26.823V24.8079H948.001Z" fill="#1130FF"/>
<path d="M948.001 22.788H945.981V24.808H948.001V22.788Z" fill="#1130FF"/>
<path d="M945.981 20.7682H943.961V22.7881H945.981V20.7682Z" fill="#1130FF"/>
<path d="M943.966 18.753H941.946V20.7729H943.966V18.753Z" fill="#1130FF"/>
<path d="M941.946 16.7331H939.926V18.753H941.946V16.7331Z" fill="#1130FF"/>
<path d="M939.926 14.7132H937.906V16.7331H939.926V14.7132Z" fill="#1130FF"/>
<path d="M937.911 12.698H935.891V14.7179H937.911V12.698Z" fill="#1130FF"/>
<path d="M935.891 10.6781H933.871V12.698H935.891V10.6781Z" fill="#1130FF"/>
<path d="M933.871 8.65818H931.851V10.6781H933.871V8.65818Z" fill="#1130FF"/>
<path d="M931.856 6.63828H929.836V8.65821H931.856V6.63828Z" fill="#1130FF"/>
</g>
<defs>
<filter id="filter0_d_0_1" x="859.282" y="367.979" width="55.8447" height="52.6836" filterUnits="userSpaceOnUse" color-interpolation-filters="sRGB">
<feFlood flood-opacity="0" result="BackgroundImageFix"/>
<feColorMatrix in="SourceAlpha" type="matrix" values="0 0 0 0 0 0 0 0 0 0 0 0 0 0 0 0 0 0 127 0" result="hardAlpha"/>
<feOffset dx="2.49793" dy="3.33057"/>
<feComposite in2="hardAlpha" operator="out"/>
<feColorMatrix type="matrix" values="0 0 0 0 0.0666667 0 0 0 0 0.188235 0 0 0 0 1 0 0 0 0.25 0"/>
<feBlend mode="normal" in2="BackgroundImageFix" result="effect1_dropShadow_0_1"/>
<feBlend mode="normal" in="SourceGraphic" in2="effect1_dropShadow_0_1" result="shape"/>
</filter>
<filter id="filter1_d_0_1" x="3.23965" y="237.266" width="45.7877" height="48.4202" filterUnits="userSpaceOnUse" color-interpolation-filters="sRGB">
<feFlood flood-opacity="0" result="BackgroundImageFix"/>
<feColorMatrix in="SourceAlpha" type="matrix" values="0 0 0 0 0 0 0 0 0 0 0 0 0 0 0 0 0 0 127 0" result="hardAlpha"/>
<feOffset dx="2.21816" dy="2.95755"/>
<feComposite in2="hardAlpha" operator="out"/>
<feColorMatrix type="matrix" values="0 0 0 0 0.0666667 0 0 0 0 0.188235 0 0 0 0 1 0 0 0 0.25 0"/>
<feBlend mode="normal" in2="BackgroundImageFix" result="effect1_dropShadow_0_1"/>
<feBlend mode="normal" in="SourceGraphic" in2="effect1_dropShadow_0_1" result="shape"/>
</filter>
<filter id="filter2_d_0_1" x="923" y="0" width="32.4979" height="46.6312" filterUnits="userSpaceOnUse" color-interpolation-filters="sRGB">
<feFlood flood-opacity="0" result="BackgroundImageFix"/>
<feColorMatrix in="SourceAlpha" type="matrix" values="0 0 0 0 0 0 0 0 0 0 0 0 0 0 0 0 0 0 127 0" result="hardAlpha"/>
<feOffset dx="2.49793" dy="3.33057"/>
<feComposite in2="hardAlpha" operator="out"/>
<feColorMatrix type="matrix" values="0 0 0 0 0.0666667 0 0 0 0 0.188235 0 0 0 0 1 0 0 0 0.25 0"/>
<feBlend mode="normal" in2="BackgroundImageFix" result="effect1_dropShadow_0_1"/>
<feBlend mode="normal" in="SourceGraphic" in2="effect1_dropShadow_0_1" result="shape"/>
</filter>
</defs>
</svg>
