<svg width="944" height="439" viewBox="0 0 944 439" fill="none" xmlns="http://www.w3.org/2000/svg">
<g filter="url(#filter0_d_0_1)">
<path d="M902.52 28.4153L901.923 30.5604L904.068 31.1567L903.472 33.3019L905.617 33.8982L904.425 38.1884L906.57 38.7847L905.377 43.075L907.522 43.6713L906.33 47.9616L908.475 48.5579L906.089 57.1384L903.944 56.5421L903.348 58.6872L901.203 58.0909L900.607 60.236L898.461 59.6397L897.865 61.7848L887.14 58.8033L887.736 56.6581L885.591 56.0618L886.187 53.9167L884.042 53.3204L884.638 51.1752L882.493 50.5789L884.878 41.9984L887.023 42.5947L888.216 38.3045L890.361 38.9008L891.554 34.6105L893.699 35.2068L894.892 30.9166L897.037 31.5129L897.633 29.3678L899.778 29.9641L900.374 27.819L902.52 28.4153ZM903.116 26.2702L900.971 25.6738C900.402 25.5157 899.793 25.59 899.279 25.8805C898.765 26.1709 898.388 26.6537 898.229 27.2227C897.66 27.0645 897.052 27.1388 896.538 27.4293C896.024 27.7197 895.646 28.2025 895.488 28.7715C894.919 28.6133 894.311 28.6876 893.796 28.9781C893.282 29.2685 892.905 29.7514 892.746 30.3203L892.15 32.4654C891.581 32.3073 890.973 32.3816 890.459 32.672C889.945 32.9625 889.567 33.4453 889.409 34.0142L888.812 36.1593C888.243 36.0012 887.635 36.0755 887.121 36.366C886.607 36.6564 886.229 37.1392 886.071 37.7082L885.475 39.8533C884.906 39.6951 884.297 39.7694 883.783 40.0599C883.269 40.3504 882.891 40.8332 882.733 41.4021L880.348 49.9826C880.19 50.5515 880.264 51.16 880.555 51.6741C880.845 52.1882 881.328 52.5659 881.897 52.7241C881.739 53.293 881.813 53.9014 882.103 54.4155C882.394 54.9297 882.877 55.3073 883.446 55.4655C883.287 56.0344 883.362 56.6429 883.652 57.157C883.943 57.6711 884.425 58.0488 884.994 58.2069C884.836 58.7759 884.911 59.3843 885.201 59.8984C885.491 60.4125 885.974 60.7902 886.543 60.9484L897.269 63.93C897.838 64.0881 898.446 64.0138 898.96 63.7233C899.474 63.4329 899.852 62.9501 900.01 62.3811C900.579 62.5393 901.188 62.465 901.702 62.1745C902.216 61.884 902.594 61.4013 902.752 60.8323C903.321 60.9905 903.929 60.9162 904.443 60.6257C904.957 60.3352 905.335 59.8524 905.493 59.2835C906.062 59.4417 906.671 59.3673 907.185 59.0769C907.699 58.7864 908.076 58.3036 908.235 57.7347L910.62 49.1542C910.778 48.5853 910.704 47.9768 910.413 47.4627C910.123 46.9486 909.64 46.5709 909.071 46.4128L909.667 44.2676C909.826 43.6987 909.751 43.0902 909.461 42.5761C909.17 42.062 908.687 41.6843 908.119 41.5262L908.715 39.3811C908.873 38.8121 908.799 38.2037 908.508 37.6896C908.218 37.1754 907.735 36.7978 907.166 36.6396L907.762 34.4945C907.921 33.9256 907.846 33.3171 907.556 32.803C907.265 32.2889 906.782 31.9112 906.214 31.753C906.372 31.1841 906.297 30.5757 906.007 30.0615C905.716 29.5474 905.234 29.1697 904.665 29.0116C904.823 28.4427 904.749 27.8342 904.458 27.3201C904.168 26.806 903.685 26.4283 903.116 26.2702Z" fill="white"/>
<path d="M906.33 47.9615L903.944 56.542L901.799 55.9457L901.203 58.0909L899.058 57.4945L898.461 59.6397L894.171 58.447L887.736 56.6581L888.332 54.513L886.187 53.9167L886.783 51.7715L884.638 51.1752L885.831 46.885L887.023 42.5947L889.169 43.191L889.765 41.0459L890.361 38.9008L892.506 39.4971L893.103 37.3519L893.699 35.2068L895.844 35.8031L896.44 33.658L897.037 31.5129L899.182 32.1092L899.778 29.9641L901.923 30.5604L901.327 32.7055L903.472 33.3018L902.279 37.5921L904.425 38.1884L903.232 42.4786L905.377 43.075L904.184 47.3652L906.33 47.9615Z" fill="#E4D1FF"/>
<path d="M885.831 46.885L887.024 42.5948L884.878 41.9985L882.493 50.579L884.638 51.1753L885.831 46.885Z" fill="#9847FF"/>
<path d="M906.57 38.7847L904.425 38.1884L903.232 42.4787L905.377 43.075L906.57 38.7847Z" fill="#9847FF"/>
<path d="M905.617 33.8981L903.472 33.3018L902.28 37.5921L904.425 38.1884L905.617 33.8981Z" fill="#9847FF"/>
<path d="M888.332 54.5129L886.187 53.9166L885.591 56.0618L887.736 56.6581L888.332 54.5129Z" fill="#9847FF"/>
<path d="M894.171 58.447L887.736 56.6581L887.14 58.8032L897.865 61.7848L898.461 59.6397L894.171 58.447Z" fill="#9847FF"/>
<path d="M902.52 28.4153L900.375 27.819L899.778 29.9642L901.923 30.5605L902.52 28.4153Z" fill="#9847FF"/>
<path d="M896.441 33.6581L897.037 31.513L894.892 30.9167L893.699 35.2069L895.844 35.8033L896.441 33.6581Z" fill="#9847FF"/>
<path d="M893.103 37.352L893.699 35.2069L891.554 34.6106L890.361 38.9009L892.506 39.4972L893.103 37.352Z" fill="#9847FF"/>
<path d="M889.765 41.0459L890.361 38.9008L888.216 38.3045L887.023 42.5948L889.168 43.1911L889.765 41.0459Z" fill="#9847FF"/>
<path d="M886.783 51.7715L884.638 51.1752L884.042 53.3204L886.187 53.9167L886.783 51.7715Z" fill="#9847FF"/>
<path d="M899.778 29.9642L897.633 29.3679L897.037 31.513L899.182 32.1093L899.778 29.9642Z" fill="#9847FF"/>
<path d="M908.475 48.5579L906.33 47.9616L903.944 56.5421L906.089 57.1384L908.475 48.5579Z" fill="#9847FF"/>
<path d="M904.069 31.1567L901.923 30.5604L901.327 32.7056L903.472 33.3019L904.069 31.1567Z" fill="#9847FF"/>
<path d="M903.944 56.5421L901.799 55.9458L901.203 58.0909L903.348 58.6872L903.944 56.5421Z" fill="#9847FF"/>
<path d="M907.522 43.6713L905.377 43.075L904.185 47.3652L906.33 47.9615L907.522 43.6713Z" fill="#9847FF"/>
<path d="M901.203 58.0909L899.058 57.4946L898.461 59.6398L900.607 60.2361L901.203 58.0909Z" fill="#9847FF"/>
</g>
<g filter="url(#filter1_d_0_1)">
<path d="M875.006 3.37958L874.687 4.5268L875.834 4.84571L875.515 5.99292L876.663 6.31183L876.025 8.60627L877.172 8.92518L876.534 11.2196L877.681 11.5385L877.044 13.8329L878.191 14.1519L876.915 18.7407L875.768 18.4218L875.449 19.569L874.302 19.2501L873.983 20.3973L872.836 20.0784L872.517 21.2256L866.781 19.6311L867.1 18.4839L865.952 18.165L866.271 17.0177L865.124 16.6988L865.443 15.5516L864.296 15.2327L865.571 10.6439L866.719 10.9628L867.356 8.66833L868.504 8.98724L869.142 6.69281L870.289 7.01172L870.927 4.71729L872.074 5.0362L872.393 3.88898L873.54 4.20789L873.859 3.06067L875.006 3.37958ZM875.325 2.23237L874.178 1.91346C873.873 1.82888 873.548 1.86862 873.273 2.02396C872.998 2.1793 872.796 2.4375 872.712 2.74176C872.407 2.65718 872.082 2.69693 871.807 2.85226C871.532 3.0076 871.33 3.26581 871.245 3.57007C870.941 3.48549 870.616 3.52523 870.341 3.68057C870.066 3.83591 869.864 4.09412 869.779 4.39838L869.46 5.54559C869.156 5.46101 868.831 5.50075 868.556 5.65609C868.281 5.81143 868.079 6.06964 867.994 6.3739L867.675 7.52111C867.371 7.43653 867.046 7.47628 866.771 7.63161C866.496 7.78695 866.294 8.04516 866.209 8.34942L865.89 9.49664C865.586 9.41206 865.261 9.4518 864.986 9.60714C864.711 9.76247 864.509 10.0207 864.424 10.3249L863.149 14.9138C863.064 15.2181 863.104 15.5435 863.259 15.8184C863.414 16.0934 863.673 16.2954 863.977 16.3799C863.892 16.6842 863.932 17.0096 864.087 17.2845C864.243 17.5595 864.501 17.7615 864.805 17.8461C864.721 18.1503 864.76 18.4757 864.916 18.7507C865.071 19.0256 865.329 19.2276 865.634 19.3122C865.549 19.6164 865.589 19.9418 865.744 20.2168C865.899 20.4917 866.158 20.6937 866.462 20.7783L872.198 22.3729C872.502 22.4574 872.828 22.4177 873.103 22.2623C873.377 22.107 873.579 21.8488 873.664 21.5445C873.968 21.6291 874.294 21.5894 874.569 21.434C874.844 21.2787 875.046 21.0205 875.13 20.7162C875.434 20.8008 875.76 20.7611 876.035 20.6057C876.31 20.4504 876.512 20.1922 876.596 19.8879C876.901 19.9725 877.226 19.9328 877.501 19.7774C877.776 19.6221 877.978 19.3639 878.062 19.0596L879.338 14.4708C879.423 14.1665 879.383 13.8411 879.228 13.5662C879.072 13.2912 878.814 13.0892 878.51 13.0046L878.829 11.8574C878.913 11.5532 878.873 11.2278 878.718 10.9528C878.563 10.6779 878.305 10.4759 878 10.3913L878.319 9.24408C878.404 8.93982 878.364 8.61442 878.209 8.33947C878.053 8.06452 877.795 7.86254 877.491 7.77796L877.81 6.63074C877.894 6.32648 877.855 6.00108 877.699 5.72613C877.544 5.45118 877.286 5.2492 876.982 5.16462C877.066 4.86036 877.026 4.53495 876.871 4.26C876.716 3.98505 876.458 3.78307 876.153 3.69849C876.238 3.39423 876.198 3.06883 876.043 2.79388C875.887 2.51893 875.629 2.31695 875.325 2.23237Z" fill="white"/>
<path d="M877.043 13.8329L875.768 18.4218L874.621 18.1029L874.302 19.2501L873.154 18.9312L872.836 20.0784L870.541 19.4406L867.099 18.4839L867.418 17.3367L866.271 17.0178L866.59 15.8705L865.443 15.5516L866.081 13.2572L866.718 10.9628L867.866 11.2817L868.185 10.1345L868.504 8.98724L869.651 9.30615L869.97 8.15893L870.289 7.01172L871.436 7.33063L871.755 6.18341L872.074 5.0362L873.221 5.35511L873.54 4.20789L874.687 4.5268L874.368 5.67401L875.515 5.99292L874.877 8.28736L876.025 8.60627L875.387 10.9007L876.534 11.2196L875.896 13.514L877.043 13.8329Z" fill="#E4D1FF"/>
<path d="M866.081 13.2574L866.719 10.963L865.571 10.644L864.296 15.2329L865.443 15.5518L866.081 13.2574Z" fill="#9847FF"/>
<path d="M877.172 8.92505L876.024 8.60614L875.387 10.9006L876.534 11.2195L877.172 8.92505Z" fill="#9847FF"/>
<path d="M876.663 6.31189L875.516 5.99298L874.878 8.28741L876.025 8.60632L876.663 6.31189Z" fill="#9847FF"/>
<path d="M867.419 17.3365L866.272 17.0176L865.953 18.1649L867.1 18.4838L867.419 17.3365Z" fill="#9847FF"/>
<path d="M870.541 19.4405L867.099 18.4838L866.781 19.631L872.517 21.2255L872.836 20.0783L870.541 19.4405Z" fill="#9847FF"/>
<path d="M875.006 3.3797L873.859 3.06079L873.54 4.20801L874.687 4.52692L875.006 3.3797Z" fill="#9847FF"/>
<path d="M871.755 6.18359L872.074 5.03638L870.926 4.71747L870.289 7.0119L871.436 7.33081L871.755 6.18359Z" fill="#9847FF"/>
<path d="M869.97 8.15912L870.289 7.0119L869.142 6.69299L868.504 8.98742L869.651 9.30633L869.97 8.15912Z" fill="#9847FF"/>
<path d="M868.185 10.1346L868.504 8.98743L867.357 8.66852L866.719 10.9629L867.866 11.2819L868.185 10.1346Z" fill="#9847FF"/>
<path d="M866.59 15.8704L865.443 15.5515L865.124 16.6987L866.271 17.0176L866.59 15.8704Z" fill="#9847FF"/>
<path d="M873.54 4.20789L872.393 3.88898L872.074 5.03619L873.221 5.3551L873.54 4.20789Z" fill="#9847FF"/>
<path d="M878.191 14.1519L877.044 13.833L875.768 18.4219L876.915 18.7408L878.191 14.1519Z" fill="#9847FF"/>
<path d="M875.834 4.84577L874.687 4.52686L874.368 5.67407L875.515 5.99298L875.834 4.84577Z" fill="#9847FF"/>
<path d="M875.768 18.4218L874.62 18.1028L874.301 19.2501L875.449 19.569L875.768 18.4218Z" fill="#9847FF"/>
<path d="M877.682 11.5385L876.534 11.2196L875.897 13.514L877.044 13.8329L877.682 11.5385Z" fill="#9847FF"/>
<path d="M874.302 19.25L873.155 18.9311L872.836 20.0783L873.983 20.3972L874.302 19.25Z" fill="#9847FF"/>
</g>
<g filter="url(#filter2_d_0_1)">
<path d="M928.971 14.2917L928.754 15.0726L929.534 15.2896L929.317 16.0705L930.098 16.2876L929.664 17.8493L930.445 18.0664L930.011 19.6281L930.792 19.8452L930.358 21.407L931.138 21.624L930.27 24.7475L929.489 24.5305L929.272 25.3113L928.491 25.0943L928.274 25.8751L927.493 25.6581L927.276 26.4389L923.372 25.3536L923.589 24.5727L922.808 24.3556L923.025 23.5748L922.244 23.3577L922.461 22.5768L921.681 22.3597L922.549 19.2363L923.33 19.4533L923.764 17.8916L924.545 18.1086L924.979 16.5469L925.76 16.764L926.194 15.2022L926.975 15.4193L927.192 14.6384L927.973 14.8555L928.19 14.0746L928.971 14.2917ZM929.188 13.5108L928.407 13.2938C928.2 13.2362 927.978 13.2632 927.791 13.369C927.604 13.4747 927.467 13.6505 927.409 13.8576C927.202 13.8 926.98 13.827 926.793 13.9328C926.606 14.0385 926.469 14.2143 926.411 14.4214C926.204 14.3638 925.982 14.3908 925.795 14.4966C925.608 14.6023 925.471 14.7781 925.413 14.9852L925.196 15.766C924.989 15.7085 924.767 15.7355 924.58 15.8412C924.393 15.947 924.256 16.1227 924.198 16.3298L923.981 17.1107C923.774 17.0531 923.552 17.0802 923.365 17.1859C923.178 17.2917 923.041 17.4674 922.983 17.6745L922.766 18.4554C922.559 18.3978 922.337 18.4249 922.15 18.5306C921.963 18.6363 921.826 18.8121 921.768 19.0192L920.9 22.1427C920.842 22.3498 920.869 22.5712 920.975 22.7584C921.081 22.9456 921.256 23.083 921.464 23.1406C921.406 23.3477 921.433 23.5692 921.539 23.7563C921.644 23.9435 921.82 24.081 922.027 24.1386C921.97 24.3457 921.997 24.5671 922.103 24.7543C922.208 24.9414 922.384 25.0789 922.591 25.1365C922.534 25.3436 922.561 25.5651 922.666 25.7522C922.772 25.9394 922.948 26.0769 923.155 26.1344L927.059 27.2198C927.266 27.2774 927.488 27.2503 927.675 27.1446C927.862 27.0388 928 26.8631 928.057 26.656C928.264 26.7136 928.486 26.6865 928.673 26.5808C928.86 26.475 928.998 26.2993 929.055 26.0922C929.262 26.1498 929.484 26.1227 929.671 26.017C929.858 25.9112 929.996 25.7355 930.053 25.5284C930.26 25.586 930.482 25.5589 930.669 25.4532C930.856 25.3474 930.993 25.1717 931.051 24.9646L931.919 21.8411C931.977 21.634 931.95 21.4125 931.844 21.2254C931.738 21.0382 931.563 20.9007 931.356 20.8432L931.573 20.0623C931.63 19.8552 931.603 19.6337 931.497 19.4465C931.392 19.2594 931.216 19.1219 931.009 19.0643L931.226 18.2835C931.283 18.0764 931.256 17.8549 931.151 17.6677C931.045 17.4806 930.869 17.3431 930.662 17.2855L930.879 16.5047C930.937 16.2976 930.91 16.0761 930.804 15.8889C930.698 15.7018 930.522 15.5643 930.315 15.5067C930.373 15.2996 930.346 15.0781 930.24 14.891C930.134 14.7038 929.959 14.5663 929.752 14.5088C929.809 14.3017 929.782 14.0802 929.676 13.893C929.571 13.7059 929.395 13.5684 929.188 13.5108Z" fill="white"/>
<path d="M930.358 21.4071L929.489 24.5306L928.709 24.3135L928.491 25.0944L927.711 24.8773L927.494 25.6582L925.932 25.2241L923.589 24.5728L923.806 23.792L923.025 23.5749L923.242 22.794L922.462 22.577L922.896 21.0152L923.33 19.4535L924.111 19.6705L924.328 18.8897L924.545 18.1088L925.326 18.3259L925.543 17.545L925.76 16.7641L926.541 16.9812L926.758 16.2003L926.975 15.4195L927.756 15.6365L927.973 14.8557L928.754 15.0727L928.537 15.8536L929.317 16.0707L928.883 17.6324L929.664 17.8495L929.23 19.4112L930.011 19.6283L929.577 21.19L930.358 21.4071Z" fill="#E4D1FF"/>
<path d="M922.896 21.0153L923.33 19.4536L922.549 19.2365L921.681 22.36L922.461 22.5771L922.896 21.0153Z" fill="#9847FF"/>
<path d="M930.445 18.0664L929.664 17.8494L929.23 19.4111L930.011 19.6282L930.445 18.0664Z" fill="#9847FF"/>
<path d="M930.098 16.2877L929.317 16.0706L928.883 17.6324L929.664 17.8494L930.098 16.2877Z" fill="#9847FF"/>
<path d="M923.806 23.7916L923.025 23.5745L922.808 24.3554L923.589 24.5725L923.806 23.7916Z" fill="#9847FF"/>
<path d="M925.931 25.2237L923.589 24.5725L923.372 25.3534L927.276 26.4387L927.493 25.6579L925.931 25.2237Z" fill="#9847FF"/>
<path d="M928.971 14.2917L928.19 14.0746L927.973 14.8555L928.754 15.0725L928.971 14.2917Z" fill="#9847FF"/>
<path d="M926.757 16.2002L926.975 15.4193L926.194 15.2023L925.76 16.764L926.54 16.9811L926.757 16.2002Z" fill="#9847FF"/>
<path d="M925.543 17.5449L925.76 16.764L924.979 16.5469L924.545 18.1087L925.326 18.3258L925.543 17.5449Z" fill="#9847FF"/>
<path d="M924.328 18.8898L924.545 18.1089L923.764 17.8918L923.33 19.4536L924.111 19.6707L924.328 18.8898Z" fill="#9847FF"/>
<path d="M923.242 22.7939L922.462 22.5768L922.245 23.3577L923.025 23.5748L923.242 22.7939Z" fill="#9847FF"/>
<path d="M927.973 14.8555L927.192 14.6384L926.975 15.4193L927.756 15.6364L927.973 14.8555Z" fill="#9847FF"/>
<path d="M931.139 21.6241L930.358 21.407L929.49 24.5305L930.27 24.7475L931.139 21.6241Z" fill="#9847FF"/>
<path d="M929.534 15.2896L928.754 15.0726L928.536 15.8534L929.317 16.0705L929.534 15.2896Z" fill="#9847FF"/>
<path d="M929.489 24.5305L928.708 24.3134L928.491 25.0943L929.272 25.3114L929.489 24.5305Z" fill="#9847FF"/>
<path d="M930.792 19.8452L930.011 19.6282L929.577 21.1899L930.358 21.407L930.792 19.8452Z" fill="#9847FF"/>
<path d="M928.492 25.0941L927.711 24.877L927.494 25.6579L928.275 25.875L928.492 25.0941Z" fill="#9847FF"/>
</g>
<g filter="url(#filter3_d_0_1)">
<path d="M3.33962 367.129C2.66701 366.954 2.23087 366.213 2.40503 365.541L3.71124 360.496C3.8854 359.824 4.62632 359.388 5.29893 359.562L5.71931 359.671L8.50589 348.909C8.68005 348.236 9.42097 347.8 10.0936 347.974L10.514 348.083L10.6228 347.663C10.797 346.99 11.5379 346.554 12.2105 346.728L12.6309 346.837L12.7397 346.417C12.9139 345.744 13.6548 345.308 14.3274 345.482L14.7478 345.591L14.8566 345.17C15.0308 344.498 15.7717 344.062 16.4443 344.236L16.7806 344.323L16.9983 343.482L16.578 343.373C15.9054 343.199 15.4692 342.458 15.6434 341.786L15.7522 341.365L15.3318 341.256C14.6592 341.082 14.2231 340.341 14.3973 339.669L14.5061 339.248L14.0857 339.14C13.4131 338.965 12.977 338.224 13.1511 337.552L13.26 337.131L12.8396 337.023C12.167 336.848 11.7309 336.108 11.905 335.435L14.6916 324.673L14.2712 324.564C13.5986 324.39 13.1625 323.649 13.3366 322.977L14.6646 317.848C14.8388 317.175 15.5797 316.739 16.2523 316.913L45.1744 324.402C45.847 324.577 46.2832 325.317 46.109 325.99L44.781 331.119C44.6069 331.791 43.8659 332.227 43.1933 332.053L42.7729 331.944L39.9864 342.706C39.8122 343.379 39.0713 343.815 38.3987 343.641L37.9783 343.532L37.8694 343.952C37.6953 344.625 36.9544 345.061 36.2818 344.887L35.8614 344.778L35.7525 345.198C35.5784 345.871 34.8374 346.307 34.1648 346.133L33.7445 346.024L33.6356 346.444C33.4614 347.117 32.7205 347.553 32.0479 347.379L31.6275 347.27L31.4098 348.111L31.9143 348.242C32.5869 348.416 33.023 349.157 32.8489 349.829L32.74 350.25L33.1604 350.359C33.833 350.533 34.2692 351.274 34.095 351.946L33.9861 352.367L34.4065 352.475C35.0791 352.65 35.5153 353.391 35.3411 354.063L35.2323 354.484L35.6526 354.592C36.3252 354.767 36.7614 355.507 36.5872 356.18L33.8224 366.858L34.2428 366.967C34.9154 367.141 35.3515 367.882 35.1774 368.554L33.8712 373.599C33.697 374.271 32.9561 374.708 32.2835 374.533L3.36139 367.044L3.33962 367.129Z" fill="white"/>
<path d="M44.8479 325.664L44.4125 327.346L43.9771 329.027L43.5417 330.709L41.8601 330.273L41.4247 331.955L40.9893 333.636L40.5539 335.318L40.1185 337L39.6831 338.681L39.2042 340.531L38.7688 342.212L37.0873 341.777L36.6519 343.458L34.9703 343.023L34.5349 344.704L32.8534 344.269L32.418 345.951L30.7365 345.515L30.3011 347.197L29.8657 348.878L29.9498 348.9L31.6313 349.335L31.1959 351.017L32.8774 351.452L32.442 353.134L34.1235 353.569L33.6881 355.251L35.3696 355.686L34.9342 357.368L34.4553 359.217L34.0199 360.899L33.5845 362.58L33.1491 364.262L32.7137 365.943L32.2783 367.625L33.9598 368.06L33.5244 369.742L33.089 371.423L32.6536 373.105L30.9721 372.669L29.2905 372.234L27.609 371.799L25.9275 371.363L24.246 370.928L22.5645 370.492L20.883 370.057L19.2014 369.622L17.3518 369.143L15.6703 368.707L13.9887 368.272L12.3072 367.836L10.6257 367.401L8.94419 366.966L7.26268 366.53L5.58116 366.095L3.89964 365.659L4.33505 363.978L4.77045 362.296L5.20585 360.615L6.88737 361.05L7.32277 359.369L7.75818 357.687L8.19358 356.006L8.62898 354.324L9.06439 352.643L9.54333 350.793L9.97873 349.112L11.6602 349.547L12.0957 347.865L13.7772 348.301L14.2126 346.619L15.8941 347.055L16.3295 345.373L17.9269 345.787L18.3623 344.105L18.7977 342.424L17.1162 341.988L17.5516 340.307L15.702 339.828L16.1374 338.146L14.4558 337.711L14.8912 336.03L13.2097 335.594L13.6451 333.913L14.1241 332.063L14.5595 330.381L14.9949 328.7L15.4303 327.018L15.8657 325.337L16.3011 323.655L14.6196 323.22L15.055 321.538L15.4904 319.857L15.9258 318.175L17.6073 318.611L19.2888 319.046L20.9703 319.482L22.6518 319.917L24.3334 320.352L26.0149 320.788L27.6964 321.223L29.3779 321.659L31.2276 322.138L32.9091 322.573L34.5906 323.008L36.2721 323.444L37.9537 323.879L39.6352 324.315L41.3167 324.75L42.9982 325.185L44.8479 325.664ZM45.501 323.142L43.8195 322.707L42.1379 322.271L40.4564 321.836L38.7749 321.4L37.0934 320.965L35.4119 320.53L33.7304 320.094L32.0488 319.659L30.1992 319.18L28.5177 318.744L26.8361 318.309L25.1546 317.874L23.4731 317.438L21.6234 316.959L19.9419 316.524L18.2604 316.089L16.5789 315.653C15.1496 315.283 13.7736 316.093 13.4035 317.522L12.9681 319.204L12.5327 320.885L12.0973 322.567C11.8143 323.66 12.2474 324.759 13.1692 325.356L12.908 326.365L12.4726 328.047L12.0372 329.728L11.6018 331.41L11.1229 333.259L10.6875 334.941C10.3827 336.118 10.8999 337.239 11.8217 337.836C11.8562 338.742 12.2924 339.483 13.0678 339.953C13.1024 340.859 13.6226 341.622 14.3139 342.07C14.2892 342.512 14.4543 342.914 14.6412 343.232C14.3237 343.418 14.0685 343.711 13.8973 344.026C12.9912 344.06 12.2503 344.496 11.7804 345.272C10.8743 345.306 10.1116 345.827 9.66346 346.518C8.56747 346.593 7.57132 347.322 7.26653 348.499L6.83113 350.18L6.35219 352.03L5.91679 353.712L5.48138 355.393L5.04598 357.075L4.78474 358.084C3.68875 358.159 2.77667 358.909 2.49366 360.002L2.05825 361.684L1.62285 363.365L1.18745 365.047C0.817355 366.476 1.62733 367.852 3.05662 368.222L4.73814 368.658L6.41965 369.093L8.10117 369.528L9.78269 369.964L11.4642 370.399L13.1457 370.835L14.8272 371.27L16.5088 371.705L18.3584 372.184L20.0399 372.62L21.7215 373.055L23.403 373.491L25.0845 373.926L26.766 374.361L28.4475 374.797L30.129 375.232L31.8106 375.668C33.2398 376.038 34.6158 375.228 34.9859 373.798L35.4213 372.117L35.8567 370.435L36.2921 368.754C36.5752 367.661 36.142 366.562 35.2202 365.964L35.4814 364.956L35.9168 363.274L36.3522 361.592L36.7876 359.911L37.2666 358.061L37.702 356.38C38.0068 355.203 37.4896 354.082 36.5677 353.484C36.5332 352.578 36.0971 351.837 35.3216 351.367C35.2871 350.461 34.7669 349.699 34.0755 349.251C34.1003 348.808 33.9351 348.407 33.7482 348.089C34.0657 347.902 34.321 347.61 34.4921 347.295C35.3982 347.261 36.1609 346.74 36.6091 346.049C37.5151 346.014 38.256 345.578 38.726 344.803C39.822 344.728 40.8181 343.999 41.1229 342.822L41.5583 341.14L42.0373 339.291L42.4727 337.609L42.9081 335.928L43.3435 334.246L43.6047 333.237C44.7007 333.162 45.6128 332.411 45.8958 331.318L46.3312 329.637L46.7666 327.955L47.202 326.274C47.7402 324.888 46.9303 323.512 45.501 323.142Z" fill="white"/>
<path d="M26.0226 342.588L24.173 342.109L23.7376 343.79L25.5872 344.269L26.0226 342.588Z" fill="#9847FF"/>
<path d="M33.6183 340.966L33.1829 342.648L31.5014 342.212L31.066 343.894L29.3844 343.458L28.9273 345.224L27.2458 344.789L26.8103 346.47L26.3749 348.152L28.0565 348.587L28.2246 348.631L27.7892 350.312L29.4707 350.748L29.0353 352.429L30.7168 352.864L30.2814 354.546L31.963 354.981L33.6445 355.417L34.0799 353.735L32.3984 353.3L32.8338 351.618L31.1522 351.183L31.5876 349.501L29.9061 349.066L29.738 349.023L30.1734 347.341L30.6088 345.659L32.2903 346.095L32.7475 344.329L34.5131 344.786L34.9485 343.105L36.63 343.54L37.0654 341.859L35.3839 341.423L33.6183 340.966Z" fill="#9847FF"/>
<path d="M28.5746 339.661L26.8931 339.226L26.4577 340.907L28.1392 341.343L28.5746 339.661Z" fill="#9847FF"/>
<path d="M25.0428 338.747L23.3613 338.311L22.9259 339.993L24.6074 340.428L25.0428 338.747Z" fill="#9847FF"/>
<path d="M30.692 338.415L29.0105 337.98L28.5751 339.661L30.2566 340.097L30.692 338.415Z" fill="#9847FF"/>
<path d="M27.3279 337.545L25.4782 337.066L25.0428 338.747L26.8925 339.226L27.3279 337.545Z" fill="#9847FF"/>
<path d="M23.7977 336.63L22.1162 336.195L21.6808 337.876L23.3623 338.312L23.7977 336.63Z" fill="#9847FF"/>
<path d="M32.8517 337.001L31.1701 336.565L30.6912 338.415L32.3727 338.85L32.8517 337.001Z" fill="#9847FF"/>
<path d="M29.4889 336.129L27.8074 335.694L27.3284 337.544L29.0099 337.979L29.4889 336.129Z" fill="#9847FF"/>
<path d="M25.9571 335.216L24.2756 334.781L23.7966 336.63L25.4781 337.066L25.9571 335.216Z" fill="#9847FF"/>
<path d="M22.5946 334.344L20.9131 333.909L20.4341 335.758L22.1156 336.194L22.5946 334.344Z" fill="#9847FF"/>
<path d="M15.7839 332.582L16.2193 330.9L16.6547 329.219L17.0901 327.537L17.5255 325.856L17.9609 324.174L19.6424 324.61L21.3239 325.045L23.0054 325.48L24.6869 325.916L26.3684 326.351L28.05 326.787L29.8996 327.266L31.5812 327.701L33.2627 328.136L34.9442 328.572L36.6257 329.007L38.3072 329.443L39.9887 329.878L39.5533 331.56L39.1179 333.241L38.6825 334.923L38.2471 336.604L37.8117 338.286L37.3328 340.135L36.8974 341.817L38.5789 342.252L39.0143 340.571L39.4932 338.721L39.9286 337.039L40.364 335.358L40.7994 333.676L41.2348 331.995L41.6703 330.313L43.3518 330.749L43.8089 328.983L44.2443 327.302L44.6797 325.62L42.9982 325.185L41.3167 324.749L39.6352 324.314L37.9537 323.879L36.2722 323.443L34.5906 323.008L32.9091 322.572L31.2276 322.137L29.3779 321.658L27.6964 321.223L26.0149 320.787L24.3334 320.352L22.6519 319.916L20.9704 319.481L19.2888 319.046L17.6073 318.61L15.9258 318.175L15.4904 319.856L15.055 321.538L14.6196 323.219L16.3011 323.655L15.8657 325.336L15.4303 327.018L14.9949 328.699L14.5595 330.381L14.1241 332.062L13.6452 333.912L13.2098 335.594L14.8913 336.029L15.3267 334.347L15.7839 332.582ZM17.1719 320.292L18.8534 320.727L20.535 321.163L22.2165 321.598L23.898 322.033L25.5795 322.469L27.261 322.904L28.9425 323.34L30.7922 323.818L32.4737 324.254L34.1552 324.689L35.8368 325.125L37.5183 325.56L39.1998 325.996L40.8813 326.431L42.5628 326.866L42.1274 328.548L40.4459 328.112L38.7644 327.677L37.0829 327.242L35.4014 326.806L33.7198 326.371L32.0383 325.935L30.3568 325.5L28.5071 325.021L26.8256 324.586L25.1441 324.15L23.4626 323.715L21.7811 323.279L20.0996 322.844L18.418 322.409L16.7365 321.973L17.1719 320.292Z" fill="#9847FF"/>
<path d="M14.8965 350.564L15.3319 348.882L17.0134 349.318L17.4488 347.636L19.1304 348.072L19.5658 346.39L21.1632 346.804L21.5986 345.122L22.034 343.441L20.3525 343.005L20.8097 341.24L19.1282 340.804L19.5636 339.123L17.882 338.687L18.3174 337.006L16.5518 336.549L14.8703 336.113L14.4349 337.795L16.1164 338.23L15.681 339.912L17.4466 340.369L16.9895 342.135L18.671 342.57L18.2356 344.252L17.8002 345.933L16.2027 345.519L15.7673 347.201L14.0858 346.766L13.6504 348.447L11.9689 348.012L11.5335 349.693L13.215 350.129L14.8965 350.564Z" fill="#9847FF"/>
<path d="M23.12 354.487L21.2703 354.008L20.7914 355.858L22.641 356.337L23.12 354.487Z" fill="#9847FF"/>
<path d="M20.7087 355.836L19.0272 355.401L18.5918 357.082L20.2733 357.518L20.7087 355.836Z" fill="#9847FF"/>
<path d="M24.2385 356.751L22.557 356.315L22.1216 357.997L23.8031 358.432L24.2385 356.751Z" fill="#9847FF"/>
<path d="M18.5907 357.082L16.9092 356.646L16.4738 358.328L18.1553 358.763L18.5907 357.082Z" fill="#9847FF"/>
<path d="M22.2067 358.018L20.357 357.539L19.9216 359.221L21.7713 359.7L22.2067 358.018Z" fill="#9847FF"/>
<path d="M25.4853 358.867L23.8037 358.431L23.3683 360.113L25.0499 360.548L25.4853 358.867Z" fill="#9847FF"/>
<path d="M16.4747 358.328L14.7932 357.893L14.3578 359.575L16.0393 360.01L16.4747 358.328Z" fill="#9847FF"/>
<path d="M19.8375 359.199L18.1559 358.763L17.7205 360.445L19.4021 360.88L19.8375 359.199Z" fill="#9847FF"/>
<path d="M23.3687 360.113L21.6872 359.678L21.2518 361.359L22.9333 361.795L23.3687 360.113Z" fill="#9847FF"/>
<path d="M26.8149 361.005L25.1334 360.57L24.698 362.252L26.3795 362.687L26.8149 361.005Z" fill="#9847FF"/>
<path d="M14.3573 359.574L12.6758 359.139L12.2404 360.82L13.9219 361.256L14.3573 359.574Z" fill="#9847FF"/>
<path d="M17.72 360.445L16.0385 360.01L15.6031 361.691L17.2846 362.126L17.72 360.445Z" fill="#9847FF"/>
<path d="M21.3353 361.381L19.4857 360.902L19.0503 362.583L20.8999 363.062L21.3353 361.381Z" fill="#9847FF"/>
<path d="M24.6144 362.23L22.9329 361.795L22.4975 363.476L24.179 363.912L24.6144 362.23Z" fill="#9847FF"/>
<path d="M28.0622 363.123L26.3807 362.687L25.9453 364.369L27.6268 364.804L28.0622 363.123Z" fill="#9847FF"/>
<path d="M32.2136 367.877L32.649 366.195L33.0844 364.514L33.5198 362.832L33.9552 361.151L34.3906 359.469L34.8696 357.619L35.305 355.938L33.6235 355.503L33.1881 357.184L32.7091 359.034L32.2737 360.715L31.8383 362.397L31.4029 364.078L30.9675 365.76L30.5321 367.441L28.8506 367.006L29.286 365.324L27.6045 364.889L27.1691 366.571L25.4876 366.135L25.923 364.454L24.2415 364.018L23.806 365.7L22.1245 365.264L22.5599 363.583L20.8784 363.147L20.443 364.829L18.5933 364.35L19.0287 362.668L17.3472 362.233L16.9118 363.915L15.2303 363.479L15.6657 361.798L13.9842 361.362L13.5488 363.044L11.8673 362.608L12.3027 360.927L10.6212 360.491L10.1858 362.173L8.50425 361.738L8.93965 360.056L9.37505 358.375L9.81046 356.693L10.2459 355.011L10.6813 353.33L11.1602 351.48L11.5956 349.799L9.91409 349.363L9.47869 351.045L8.99974 352.895L8.56434 354.576L8.12894 356.258L7.69354 357.939L7.25813 359.621L6.82273 361.302L5.14121 360.867L4.70581 362.548L4.27041 364.23L3.835 365.911L5.51652 366.347L7.19804 366.782L8.87955 367.218L10.5611 367.653L12.2426 368.088L13.9241 368.524L15.6056 368.959L17.2871 369.395L19.1368 369.873L20.8183 370.309L22.4998 370.744L24.1814 371.18L25.8629 371.615L27.5444 372.05L29.2259 372.486L30.9074 372.921L32.5889 373.357L33.0243 371.675L33.4597 369.994L33.8951 368.312L32.2136 367.877ZM31.3428 371.24L29.6613 370.804L27.9798 370.369L26.2983 369.934L24.6168 369.498L22.9352 369.063L21.2537 368.627L19.5722 368.192L17.7225 367.713L16.041 367.278L14.3595 366.842L12.678 366.407L10.9965 365.971L9.31496 365.536L7.63344 365.101L5.95192 364.665L6.38733 362.984L8.06884 363.419L9.75036 363.854L11.4319 364.29L13.1134 364.725L14.7949 365.161L16.4764 365.596L18.1579 366.031L20.0076 366.51L21.6891 366.946L23.3706 367.381L25.0522 367.817L26.7337 368.252L28.4152 368.687L30.0967 369.123L31.7782 369.558L31.3428 371.24Z" fill="#9847FF"/>
</g>
<g filter="url(#filter4_d_0_1)">
<path d="M884.392 434.314C884.072 434.362 883.747 434.285 883.482 434.099C883.218 433.913 883.035 433.633 882.972 433.316L879.077 433.909C878.914 433.935 878.748 433.928 878.588 433.888C878.428 433.849 878.277 433.779 878.144 433.681C878.012 433.583 877.899 433.461 877.814 433.319C877.729 433.178 877.673 433.022 877.649 432.859L876.869 427.739C876.819 427.41 876.901 427.075 877.098 426.807C877.295 426.539 877.591 426.361 877.919 426.311L881.814 425.717L881.662 424.719C881.612 424.39 881.695 424.055 881.892 423.787C882.089 423.519 882.384 423.341 882.713 423.291L886.608 422.697L886.24 420.282C886.19 419.954 886.273 419.619 886.47 419.351C886.667 419.083 886.962 418.904 887.291 418.854L890.046 418.435L889.552 415.191C889.501 414.863 889.584 414.527 889.781 414.26C889.978 413.992 890.273 413.813 890.602 413.763L892.865 413.419L892.271 409.524C892.221 409.195 892.304 408.86 892.501 408.592C892.698 408.324 892.993 408.146 893.322 408.095L895.092 407.826L894.499 403.931C894.449 403.602 894.532 403.267 894.729 402.999C894.926 402.731 895.221 402.553 895.55 402.503L897.756 402.167L897.288 399.097C897.238 398.768 897.321 398.433 897.518 398.165C897.715 397.897 898.01 397.719 898.339 397.669L900.768 397.299L900.255 393.931C900.205 393.603 900.287 393.267 900.484 393C900.681 392.732 900.977 392.553 901.305 392.503L904.8 391.971L904.153 387.722C904.103 387.393 904.186 387.058 904.383 386.79C904.58 386.522 904.875 386.344 905.204 386.294L908.762 385.752L908.561 384.431C908.511 384.102 908.594 383.767 908.791 383.499C908.988 383.231 909.283 383.053 909.612 383.003L914.735 382.222C915.064 382.172 915.399 382.255 915.667 382.452C915.935 382.649 916.113 382.944 916.164 383.273L916.365 384.594L919.906 384.054C920.234 384.004 920.569 384.087 920.837 384.284C921.105 384.481 921.284 384.776 921.334 385.105L921.533 386.411L924.695 385.93C925.024 385.88 925.359 385.962 925.626 386.159C925.894 386.356 926.073 386.652 926.123 386.98L926.43 388.999L929.334 388.556C929.663 388.506 929.998 388.589 930.266 388.786C930.533 388.983 930.712 389.278 930.762 389.607L931.414 393.888L932.724 393.688C933.053 393.638 933.388 393.721 933.656 393.918C933.924 394.115 934.102 394.41 934.152 394.739L934.932 399.859C934.982 400.188 934.9 400.523 934.703 400.791C934.506 401.059 934.21 401.237 933.882 401.287L931.626 401.631L932.102 404.754C932.127 404.917 932.12 405.083 932.081 405.243C932.041 405.403 931.971 405.554 931.873 405.686C931.776 405.819 931.653 405.931 931.512 406.016C931.371 406.101 931.214 406.158 931.051 406.182L927.719 406.69L927.921 408.014C927.971 408.343 927.888 408.678 927.691 408.945C927.494 409.213 927.199 409.392 926.87 409.442L921.747 410.222C921.418 410.272 921.083 410.19 920.815 409.993C920.547 409.796 920.369 409.5 920.318 409.172L920.233 408.609L916.908 409.115C916.579 409.165 916.244 409.083 915.976 408.886C915.708 408.689 915.53 408.393 915.48 408.065L915.166 406.004L915.095 406.015L915.378 407.87C915.428 408.199 915.345 408.534 915.148 408.802C914.951 409.07 914.656 409.248 914.327 409.298L913.973 409.352L914.23 411.038L914.584 410.984C914.912 410.934 915.248 411.016 915.515 411.213C915.783 411.41 915.962 411.706 916.012 412.034L916.504 415.267L918.423 414.975C918.752 414.925 919.087 415.007 919.355 415.204C919.623 415.401 919.801 415.697 919.852 416.025L920.017 417.112L923.176 416.631C923.504 416.581 923.839 416.664 924.107 416.861C924.375 417.058 924.554 417.353 924.604 417.682L924.773 418.794L928.094 418.288C928.423 418.238 928.758 418.32 929.026 418.517C929.294 418.714 929.472 419.01 929.522 419.338L929.63 420.047L931.865 419.706L931.723 418.779C931.673 418.45 931.756 418.115 931.953 417.847C932.15 417.579 932.445 417.4 932.774 417.35L937.544 416.624C937.872 416.574 938.207 416.656 938.475 416.853C938.743 417.05 938.922 417.346 938.972 417.675L939.688 422.377C939.738 422.706 939.655 423.041 939.458 423.308C939.261 423.576 938.966 423.755 938.637 423.805L935.096 424.344L935.238 425.272C935.288 425.601 935.205 425.936 935.008 426.204C934.811 426.471 934.516 426.65 934.187 426.7L884.392 434.314Z" fill="#9847FF"/>
<path d="M914.917 383.485L915.307 386.045L920.091 385.316L920.477 387.851L924.878 387.181L925.374 390.439L929.517 389.808L930.358 395.328L932.915 394.939L933.694 400.059L930.199 400.591L930.864 404.953L926.293 405.65L926.683 408.213L921.559 408.994L921.285 407.191L916.721 407.887L916.218 404.586L913.668 404.975L914.14 408.07L912.55 408.312L913.184 412.476L914.774 412.234L915.455 416.706L918.614 416.225L918.968 418.551L923.366 417.881L923.724 420.233L928.285 419.538L928.582 421.492L933.295 420.775L932.965 418.608L937.735 417.881L938.451 422.583L933.682 423.31L934.012 425.477L884.201 433.064L884.021 431.877L878.901 432.657L878.121 427.537L883.241 426.757L882.9 424.519L888.027 423.738L887.471 420.084L891.465 419.476L890.782 414.993L894.284 414.46L893.506 409.35L896.519 408.891L895.739 403.771L899.185 403.246L898.528 398.937L902.197 398.378L901.496 393.775L906.23 393.054L905.393 387.558L910.191 386.828L909.801 384.267L914.924 383.487L914.917 383.485ZM914.547 381.008L909.423 381.789C908.766 381.889 908.175 382.246 907.781 382.782C907.387 383.317 907.222 383.988 907.322 384.645L907.334 384.726L905.015 385.08C904.358 385.18 903.767 385.537 903.373 386.073C902.979 386.608 902.814 387.278 902.914 387.936L903.374 390.953L901.118 391.296C900.461 391.396 899.87 391.754 899.476 392.289C899.082 392.825 898.917 393.495 899.017 394.152L899.341 396.277L898.154 396.458C897.497 396.558 896.906 396.915 896.512 397.451C896.118 397.986 895.953 398.656 896.053 399.314L896.332 401.145L895.362 401.292C894.704 401.392 894.114 401.75 893.72 402.285C893.326 402.821 893.161 403.491 893.261 404.149L893.663 406.79L893.128 406.871C892.471 406.972 891.88 407.329 891.486 407.864C891.092 408.4 890.927 409.07 891.027 409.728L891.43 412.369L890.406 412.525C889.749 412.625 889.158 412.982 888.764 413.518C888.37 414.054 888.205 414.724 888.305 415.381L888.61 417.385L887.095 417.616C886.437 417.716 885.847 418.074 885.453 418.609C885.059 419.145 884.894 419.815 884.994 420.472L885.173 421.648L882.531 422.05C881.913 422.141 881.351 422.46 880.956 422.944C880.56 423.428 880.36 424.042 880.393 424.666L877.741 425.07C877.084 425.17 876.493 425.527 876.099 426.063C875.705 426.598 875.54 427.268 875.64 427.926L876.42 433.046C876.52 433.703 876.877 434.294 877.413 434.688C877.949 435.082 878.619 435.247 879.276 435.147L882.282 434.689C882.56 435.019 882.918 435.272 883.322 435.423C883.726 435.574 884.162 435.618 884.588 435.552L934.38 427.968C934.988 427.88 935.542 427.573 935.938 427.104C936.334 426.635 936.544 426.037 936.529 425.423L938.837 425.072C939.495 424.971 940.086 424.614 940.48 424.079C940.874 423.543 941.039 422.873 940.939 422.215L940.222 417.513C940.122 416.856 939.765 416.265 939.229 415.871C938.694 415.477 938.024 415.312 937.366 415.412L932.597 416.138C932.535 416.665 932.308 417.159 931.949 417.549C931.589 417.938 931.115 418.204 930.595 418.308C930.075 418.411 929.535 418.347 929.054 418.124C928.572 417.902 928.174 417.532 927.916 417.069L925.83 417.386C925.701 416.756 925.334 416.2 924.806 415.833C924.278 415.465 923.629 415.315 922.994 415.413L921.089 415.703C920.954 415.078 920.585 414.529 920.059 414.166C919.532 413.804 918.887 413.657 918.256 413.754L917.576 413.858L917.272 411.864C917.186 411.296 916.907 410.774 916.482 410.387C916.693 410.41 916.907 410.405 917.117 410.373L919.274 410.045C919.5 410.541 919.882 410.95 920.361 411.21C920.841 411.47 921.392 411.566 921.931 411.484L927.055 410.704C927.713 410.604 928.303 410.246 928.697 409.711C929.091 409.175 929.256 408.505 929.156 407.847L929.143 407.763L931.236 407.444C931.893 407.344 932.484 406.987 932.878 406.451C933.272 405.915 933.437 405.245 933.337 404.588L933.05 402.704L934.074 402.548C934.731 402.448 935.322 402.091 935.716 401.555C936.11 401.019 936.275 400.349 936.175 399.692L935.395 394.572C935.295 393.914 934.938 393.324 934.402 392.93C933.866 392.535 933.196 392.37 932.539 392.47L932.457 392.483L931.994 389.441C931.894 388.784 931.537 388.193 931.001 387.799C930.465 387.405 929.795 387.24 929.138 387.34L927.474 387.594L927.353 386.804C927.253 386.147 926.896 385.556 926.36 385.162C925.825 384.768 925.154 384.603 924.497 384.703L922.574 384.996L922.564 384.928C922.464 384.271 922.107 383.68 921.571 383.286C921.036 382.892 920.365 382.727 919.708 382.827L917.403 383.178L917.39 383.097C917.29 382.44 916.933 381.849 916.397 381.455C915.862 381.061 915.192 380.896 914.534 380.996L914.547 381.008Z" fill="white"/>
<path d="M932.953 418.624L933.283 420.791L928.57 421.509L928.272 419.551L923.708 420.246L923.35 417.895L918.973 418.561L918.619 416.235L915.464 416.715L914.783 412.243L913.189 412.486L912.555 408.322L914.149 408.079L913.677 404.984L916.227 404.596L916.729 407.896L921.294 407.201L921.568 409.003L926.688 408.223L926.298 405.663L930.873 404.966L930.208 400.601L933.703 400.068L932.923 394.948L930.36 395.339L929.519 389.822L925.38 390.452L924.884 387.195L920.479 387.865L920.091 385.316L915.307 386.045L914.917 383.485L909.797 384.264L910.187 386.825L905.385 387.556L906.222 393.051L901.488 393.772L902.19 398.383L898.525 398.941L899.181 403.247L895.732 403.772L896.512 408.892L893.499 409.351L894.279 414.475L890.777 415.008L891.459 419.488L887.469 420.095L888.025 423.75L882.902 424.53L883.242 426.768L878.122 427.548L878.903 432.672L884.023 431.892L884.203 433.074L928.879 426.27L933.999 425.49L933.669 423.323L938.435 422.597L937.719 417.898L932.953 418.624Z" fill="#E4D1FF"/>
<path d="M883.242 426.768L878.122 427.548L878.902 432.668L884.022 431.888L883.242 426.768Z" fill="#9847FF"/>
<path d="M888.022 423.75L882.902 424.53L883.682 429.65L888.802 428.87L888.022 423.75Z" fill="#9847FF"/>
<path d="M892.589 419.315L887.469 420.095L888.248 425.216L893.369 424.436L892.589 419.315Z" fill="#9847FF"/>
<path d="M895.897 414.225L890.777 415.005L891.557 420.125L896.677 419.345L895.897 414.225Z" fill="#9847FF"/>
<path d="M898.619 408.571L893.499 409.351L894.279 414.471L899.399 413.692L898.619 408.571Z" fill="#9847FF"/>
<path d="M900.852 402.992L895.732 403.772L896.512 408.892L901.632 408.112L900.852 402.992Z" fill="#9847FF"/>
<path d="M903.645 398.161L898.525 398.941L899.305 404.061L904.425 403.281L903.645 398.161Z" fill="#9847FF"/>
<path d="M906.608 392.993L901.488 393.772L902.268 398.893L907.388 398.113L906.608 392.993Z" fill="#9847FF"/>
<path d="M910.505 386.776L905.385 387.556L906.421 394.358L911.541 393.578L910.505 386.776Z" fill="#9847FF"/>
<path d="M914.917 383.485L909.797 384.264L910.576 389.385L915.697 388.605L914.917 383.485Z" fill="#9847FF"/>
<path d="M920.09 385.316L915.307 386.045L916.086 391.165L920.87 390.436L920.09 385.316Z" fill="#9847FF"/>
<path d="M924.884 387.195L920.1 387.923L920.88 393.044L925.664 392.315L924.884 387.195Z" fill="#9847FF"/>
<path d="M929.519 389.818L924.735 390.547L925.66 396.62L930.443 395.891L929.519 389.818Z" fill="#9847FF"/>
<path d="M930.093 399.843L924.973 400.623L925.753 405.743L930.873 404.963L930.093 399.843Z" fill="#9847FF"/>
<path d="M932.92 394.949L927.8 395.728L928.58 400.849L933.7 400.069L932.92 394.949Z" fill="#9847FF"/>
<path d="M925.908 403.1L920.788 403.88L921.567 409L926.688 408.22L925.908 403.1Z" fill="#9847FF"/>
<path d="M921.069 401.993L915.949 402.772L916.729 407.893L921.849 407.113L921.069 401.993Z" fill="#9847FF"/>
<path d="M916.052 399.38L910.932 400.16L911.712 405.28L916.832 404.5L916.052 399.38Z" fill="#9847FF"/>
<path d="M913.433 403.381L908.313 404.16L909.028 408.859L914.149 408.079L913.433 403.381Z" fill="#9847FF"/>
<path d="M912.474 407.787L907.353 408.567L908.069 413.266L913.189 412.486L912.474 407.787Z" fill="#9847FF"/>
<path d="M914.783 412.243L909.662 413.023L910.378 417.722L915.498 416.942L914.783 412.243Z" fill="#9847FF"/>
<path d="M918.619 416.235L913.499 417.015L914.214 421.714L919.335 420.934L918.619 416.235Z" fill="#9847FF"/>
<path d="M923.35 417.895L918.229 418.675L918.945 423.373L924.065 422.594L923.35 417.895Z" fill="#9847FF"/>
<path d="M928.268 419.551L923.148 420.331L923.864 425.03L928.984 424.25L928.268 419.551Z" fill="#9847FF"/>
<path d="M933.284 420.791L928.163 421.571L928.879 426.27L933.999 425.49L933.284 420.791Z" fill="#9847FF"/>
<path d="M937.719 417.898L932.953 418.624L933.669 423.323L938.435 422.597L937.719 417.898Z" fill="#9847FF"/>
</g>
<g filter="url(#filter5_d_0_1)">
<path d="M8.50851 47.341C8.3051 47.3002 8.12521 47.1826 8.00616 47.0127C7.88712 46.8428 7.83806 46.6336 7.86918 46.4285L5.38798 45.9355C5.28416 45.9152 5.18535 45.8745 5.0973 45.8159C5.00924 45.7573 4.93368 45.6818 4.87489 45.5939C4.81609 45.5059 4.77525 45.4072 4.75474 45.3034C4.73423 45.1996 4.73445 45.0928 4.75537 44.9891L5.40343 41.7275C5.44504 41.5181 5.56812 41.3338 5.74559 41.2152C5.92306 41.0966 6.14039 41.0533 6.34977 41.0949L8.83097 41.5879L8.95737 40.9518C8.99897 40.7424 9.12205 40.5581 9.29952 40.4395C9.47699 40.3209 9.69432 40.2776 9.9037 40.3192L12.3849 40.8122L12.6906 39.2738C12.7322 39.0645 12.8552 38.8802 13.0327 38.7615C13.2102 38.6429 13.4275 38.5996 13.6369 38.6412L15.3918 38.9899L15.8023 36.9237C15.8439 36.7144 15.967 36.5301 16.1445 36.4115C16.322 36.2928 16.5393 36.2495 16.7487 36.2911L18.19 36.5775L18.683 34.0963C18.7246 33.8869 18.8477 33.7027 19.0252 33.584C19.2026 33.4654 19.42 33.4221 19.6293 33.4637L20.7572 33.6878L21.2502 31.2066C21.2918 30.9972 21.4148 30.8129 21.5923 30.6943C21.7698 30.5757 21.9871 30.5324 22.1965 30.574L23.6017 30.8532L23.9903 28.8976C24.0319 28.6882 24.155 28.5039 24.3325 28.3853C24.5099 28.2667 24.7273 28.2234 24.9367 28.265L26.484 28.5724L26.9103 26.4273C26.9519 26.2179 27.075 26.0337 27.2524 25.915C27.4299 25.7964 27.6472 25.7531 27.8566 25.7947L30.0829 26.2371L30.6207 23.5303C30.6623 23.3209 30.7854 23.1366 30.9629 23.018C31.1403 22.8994 31.3577 22.8561 31.567 22.8977L33.834 23.3481L34.0011 22.5068C34.0428 22.2974 34.1658 22.1131 34.3433 21.9944C34.5208 21.8758 34.7381 21.8325 34.9475 21.8741L38.2114 22.5227C38.4208 22.5643 38.605 22.6873 38.7237 22.8648C38.8423 23.0423 38.8856 23.2596 38.844 23.469L38.6768 24.3103L40.9325 24.7585C41.1418 24.8001 41.3261 24.9232 41.4448 25.1007C41.5634 25.2782 41.6067 25.4955 41.5651 25.7049L41.3997 26.5372L43.414 26.9374C43.6234 26.979 43.8077 27.1021 43.9263 27.2796C44.045 27.457 44.0882 27.6744 44.0466 27.8838L43.7912 29.1695L45.6408 29.537C45.8502 29.5786 46.0344 29.7016 46.1531 29.8791C46.2717 30.0566 46.315 30.274 46.2734 30.4833L45.7315 33.2104L46.5661 33.3762C46.7755 33.4178 46.9598 33.5409 47.0784 33.7184C47.197 33.8958 47.2403 34.1132 47.1987 34.3226L46.5507 37.5842C46.5091 37.7936 46.386 37.9779 46.2085 38.0965C46.031 38.2151 45.8137 38.2584 45.6043 38.2168L44.1674 37.9313L43.7721 39.9208C43.7518 40.0246 43.7112 40.1234 43.6526 40.2115C43.5939 40.2995 43.5185 40.3751 43.4306 40.4339C43.3426 40.4927 43.2439 40.5335 43.1401 40.554C43.0364 40.5745 42.9295 40.5743 42.8258 40.5534L40.7033 40.1317L40.5357 40.9753C40.4941 41.1847 40.371 41.3689 40.1935 41.4876C40.016 41.6062 39.7987 41.6495 39.5893 41.6079L36.3254 40.9594C36.116 40.9178 35.9318 40.7947 35.8131 40.6172C35.6945 40.4397 35.6512 40.2224 35.6928 40.013L35.7641 39.6544L33.6461 39.2335C33.4367 39.1919 33.2523 39.0689 33.1337 38.8914C33.0151 38.7139 32.9718 38.4966 33.0134 38.2872L33.2743 36.9744L33.2291 36.9655L32.9943 38.1474C32.9527 38.3568 32.8296 38.5411 32.6521 38.6597C32.4747 38.7783 32.2573 38.8216 32.0479 38.78L31.8224 38.7352L31.609 39.8089L31.8346 39.8537C32.044 39.8953 32.2283 40.0184 32.3469 40.1959C32.4655 40.3733 32.5088 40.5907 32.4672 40.8L32.058 42.8594L33.2806 43.1024C33.49 43.144 33.6743 43.267 33.7929 43.4445C33.9115 43.622 33.9548 43.8393 33.9132 44.0487L33.7756 44.7412L35.7877 45.1409C35.997 45.1825 36.1813 45.3056 36.2999 45.4831C36.4186 45.6606 36.4619 45.8779 36.4203 46.0873L36.2795 46.7955L38.3953 47.2159C38.6047 47.2575 38.789 47.3806 38.9076 47.5581C39.0263 47.7356 39.0695 47.9529 39.0279 48.1623L38.9383 48.6134L40.3616 48.8962L40.479 48.3052C40.5206 48.0959 40.6437 47.9116 40.8212 47.7929C40.9986 47.6743 41.216 47.631 41.4253 47.6726L44.4637 48.2763C44.6731 48.3179 44.8573 48.441 44.976 48.6185C45.0946 48.796 45.1379 49.0133 45.0963 49.2227L44.5011 52.2182C44.4595 52.4275 44.3364 52.6118 44.159 52.7304C43.9815 52.8491 43.7642 52.8924 43.5548 52.8508L41.2991 52.4026L41.1817 52.9936C41.1401 53.2029 41.017 53.3872 40.8396 53.5059C40.6621 53.6245 40.4448 53.6678 40.2354 53.6262L8.50851 47.341Z" fill="#9847FF"/>
<path d="M38.0451 23.3244L37.7211 24.9552L40.7685 25.5607L40.4476 27.1757L43.2514 27.7328L42.839 29.808L45.4781 30.3324L44.7794 33.849L46.408 34.1725L45.7599 37.4342L43.5336 36.9918L42.9814 39.7708L40.0694 39.1922L39.7449 40.8253L36.481 40.1767L36.7091 39.0286L33.8016 38.4509L34.2193 36.3487L32.5952 36.026L32.2035 37.9974L31.1907 37.7962L30.6637 40.4488L31.6765 40.65L31.1104 43.4989L33.1225 43.8987L32.828 45.3806L35.6295 45.9373L35.3319 47.435L38.2371 48.0123L37.9898 49.2574L40.992 49.8539L41.2663 48.4735L44.3046 49.0772L43.7095 52.0727L40.6711 51.469L40.3968 52.8494L8.66678 46.5448L8.81693 45.7892L5.55528 45.1411L6.20335 41.8795L9.465 42.5275L9.74825 41.102L13.0144 41.7509L13.4769 39.4231L16.0213 39.9287L16.5887 37.073L18.8195 37.5163L19.4662 34.2614L21.3858 34.6428L22.0338 31.3811L24.2286 31.8172L24.774 29.0721L27.1109 29.5364L27.6935 26.6041L30.7093 27.2033L31.4049 23.7026L34.4613 24.3098L34.7853 22.679L38.0492 23.3275L38.0451 23.3244ZM38.3629 21.7486L35.099 21.1001C34.6803 21.0169 34.2456 21.1034 33.8907 21.3407C33.5357 21.578 33.2896 21.9465 33.2063 22.3653L33.196 22.4172L31.7186 22.1236C31.2998 22.0404 30.8652 22.127 30.5102 22.3642C30.1553 22.6015 29.9091 22.9701 29.8259 23.3888L29.4441 25.3106L28.0072 25.0251C27.5885 24.9419 27.1538 25.0285 26.7989 25.2658C26.4439 25.5031 26.1978 25.8716 26.1146 26.2904L25.8457 27.6438L25.09 27.4936C24.6712 27.4104 24.2366 27.497 23.8816 27.7342C23.5267 27.9715 23.2805 28.3401 23.1973 28.7588L22.9656 29.925L22.3476 29.8022C21.9288 29.719 21.4942 29.8055 21.1392 30.0428C20.7843 30.2801 20.5381 30.6487 20.4549 31.0674L20.1206 32.7501L19.78 32.6824C19.3612 32.5992 18.9265 32.6858 18.5716 32.9231C18.2166 33.1604 17.9705 33.5289 17.8873 33.9477L17.5529 35.6304L16.9011 35.5008C16.4823 35.4176 16.0477 35.5042 15.6927 35.7415C15.3378 35.9787 15.0916 36.3473 15.0084 36.7661L14.7547 38.0428L13.7893 37.8509C13.3706 37.7677 12.9359 37.8543 12.5809 38.0916C12.226 38.3288 11.9798 38.6974 11.8966 39.1162L11.7478 39.865L10.0651 39.5307C9.67202 39.4506 9.26316 39.5203 8.91869 39.7259C8.57423 39.9316 8.31898 40.2585 8.20295 40.6425L6.51348 40.3068C6.09471 40.2236 5.66006 40.3102 5.30511 40.5475C4.95017 40.7847 4.70401 41.1533 4.6208 41.5721L3.97273 44.8337C3.88953 45.2525 3.97609 45.6871 4.21336 46.0421C4.45064 46.397 4.81919 46.6432 5.23795 46.7264L7.15299 47.1069C7.24853 47.3667 7.40944 47.5975 7.62022 47.777C7.83099 47.9564 8.0845 48.0785 8.35623 48.1314L40.075 54.4338C40.4609 54.5136 40.8628 54.4492 41.2043 54.2526C41.5459 54.0559 41.8034 53.7409 41.9282 53.367L43.3989 53.6592C43.8177 53.7425 44.2523 53.6559 44.6073 53.4186C44.9622 53.1814 45.2084 52.8128 45.2916 52.394L45.8868 49.3986C45.97 48.9798 45.8834 48.5451 45.6461 48.1902C45.4089 47.8352 45.0403 47.5891 44.6215 47.5059L41.5832 46.9022C41.431 47.2068 41.1862 47.4553 40.8839 47.612C40.5816 47.7688 40.2374 47.8256 39.9007 47.7743C39.5641 47.7231 39.2524 47.5664 39.0104 47.3268C38.7684 47.0872 38.6086 46.7771 38.554 46.441L37.2255 46.177C37.285 45.7683 37.1852 45.3524 36.9468 45.0153C36.7083 44.6781 36.3493 44.4455 35.9441 44.3655L34.7306 44.1244C34.7857 43.7178 34.6835 43.3054 34.4447 42.9717C34.206 42.6379 33.8487 42.408 33.4461 42.3287L33.013 42.2427L33.2654 40.9728C33.3375 40.6107 33.2831 40.2348 33.1111 39.9081C33.2337 39.9684 33.3637 40.0124 33.4978 40.0389L34.8715 40.3118C34.8996 40.6609 35.0407 40.9913 35.2735 41.2529C35.5063 41.5145 35.818 41.6931 36.1614 41.7615L39.4253 42.4101C39.8441 42.4933 40.2787 42.4067 40.6337 42.1695C40.9886 41.9322 41.2348 41.5636 41.318 41.1448L41.3287 41.0907L42.6619 41.3556C43.0806 41.4388 43.5153 41.3523 43.8702 41.115C44.2252 40.8777 44.4713 40.5091 44.5545 40.0904L44.793 38.8904L45.4448 39.0199C45.8636 39.1031 46.2982 39.0165 46.6532 38.7793C47.0081 38.542 47.2543 38.1734 47.3375 37.7547L47.9856 34.493C48.0688 34.0742 47.9822 33.6396 47.7449 33.2846C47.5077 32.9297 47.1391 32.6835 46.7204 32.6003L46.6685 32.59L47.0535 30.6524C47.1367 30.2337 47.0501 29.799 46.8128 29.4441C46.5756 29.0891 46.207 28.843 45.7882 28.7598L44.7281 28.5491L44.8281 28.0461C44.9113 27.6274 44.8247 27.1927 44.5874 26.8378C44.3501 26.4828 43.9816 26.2367 43.5628 26.1534L42.338 25.9101L42.3465 25.8672C42.4297 25.4485 42.3432 25.0138 42.1059 24.6589C41.8686 24.3039 41.5 24.0578 41.0813 23.9746L39.6129 23.6828L39.6232 23.6309C39.7064 23.2121 39.6199 22.7775 39.3826 22.4225C39.1453 22.0676 38.7767 21.8214 38.3579 21.7382L38.3629 21.7486Z" fill="white"/>
<path d="M41.2552 48.4807L40.9809 49.8611L37.9787 49.2646L38.2265 48.0172L35.319 47.4395L35.6166 45.9418L32.8286 45.3878L33.1231 43.9059L31.1133 43.5066L31.6794 40.6577L30.6643 40.456L31.1914 37.8034L32.2064 38.0051L32.5981 36.0336L34.2222 36.3563L33.8045 38.4586L36.712 39.0363L36.4839 40.1844L39.7455 40.8325L40.0696 39.2016L42.9839 39.7807L43.5365 36.9995L45.7628 37.4418L46.4109 34.1802L44.7778 33.8557L45.476 30.3414L42.8392 29.8175L43.2515 27.7423L40.4455 27.1848L40.7682 25.5607L37.7208 24.9552L38.0449 23.3244L34.7832 22.6763L34.4592 24.3072L31.4005 23.6994L30.705 27.2002L27.6892 26.6009L27.1056 29.5378L24.7711 29.0739L24.2261 31.8168L22.0291 31.3802L21.381 34.6419L19.4615 34.2605L18.8129 37.5244L16.5821 37.0812L16.0152 39.9345L13.4731 39.4294L13.0105 41.7573L9.74662 41.1087L9.46337 42.5343L6.20172 41.8862L5.5532 45.1501L8.81485 45.7982L8.66516 46.5516L37.1246 52.2063L40.3862 52.8544L40.6605 51.4739L43.6966 52.0772L44.2913 49.0839L41.2552 48.4807Z" fill="#E4D1FF"/>
<path d="M9.4635 42.5343L6.20184 41.8862L5.55377 45.1479L8.81543 45.796L9.4635 42.5343Z" fill="#9847FF"/>
<path d="M13.0083 41.7567L9.74664 41.1086L9.09857 44.3703L12.3602 45.0184L13.0083 41.7567Z" fill="#9847FF"/>
<path d="M16.7347 40.0774L13.4731 39.4293L12.825 42.691L16.0867 43.339L16.7347 40.0774Z" fill="#9847FF"/>
<path d="M19.8447 37.7273L16.583 37.0792L15.9349 40.3409L19.1966 40.9889L19.8447 37.7273Z" fill="#9847FF"/>
<path d="M22.7235 34.9084L19.4619 34.2603L18.8138 37.522L22.0755 38.17L22.7235 34.9084Z" fill="#9847FF"/>
<path d="M25.2908 32.0281L22.0291 31.3801L21.381 34.6417L24.6427 35.2898L25.2908 32.0281Z" fill="#9847FF"/>
<path d="M28.033 29.722L24.7713 29.0739L24.1232 32.3356L27.3849 32.9836L28.033 29.722Z" fill="#9847FF"/>
<path d="M30.9513 27.2491L27.6896 26.6011L27.0415 29.8627L30.3032 30.5108L30.9513 27.2491Z" fill="#9847FF"/>
<path d="M34.6622 24.3475L31.4005 23.6995L30.5396 28.0325L33.8012 28.6806L34.6622 24.3475Z" fill="#9847FF"/>
<path d="M38.0453 23.3245L34.7837 22.6764L34.1356 25.938L37.3973 26.5861L38.0453 23.3245Z" fill="#9847FF"/>
<path d="M40.7683 25.5608L37.7209 24.9553L37.0728 28.217L40.1202 28.8225L40.7683 25.5608Z" fill="#9847FF"/>
<path d="M43.2516 27.7423L40.2043 27.1368L39.5562 30.3985L42.6035 31.004L43.2516 27.7423Z" fill="#9847FF"/>
<path d="M45.4762 30.339L42.4288 29.7335L41.6602 33.6019L44.7075 34.2074L45.4762 30.339Z" fill="#9847FF"/>
<path d="M43.6325 36.517L40.3709 35.8689L39.7228 39.1305L42.9845 39.7786L43.6325 36.517Z" fill="#9847FF"/>
<path d="M46.4092 34.1797L43.1476 33.5316L42.4995 36.7933L45.7611 37.4413L46.4092 34.1797Z" fill="#9847FF"/>
<path d="M40.3938 37.5684L37.1321 36.9203L36.484 40.182L39.7457 40.8301L40.3938 37.5684Z" fill="#9847FF"/>
<path d="M37.7149 35.8427L34.4532 35.1946L33.8051 38.4563L37.0668 39.1044L37.7149 35.8427Z" fill="#9847FF"/>
<path d="M35.2565 33.1691L31.9948 32.521L31.3468 35.7826L34.6084 36.4307L35.2565 33.1691Z" fill="#9847FF"/>
<path d="M32.8014 35.0117L29.5398 34.3636L28.945 37.3569L32.2067 38.005L32.8014 35.0117Z" fill="#9847FF"/>
<path d="M31.2595 37.4626L27.9979 36.8146L27.4031 39.8078L30.6648 40.4559L31.2595 37.4626Z" fill="#9847FF"/>
<path d="M31.6794 40.6578L28.4178 40.0097L27.823 43.0029L31.0847 43.651L31.6794 40.6578Z" fill="#9847FF"/>
<path d="M33.1236 43.9058L29.8619 43.2577L29.2672 46.2509L32.5289 46.899L33.1236 43.9058Z" fill="#9847FF"/>
<path d="M35.6164 45.942L32.3548 45.2939L31.76 48.2872L35.0217 48.9352L35.6164 45.942Z" fill="#9847FF"/>
<path d="M38.2242 48.0168L34.9626 47.3688L34.3678 50.362L37.6295 51.0101L38.2242 48.0168Z" fill="#9847FF"/>
<path d="M40.9809 49.8611L37.7192 49.2131L37.1245 52.2063L40.3861 52.8544L40.9809 49.8611Z" fill="#9847FF"/>
<path d="M44.2912 49.084L41.2552 48.4807L40.6604 51.4739L43.6965 52.0772L44.2912 49.084Z" fill="#9847FF"/>
</g>
<defs>
<filter id="filter0_d_0_1" x="880.267" y="25.5925" width="32.6528" height="41.3764" filterUnits="userSpaceOnUse" color-interpolation-filters="sRGB">
<feFlood flood-opacity="0" result="BackgroundImageFix"/>
<feColorMatrix in="SourceAlpha" type="matrix" values="0 0 0 0 0 0 0 0 0 0 0 0 0 0 0 0 0 0 127 0" result="hardAlpha"/>
<feOffset dx="2.21816" dy="2.95755"/>
<feComposite in2="hardAlpha" operator="out"/>
<feColorMatrix type="matrix" values="0 0 0 0 0.596078 0 0 0 0 0.278431 0 0 0 0 1 0 0 0 0.25 0"/>
<feBlend mode="normal" in2="BackgroundImageFix" result="effect1_dropShadow_0_1"/>
<feBlend mode="normal" in="SourceGraphic" in2="effect1_dropShadow_0_1" result="shape"/>
</filter>
<filter id="filter1_d_0_1" x="863.105" y="1.86993" width="18.684" height="23.7565" filterUnits="userSpaceOnUse" color-interpolation-filters="sRGB">
<feFlood flood-opacity="0" result="BackgroundImageFix"/>
<feColorMatrix in="SourceAlpha" type="matrix" values="0 0 0 0 0 0 0 0 0 0 0 0 0 0 0 0 0 0 127 0" result="hardAlpha"/>
<feOffset dx="2.40756" dy="3.21008"/>
<feComposite in2="hardAlpha" operator="out"/>
<feColorMatrix type="matrix" values="0 0 0 0 0.596078 0 0 0 0 0.278431 0 0 0 0 1 0 0 0 0.25 0"/>
<feBlend mode="normal" in2="BackgroundImageFix" result="effect1_dropShadow_0_1"/>
<feBlend mode="normal" in="SourceGraphic" in2="effect1_dropShadow_0_1" result="shape"/>
</filter>
<filter id="filter2_d_0_1" x="920.87" y="13.2642" width="12.403" height="16.1126" filterUnits="userSpaceOnUse" color-interpolation-filters="sRGB">
<feFlood flood-opacity="0" result="BackgroundImageFix"/>
<feColorMatrix in="SourceAlpha" type="matrix" values="0 0 0 0 0 0 0 0 0 0 0 0 0 0 0 0 0 0 127 0" result="hardAlpha"/>
<feOffset dx="1.32417" dy="2.12735"/>
<feComposite in2="hardAlpha" operator="out"/>
<feColorMatrix type="matrix" values="0 0 0 0 0.596078 0 0 0 0 0.278431 0 0 0 0 1 0 0 0 0.25 0"/>
<feBlend mode="normal" in2="BackgroundImageFix" result="effect1_dropShadow_0_1"/>
<feBlend mode="normal" in="SourceGraphic" in2="effect1_dropShadow_0_1" result="shape"/>
</filter>
<filter id="filter3_d_0_1" x="1.09811" y="315.564" width="49.1296" height="64.0043" filterUnits="userSpaceOnUse" color-interpolation-filters="sRGB">
<feFlood flood-opacity="0" result="BackgroundImageFix"/>
<feColorMatrix in="SourceAlpha" type="matrix" values="0 0 0 0 0 0 0 0 0 0 0 0 0 0 0 0 0 0 127 0" result="hardAlpha"/>
<feOffset dx="2.85828" dy="3.81104"/>
<feComposite in2="hardAlpha" operator="out"/>
<feColorMatrix type="matrix" values="0 0 0 0 0.596078 0 0 0 0 0.278431 0 0 0 0 1 0 0 0 0.25 0"/>
<feBlend mode="normal" in2="BackgroundImageFix" result="effect1_dropShadow_0_1"/>
<feBlend mode="normal" in="SourceGraphic" in2="effect1_dropShadow_0_1" result="shape"/>
</filter>
<filter id="filter4_d_0_1" x="875.612" y="380.967" width="67.5738" height="57.5722" filterUnits="userSpaceOnUse" color-interpolation-filters="sRGB">
<feFlood flood-opacity="0" result="BackgroundImageFix"/>
<feColorMatrix in="SourceAlpha" type="matrix" values="0 0 0 0 0 0 0 0 0 0 0 0 0 0 0 0 0 0 127 0" result="hardAlpha"/>
<feOffset dx="2.21816" dy="2.95755"/>
<feComposite in2="hardAlpha" operator="out"/>
<feColorMatrix type="matrix" values="0 0 0 0 0.596078 0 0 0 0 0.278431 0 0 0 0 1 0 0 0 0.25 0"/>
<feBlend mode="normal" in2="BackgroundImageFix" result="effect1_dropShadow_0_1"/>
<feBlend mode="normal" in="SourceGraphic" in2="effect1_dropShadow_0_1" result="shape"/>
</filter>
<filter id="filter5_d_0_1" x="3.94186" y="21.0692" width="46.2927" height="36.3555" filterUnits="userSpaceOnUse" color-interpolation-filters="sRGB">
<feFlood flood-opacity="0" result="BackgroundImageFix"/>
<feColorMatrix in="SourceAlpha" type="matrix" values="0 0 0 0 0 0 0 0 0 0 0 0 0 0 0 0 0 0 127 0" result="hardAlpha"/>
<feOffset dx="2.21816" dy="2.95755"/>
<feComposite in2="hardAlpha" operator="out"/>
<feColorMatrix type="matrix" values="0 0 0 0 0.596078 0 0 0 0 0.278431 0 0 0 0 1 0 0 0 0.25 0"/>
<feBlend mode="normal" in2="BackgroundImageFix" result="effect1_dropShadow_0_1"/>
<feBlend mode="normal" in="SourceGraphic" in2="effect1_dropShadow_0_1" result="shape"/>
</filter>
</defs>
</svg>
