<svg width="1009" height="439" viewBox="0 0 1009 439" fill="none" xmlns="http://www.w3.org/2000/svg">
<g filter="url(#filter0_d_201_8220)">
<path d="M951.455 51.4398L950.376 55.3231L954.259 56.4026L953.179 60.2859L957.063 61.3654L954.904 69.132L958.787 70.2115L956.628 77.9781L960.511 79.0576L958.352 86.8242L962.236 87.9037L957.918 103.437L954.034 102.357L952.955 106.241L949.072 105.161L947.992 109.044L944.109 107.965L943.029 111.848L923.613 106.451L924.692 102.567L920.809 101.488L921.888 97.6047L918.005 96.5252L919.085 92.6419L915.201 91.5624L919.519 76.0292L923.403 77.1087L925.562 69.3421L929.445 70.4216L931.604 62.655L935.487 63.7345L937.646 55.9679L941.53 57.0474L942.609 53.1641L946.492 54.2436L947.572 50.3603L951.455 51.4398ZM952.535 47.5565L948.651 46.477C947.621 46.1907 946.52 46.3252 945.589 46.851C944.659 47.3769 943.975 48.2509 943.689 49.2808C942.659 48.9945 941.557 49.129 940.626 49.6548C939.696 50.1807 939.012 51.0547 938.726 52.0846C937.696 51.7983 936.594 51.9328 935.664 52.4586C934.733 52.9845 934.049 53.8585 933.763 54.8884L932.683 58.7717C931.654 58.4854 930.552 58.6199 929.621 59.1457C928.691 59.6715 928.007 60.5456 927.721 61.5755L926.641 65.4588C925.611 65.1725 924.51 65.307 923.579 65.8328C922.648 66.3586 921.965 67.2327 921.678 68.2626L920.599 72.1459C919.569 71.8596 918.467 71.9941 917.537 72.5199C916.606 73.0457 915.922 73.9198 915.636 74.9497L911.318 90.4829C911.032 91.5128 911.166 92.6142 911.692 93.5449C912.218 94.4756 913.092 95.1594 914.122 95.4457C913.836 96.4756 913.97 97.577 914.496 98.5077C915.022 99.4384 915.896 100.122 916.926 100.408C916.639 101.438 916.774 102.54 917.3 103.471C917.826 104.401 918.7 105.085 919.729 105.371C919.443 106.401 919.578 107.503 920.103 108.433C920.629 109.364 921.503 110.048 922.533 110.334L941.95 115.732C942.98 116.018 944.081 115.883 945.012 115.357C945.943 114.832 946.626 113.958 946.913 112.928C947.942 113.214 949.044 113.079 949.975 112.554C950.905 112.028 951.589 111.154 951.875 110.124C952.905 110.41 954.007 110.276 954.937 109.75C955.868 109.224 956.552 108.35 956.838 107.32C957.868 107.606 958.97 107.472 959.9 106.946C960.831 106.42 961.515 105.546 961.801 104.516L966.119 88.9832C966.405 87.9533 966.271 86.8518 965.745 85.9211C965.219 84.9904 964.345 84.3067 963.315 84.0204L964.395 80.1371C964.681 79.1072 964.546 78.0057 964.021 77.075C963.495 76.1443 962.621 75.4606 961.591 75.1743L962.67 71.291C962.957 70.2611 962.822 69.1596 962.296 68.2289C961.77 67.2982 960.896 66.6145 959.867 66.3282L960.946 62.4449C961.232 61.415 961.098 60.3135 960.572 59.3828C960.046 58.4521 959.172 57.7684 958.142 57.4821C958.429 56.4522 958.294 55.3507 957.768 54.42C957.242 53.4893 956.368 52.8056 955.338 52.5193C955.625 51.4894 955.49 50.3879 954.964 49.4572C954.439 48.5265 953.565 47.8428 952.535 47.5565Z" fill="white"/>
<path d="M958.352 86.8241L954.034 102.357L950.151 101.278L949.071 105.161L945.188 104.082L944.109 107.965L936.342 105.806L924.692 102.567L925.772 98.6841L921.888 97.6046L922.968 93.7213L919.084 92.6418L921.243 84.8752L923.402 77.1086L927.286 78.1881L928.365 74.3048L929.445 70.4215L933.328 71.501L934.408 67.6177L935.487 63.7344L939.37 64.8139L940.45 60.9306L941.529 57.0473L945.413 58.1268L946.492 54.2435L950.375 55.323L949.296 59.2063L953.179 60.2858L951.02 68.0524L954.904 69.1319L952.745 76.8985L956.628 77.978L954.469 85.7446L958.352 86.8241Z" fill="#E4D1FF"/>
<path d="M921.244 84.8754L923.403 77.1088L919.52 76.0293L915.202 91.5625L919.085 92.642L921.244 84.8754Z" fill="#9847FF"/>
<path d="M958.787 70.2113L954.904 69.1318L952.745 76.8984L956.628 77.9779L958.787 70.2113Z" fill="#9847FF"/>
<path d="M957.063 61.3654L953.18 60.2859L951.021 68.0525L954.904 69.132L957.063 61.3654Z" fill="#9847FF"/>
<path d="M925.772 98.684L921.889 97.6045L920.809 101.488L924.692 102.567L925.772 98.684Z" fill="#9847FF"/>
<path d="M936.342 105.806L924.692 102.567L923.613 106.451L943.029 111.848L944.109 107.965L936.342 105.806Z" fill="#9847FF"/>
<path d="M951.456 51.4399L947.572 50.3604L946.493 54.2436L950.376 55.3231L951.456 51.4399Z" fill="#9847FF"/>
<path d="M940.45 60.9308L941.53 57.0475L937.646 55.968L935.487 63.7346L939.371 64.8141L940.45 60.9308Z" fill="#9847FF"/>
<path d="M934.408 67.6178L935.487 63.7345L931.604 62.655L929.445 70.4216L933.328 71.5011L934.408 67.6178Z" fill="#9847FF"/>
<path d="M928.365 74.3051L929.445 70.4218L925.562 69.3423L923.403 77.1089L927.286 78.1884L928.365 74.3051Z" fill="#9847FF"/>
<path d="M922.968 93.7213L919.084 92.6418L918.005 96.5251L921.888 97.6046L922.968 93.7213Z" fill="#9847FF"/>
<path d="M946.493 54.2438L942.609 53.1643L941.53 57.0476L945.413 58.1271L946.493 54.2438Z" fill="#9847FF"/>
<path d="M962.236 87.9037L958.353 86.8242L954.035 102.357L957.918 103.437L962.236 87.9037Z" fill="#9847FF"/>
<path d="M954.259 56.4027L950.376 55.3232L949.296 59.2065L953.18 60.286L954.259 56.4027Z" fill="#9847FF"/>
<path d="M954.034 102.357L950.151 101.278L949.071 105.161L952.955 106.241L954.034 102.357Z" fill="#9847FF"/>
<path d="M960.512 79.0575L956.628 77.978L954.469 85.7446L958.353 86.8241L960.512 79.0575Z" fill="#9847FF"/>
<path d="M949.071 105.161L945.188 104.082L944.108 107.965L947.992 109.045L949.071 105.161Z" fill="#9847FF"/>
</g>
<g filter="url(#filter1_d_201_8220)">
<path d="M901.648 6.11801L901.07 8.1948L903.147 8.77212L902.57 10.8489L904.647 11.4262L903.492 15.5798L905.569 16.1571L904.414 20.3107L906.491 20.888L905.336 25.0416L907.413 25.6189L905.104 33.9261L903.027 33.3488L902.45 35.4255L900.373 34.8482L899.796 36.925L897.719 36.3477L897.142 38.4245L886.758 35.5379L887.335 33.4611L885.258 32.8838L885.835 30.807L883.759 30.2297L884.336 28.1529L882.259 27.5756L884.568 19.2684L886.645 19.8457L887.8 15.6922L889.877 16.2695L891.031 12.1159L893.108 12.6932L894.263 8.53964L896.339 9.11696L896.917 7.04017L898.994 7.61749L899.571 5.5407L901.648 6.11801ZM902.225 4.04122L900.148 3.46391C899.597 3.31079 899.008 3.38274 898.511 3.66394C898.013 3.94515 897.647 4.41258 897.494 4.96338C896.943 4.81026 896.354 4.88221 895.857 5.16342C895.359 5.44462 894.993 5.91205 894.84 6.46285C894.289 6.30974 893.7 6.38168 893.202 6.66289C892.705 6.94409 892.339 7.41152 892.186 7.96232L891.609 10.0391C891.058 9.886 890.469 9.95794 889.971 10.2391C889.473 10.5204 889.108 10.9878 888.954 11.5386L888.377 13.6154C887.826 13.4623 887.237 13.5342 886.74 13.8154C886.242 14.0966 885.876 14.564 885.723 15.1148L885.146 17.1916C884.595 17.0385 884.006 17.1105 883.508 17.3917C883.01 17.6729 882.645 18.1403 882.492 18.6911L880.182 26.9983C880.029 27.5491 880.101 28.1381 880.382 28.6359C880.664 29.1336 881.131 29.4993 881.682 29.6524C881.529 30.2032 881.601 30.7922 881.882 31.29C882.163 31.7877 882.631 32.1534 883.181 32.3065C883.028 32.8573 883.1 33.4463 883.381 33.9441C883.663 34.4418 884.13 34.8075 884.681 34.9606C884.528 35.5114 884.6 36.1004 884.881 36.5982C885.162 37.0959 885.629 37.4616 886.18 37.6147L896.564 40.5013C897.115 40.6544 897.704 40.5824 898.202 40.3012C898.7 40.02 899.065 39.5526 899.218 39.0018C899.769 39.1549 900.358 39.083 900.856 38.8018C901.354 38.5205 901.719 38.0531 901.872 37.5023C902.423 37.6555 903.012 37.5835 903.51 37.3023C904.008 37.0211 904.373 36.5537 904.527 36.0029C905.077 36.156 905.666 36.084 906.164 35.8028C906.662 35.5216 907.028 35.0542 907.181 34.5034L909.49 26.1962C909.643 25.6454 909.571 25.0564 909.29 24.5586C909.009 24.0609 908.541 23.6952 907.99 23.5421L908.568 21.4653C908.721 20.9145 908.649 20.3255 908.368 19.8277C908.087 19.33 907.619 18.9643 907.068 18.8112L907.646 16.7344C907.799 16.1836 907.727 15.5946 907.446 15.0968C907.164 14.5991 906.697 14.2335 906.146 14.0803L906.723 12.0035C906.877 11.4527 906.805 10.8637 906.523 10.3659C906.242 9.86819 905.775 9.50255 905.224 9.34944C905.377 8.79864 905.305 8.20957 905.024 7.71183C904.743 7.21408 904.275 6.84845 903.724 6.69533C903.878 6.14453 903.806 5.55546 903.524 5.05772C903.243 4.55998 902.776 4.19434 902.225 4.04122Z" fill="white"/>
<path d="M905.336 25.0415L903.027 33.3487L900.95 32.7713L900.373 34.8481L898.296 34.2708L897.718 36.3476L893.565 35.193L887.334 33.461L887.912 31.3842L885.835 30.8069L886.412 28.7301L884.336 28.1528L885.49 23.9992L886.645 19.8456L888.722 20.4229L889.299 18.3462L889.876 16.2694L891.953 16.8467L892.53 14.7699L893.108 12.6931L895.184 13.2704L895.762 11.1936L896.339 9.11685L898.416 9.69417L898.993 7.61738L901.07 8.19469L900.493 10.2715L902.569 10.8488L901.415 15.0024L903.492 15.5797L902.337 19.7333L904.414 20.3106L903.259 24.4642L905.336 25.0415Z" fill="#E4D1FF"/>
<path d="M885.49 23.9997L886.645 19.8461L884.568 19.2688L882.259 27.576L884.335 28.1533L885.49 23.9997Z" fill="#9847FF"/>
<path d="M905.568 16.1569L903.491 15.5796L902.337 19.7332L904.413 20.3105L905.568 16.1569Z" fill="#9847FF"/>
<path d="M904.647 11.4264L902.57 10.8491L901.416 15.0027L903.492 15.58L904.647 11.4264Z" fill="#9847FF"/>
<path d="M887.913 31.3842L885.836 30.8069L885.259 32.8837L887.335 33.461L887.913 31.3842Z" fill="#9847FF"/>
<path d="M893.565 35.1929L887.334 33.4609L886.757 35.5377L897.141 38.4243L897.718 36.3475L893.565 35.1929Z" fill="#9847FF"/>
<path d="M901.649 6.11809L899.572 5.54077L898.994 7.61756L901.071 8.19488L901.649 6.11809Z" fill="#9847FF"/>
<path d="M895.762 11.1941L896.339 9.11736L894.262 8.54004L893.108 12.6936L895.184 13.2709L895.762 11.1941Z" fill="#9847FF"/>
<path d="M892.531 14.7703L893.109 12.6935L891.032 12.1162L889.877 16.2698L891.954 16.8471L892.531 14.7703Z" fill="#9847FF"/>
<path d="M889.299 18.3465L889.877 16.2697L887.8 15.6924L886.645 19.846L888.722 20.4233L889.299 18.3465Z" fill="#9847FF"/>
<path d="M886.413 28.7299L884.336 28.1526L883.759 30.2294L885.835 30.8067L886.413 28.7299Z" fill="#9847FF"/>
<path d="M898.994 7.61736L896.917 7.04004L896.34 9.11683L898.417 9.69415L898.994 7.61736Z" fill="#9847FF"/>
<path d="M907.413 25.6191L905.336 25.0417L903.027 33.3489L905.104 33.9262L907.413 25.6191Z" fill="#9847FF"/>
<path d="M903.147 8.77239L901.07 8.19507L900.493 10.2719L902.57 10.8492L903.147 8.77239Z" fill="#9847FF"/>
<path d="M903.026 33.3488L900.95 32.7715L900.372 34.8483L902.449 35.4256L903.026 33.3488Z" fill="#9847FF"/>
<path d="M906.491 20.8881L904.415 20.3108L903.26 24.4644L905.337 25.0417L906.491 20.8881Z" fill="#9847FF"/>
<path d="M900.373 34.8481L898.296 34.2708L897.719 36.3475L899.796 36.9249L900.373 34.8481Z" fill="#9847FF"/>
</g>
<g filter="url(#filter2_d_201_8220)">
<path d="M999.339 25.8721L998.946 27.2857L1000.36 27.6787L999.967 29.0923L1001.38 29.4852L1000.59 32.3124L1002.01 32.7054L1001.22 35.5326L1002.64 35.9256L1001.85 38.7528L1003.26 39.1457L1001.69 44.8001L1000.28 44.4072L999.885 45.8208L998.471 45.4278L998.079 46.8414L996.665 46.4484L996.272 47.862L989.204 45.8972L989.597 44.4836L988.183 44.0907L988.576 42.6771L987.163 42.2841L987.556 40.8705L986.142 40.4775L987.714 34.8231L989.127 35.2161L989.913 32.3889L991.327 32.7819L992.113 29.9547L993.527 30.3476L994.312 27.5204L995.726 27.9134L996.119 26.4998L997.533 26.8927L997.926 25.4791L999.339 25.8721ZM999.732 24.4585L998.319 24.0655C997.944 23.9613 997.543 24.0103 997.204 24.2017C996.865 24.3931 996.616 24.7113 996.512 25.0862C996.137 24.982 995.736 25.0309 995.397 25.2223C995.058 25.4137 994.81 25.7319 994.705 26.1068C994.33 26.0026 993.93 26.0516 993.591 26.243C993.252 26.4344 993.003 26.7525 992.899 27.1275L992.506 28.5411C992.131 28.4368 991.73 28.4858 991.391 28.6772C991.052 28.8686 990.804 29.1868 990.699 29.5617L990.306 30.9753C989.931 30.8711 989.53 30.92 989.192 31.1115C988.853 31.3029 988.604 31.621 988.5 31.9959L988.107 33.4095C987.732 33.3053 987.331 33.3543 986.992 33.5457C986.653 33.7371 986.404 34.0553 986.3 34.4302L984.728 40.0846C984.624 40.4595 984.673 40.8604 984.865 41.1992C985.056 41.538 985.374 41.7869 985.749 41.8912C985.645 42.2661 985.694 42.667 985.885 43.0058C986.077 43.3446 986.395 43.5935 986.77 43.6977C986.665 44.0726 986.714 44.4736 986.906 44.8124C987.097 45.1512 987.415 45.4001 987.79 45.5043C987.686 45.8792 987.735 46.2801 987.927 46.6189C988.118 46.9577 988.436 47.2066 988.811 47.3108L995.879 49.2756C996.254 49.3799 996.655 49.3309 996.994 49.1395C997.332 48.9481 997.581 48.6299 997.686 48.255C998.06 48.3592 998.461 48.3102 998.8 48.1188C999.139 47.9274 999.388 47.6093 999.492 47.2344C999.867 47.3386 1000.27 47.2896 1000.61 47.0982C1000.95 46.9068 1001.19 46.5886 1001.3 46.2137C1001.67 46.3179 1002.07 46.269 1002.41 46.0776C1002.75 45.8861 1003 45.568 1003.11 45.1931L1004.68 39.5387C1004.78 39.1638 1004.73 38.7628 1004.54 38.424C1004.35 38.0852 1004.03 37.8363 1003.66 37.7321L1004.05 36.3185C1004.15 35.9436 1004.1 35.5426 1003.91 35.2038C1003.72 34.865 1003.4 34.6162 1003.03 34.5119L1003.42 33.0983C1003.53 32.7234 1003.48 32.3225 1003.29 31.9837C1003.09 31.6449 1002.78 31.396 1002.4 31.2918L1002.79 29.8782C1002.9 29.5033 1002.85 29.1023 1002.66 28.7635C1002.47 28.4247 1002.15 28.1758 1001.77 28.0716C1001.88 27.6967 1001.83 27.2957 1001.64 26.9569C1001.45 26.6182 1001.13 26.3693 1000.75 26.2651C1000.86 25.8901 1000.81 25.4892 1000.62 25.1504C1000.43 24.8116 1000.11 24.5627 999.732 24.4585Z" fill="white"/>
<path d="M1001.85 38.7529L1000.28 44.4073L998.865 44.0144L998.472 45.428L997.058 45.035L996.665 46.4486L993.838 45.6627L989.597 44.4838L989.99 43.0702L988.576 42.6772L988.969 41.2636L987.556 40.8707L988.342 38.0435L989.128 35.2163L990.541 35.6092L990.934 34.1956L991.327 32.782L992.741 33.175L993.134 31.7614L993.527 30.3478L994.94 30.7407L995.333 29.3271L995.726 27.9135L997.14 28.3065L997.533 26.8929L998.946 27.2859L998.553 28.6995L999.967 29.0924L999.181 31.9196L1000.59 32.3126L999.809 35.1398L1001.22 35.5327L1000.44 38.3599L1001.85 38.7529Z" fill="#E4D1FF"/>
<path d="M988.342 38.0437L989.127 35.2164L987.714 34.8235L986.142 40.4779L987.556 40.8709L988.342 38.0437Z" fill="#9847FF"/>
<path d="M1002.01 32.7055L1000.59 32.3125L999.808 35.1397L1001.22 35.5327L1002.01 32.7055Z" fill="#9847FF"/>
<path d="M1001.38 29.4852L999.967 29.0923L999.181 31.9195L1000.59 32.3124L1001.38 29.4852Z" fill="#9847FF"/>
<path d="M989.99 43.0697L988.577 42.6768L988.184 44.0904L989.597 44.4833L989.99 43.0697Z" fill="#9847FF"/>
<path d="M993.837 45.6623L989.596 44.4834L989.203 45.897L996.271 47.8618L996.664 46.4482L993.837 45.6623Z" fill="#9847FF"/>
<path d="M999.34 25.872L997.926 25.479L997.533 26.8926L998.947 27.2856L999.34 25.872Z" fill="#9847FF"/>
<path d="M995.333 29.3271L995.726 27.9135L994.312 27.5205L993.526 30.3477L994.94 30.7407L995.333 29.3271Z" fill="#9847FF"/>
<path d="M993.134 31.7612L993.527 30.3476L992.114 29.9546L991.328 32.7818L992.741 33.1748L993.134 31.7612Z" fill="#9847FF"/>
<path d="M990.934 34.196L991.327 32.7824L989.913 32.3894L989.127 35.2166L990.541 35.6096L990.934 34.196Z" fill="#9847FF"/>
<path d="M988.97 41.2636L987.556 40.8706L987.163 42.2842L988.577 42.6772L988.97 41.2636Z" fill="#9847FF"/>
<path d="M997.533 26.8927L996.119 26.4998L995.726 27.9134L997.14 28.3063L997.533 26.8927Z" fill="#9847FF"/>
<path d="M1003.26 39.1456L1001.85 38.7527L1000.28 44.4071L1001.69 44.8001L1003.26 39.1456Z" fill="#9847FF"/>
<path d="M1000.36 27.6786L998.946 27.2856L998.553 28.6992L999.967 29.0922L1000.36 27.6786Z" fill="#9847FF"/>
<path d="M1000.28 44.4074L998.864 44.0144L998.471 45.428L999.885 45.821L1000.28 44.4074Z" fill="#9847FF"/>
<path d="M1002.64 35.9257L1001.22 35.5327L1000.44 38.3599L1001.85 38.7529L1002.64 35.9257Z" fill="#9847FF"/>
<path d="M998.472 45.4274L997.058 45.0344L996.665 46.448L998.079 46.841L998.472 45.4274Z" fill="#9847FF"/>
</g>
<g filter="url(#filter3_d_201_8220)">
<path d="M13.9626 395.774C13.1195 395.605 12.6879 394.541 13.0379 393.494L15.6622 385.646C16.0121 384.599 17.0559 383.831 17.8991 384L18.426 384.106L24.0245 367.362C24.3744 366.315 25.4183 365.547 26.2614 365.717L26.7884 365.822L27.0071 365.168C27.357 364.122 28.4008 363.354 29.244 363.523L29.7709 363.629L29.9896 362.974C30.3395 361.928 31.3834 361.16 32.2265 361.329L32.7534 361.435L32.9721 360.781C33.322 359.734 34.3659 358.967 35.209 359.136L35.6306 359.22L36.068 357.912L35.541 357.806C34.6979 357.637 34.2664 356.574 34.6163 355.527L34.835 354.873L34.308 354.767C33.4649 354.598 33.0334 353.535 33.3833 352.488L33.602 351.834L33.075 351.728C32.2319 351.559 31.8004 350.496 32.1503 349.449L32.369 348.795L31.842 348.689C30.9989 348.52 30.5674 347.457 30.9173 346.41L36.5158 329.666L35.9888 329.56C35.1457 329.391 34.7142 328.328 35.0641 327.281L37.7321 319.301C38.082 318.255 39.1259 317.487 39.969 317.656L76.2227 324.926C77.0658 325.095 77.4974 326.159 77.1475 327.205L74.4794 335.185C74.1295 336.231 73.0856 336.999 72.2425 336.83L71.7156 336.724L66.1171 353.469C65.7672 354.515 64.7233 355.283 63.8802 355.114L63.3532 355.008L63.1345 355.662C62.7846 356.709 61.7407 357.477 60.8976 357.308L60.3707 357.202L60.152 357.856C59.8021 358.903 58.7582 359.67 57.9151 359.501L57.3881 359.396L57.1694 360.05C56.8195 361.096 55.7757 361.864 54.9325 361.695L54.4056 361.589L53.9682 362.897L54.6005 363.024C55.4437 363.193 55.8752 364.257 55.5253 365.303L55.3066 365.957L55.8336 366.063C56.6767 366.232 57.1082 367.296 56.7583 368.342L56.5396 368.996L57.0666 369.102C57.9097 369.271 58.3412 370.335 57.9913 371.381L57.7726 372.035L58.2996 372.141C59.1427 372.31 59.5742 373.374 59.2243 374.42L53.6695 391.034L54.1965 391.139C55.0396 391.309 55.4712 392.372 55.1212 393.419L52.4969 401.268C52.147 402.314 51.1032 403.082 50.26 402.913L14.0063 395.643L13.9626 395.774Z" fill="white"/>
<path d="M75.6207 326.843L74.7435 329.463L73.8663 332.082L72.9891 334.702L70.8755 334.279L69.9984 336.898L69.1212 339.518L68.244 342.138L67.3668 344.757L66.4896 347.377L65.5247 350.258L64.6475 352.878L62.5339 352.455L61.6567 355.074L59.5431 354.651L58.6659 357.271L56.5523 356.848L55.6751 359.467L53.5615 359.044L52.6844 361.664L51.8072 364.283L51.9128 364.304L54.0265 364.728L53.1493 367.347L55.2629 367.77L54.3857 370.39L56.4993 370.813L55.6221 373.433L57.7357 373.856L56.8585 376.476L55.8936 379.357L55.0164 381.977L54.1392 384.596L53.2621 387.216L52.3849 389.836L51.5077 392.455L53.6213 392.878L52.7441 395.498L51.8669 398.118L50.9897 400.737L48.8761 400.314L46.7625 399.891L44.6489 399.468L42.5353 399.044L40.4217 398.621L38.3081 398.198L36.1945 397.775L34.0809 397.352L31.7559 396.886L29.6423 396.463L27.5287 396.04L25.4151 395.616L23.3015 395.193L21.1879 394.77L19.0743 394.347L16.9607 393.924L14.8471 393.5L15.7243 390.881L16.6015 388.261L17.4787 385.642L19.5923 386.065L20.4695 383.445L21.3467 380.826L22.2238 378.206L23.101 375.586L23.9782 372.967L24.9431 370.085L25.8203 367.466L27.9339 367.889L28.8111 365.269L30.9247 365.692L31.8019 363.073L33.9155 363.496L34.7927 360.876L36.8006 361.278L37.6778 358.659L38.555 356.039L36.4414 355.616L37.3185 352.996L34.9936 352.531L35.8708 349.911L33.7572 349.488L34.6344 346.869L32.5208 346.445L33.3979 343.826L34.3628 340.944L35.24 338.325L36.1172 335.705L36.9944 333.085L37.8716 330.466L38.7488 327.846L36.6352 327.423L37.5124 324.803L38.3895 322.184L39.2667 319.564L41.3803 319.987L43.4939 320.411L45.6075 320.834L47.7211 321.257L49.8347 321.68L51.9483 322.103L54.062 322.527L56.1756 322.95L58.5005 323.415L60.6141 323.839L62.7277 324.262L64.8413 324.685L66.9549 325.108L69.0685 325.531L71.1821 325.955L73.2957 326.378L75.6207 326.843ZM76.9365 322.914L74.8229 322.491L72.7093 322.067L70.5957 321.644L68.4821 321.221L66.3685 320.798L64.2549 320.375L62.1413 319.951L60.0277 319.528L57.7027 319.063L55.5891 318.64L53.4755 318.216L51.3619 317.793L49.2483 317.37L46.9233 316.904L44.8097 316.481L42.6961 316.058L40.5825 315.635C38.786 315.275 36.8419 316.703 36.0963 318.929L35.2191 321.549L34.342 324.169L33.4648 326.788C32.8946 328.491 33.2576 330.101 34.3503 330.879L33.824 332.451L32.9468 335.07L32.0696 337.69L31.1924 340.309L30.2275 343.191L29.3504 345.811C28.7363 347.644 29.205 349.276 30.2977 350.053C30.1762 351.427 30.6089 352.492 31.5341 353.096C31.4126 354.469 31.951 355.556 32.7705 356.139C32.6569 356.815 32.7985 357.402 32.984 357.859C32.5354 358.188 32.1486 358.67 31.8675 359.173C30.6791 359.354 29.6323 360.123 28.8767 361.369C27.6883 361.55 26.5977 362.45 25.8859 363.565C24.4423 363.835 23.0087 365.086 22.3947 366.92L21.5175 369.539L20.5526 372.421L19.6754 375.04L18.7982 377.66L17.921 380.279L17.3947 381.851C15.9511 382.121 14.6232 383.393 14.0531 385.095L13.1759 387.715L12.2987 390.335L11.4215 392.954C10.6759 395.181 11.4796 397.159 13.2761 397.518L15.3897 397.942L17.5033 398.365L19.6169 398.788L21.7305 399.211L23.8441 399.634L25.9577 400.058L28.0713 400.481L30.1849 400.904L32.5099 401.37L34.6235 401.793L36.7371 402.216L38.8507 402.639L40.9643 403.062L43.0779 403.486L45.1915 403.909L47.3051 404.332L49.4187 404.755C51.2153 405.115 53.1593 403.687 53.9049 401.461L54.7821 398.841L55.6593 396.221L56.5365 393.602C57.1066 391.899 56.7436 390.289 55.6509 389.511L56.1772 387.939L57.0544 385.32L57.9316 382.7L58.8088 380.081L59.7737 377.199L60.6509 374.579C61.2649 372.746 60.7962 371.115 59.7035 370.337C59.8251 368.963 59.3923 367.898 58.4671 367.294C58.5887 365.921 58.0502 364.834 57.2307 364.251C57.3443 363.575 57.2027 362.988 57.0172 362.531C57.4659 362.202 57.8527 361.72 58.1338 361.217C59.3222 361.036 60.4128 360.136 61.1246 359.021C62.3129 358.84 63.3597 358.071 64.1154 356.825C65.559 356.555 66.9925 355.304 67.6066 353.471L68.4837 350.851L69.4486 347.969L70.3258 345.35L71.203 342.73L72.0802 340.111L72.6065 338.539C74.0501 338.269 75.378 336.997 75.9482 335.295L76.8254 332.675L77.7026 330.055L78.5797 327.436C79.5367 325.251 78.733 323.274 76.9365 322.914Z" fill="white"/>
<path d="M47.6951 355.407L45.3076 354.96L44.3268 357.698L46.7143 358.144L47.6951 355.407Z" fill="#9847FF"/>
<path d="M59.7867 352.542L58.8748 355.176L56.8224 354.778L55.9106 357.412L53.8581 357.014L52.9007 359.78L50.8483 359.382L49.9365 362.016L49.0246 364.649L51.077 365.047L51.2823 365.086L50.3704 367.72L52.4229 368.117L51.511 370.751L53.5635 371.148L52.6516 373.782L54.704 374.179L56.7565 374.576L57.6683 371.943L55.6159 371.546L56.5277 368.912L54.4753 368.515L55.3871 365.881L53.3347 365.484L53.1295 365.444L54.0413 362.811L54.9531 360.177L57.0056 360.574L57.963 357.809L60.118 358.227L61.0299 355.593L63.0823 355.991L63.9941 353.357L61.9417 352.96L59.7867 352.542Z" fill="#9847FF"/>
<path d="M51.4567 351.114L49.3066 350.71L48.3363 353.427L50.4864 353.83L51.4567 351.114Z" fill="#9847FF"/>
<path d="M46.2508 349.766L44.1006 349.362L43.1303 352.079L45.2805 352.483L46.2508 349.766Z" fill="#9847FF"/>
<path d="M54.5779 349.277L52.4277 348.873L51.4574 351.59L53.6076 351.994L54.5779 349.277Z" fill="#9847FF"/>
<path d="M49.619 347.973L47.2314 347.526L46.2506 350.264L48.6381 350.711L49.619 347.973Z" fill="#9847FF"/>
<path d="M44.4153 346.646L42.2651 346.242L41.2949 348.959L43.4451 349.363L44.4153 346.646Z" fill="#9847FF"/>
<path d="M57.7615 347.19L55.6318 346.788L54.5768 349.755L56.7065 350.157L57.7615 347.19Z" fill="#9847FF"/>
<path d="M52.8045 345.905L50.6748 345.504L49.6199 348.471L51.7496 348.872L52.8045 345.905Z" fill="#9847FF"/>
<path d="M47.5984 344.559L45.4688 344.158L44.4137 347.124L46.5433 347.526L47.5984 344.559Z" fill="#9847FF"/>
<path d="M42.6418 343.274L40.5122 342.872L39.4572 345.839L41.5869 346.241L42.6418 343.274Z" fill="#9847FF"/>
<path d="M32.9452 343.442L33.9622 340.595L34.9792 337.748L35.9962 334.902L37.0132 332.055L38.0302 329.208L40.2861 329.632L42.5421 330.055L44.798 330.479L47.054 330.902L49.3099 331.325L51.5659 331.749L54.0474 332.214L56.3034 332.638L58.5593 333.061L60.8153 333.485L63.0712 333.908L65.3272 334.331L67.5831 334.755L66.5661 337.601L65.5491 340.448L64.5321 343.295L63.5151 346.141L62.4981 348.988L61.3794 352.119L60.3624 354.966L62.6184 355.389L63.6354 352.543L64.7541 349.411L65.7711 346.565L66.7881 343.718L67.8051 340.871L68.8221 338.025L69.839 335.178L72.095 335.601L73.1628 332.612L74.1798 329.766L75.1968 326.919L72.9409 326.496L70.6849 326.072L68.429 325.649L66.173 325.226L63.9171 324.802L61.6611 324.379L59.4052 323.956L57.1492 323.532L54.6677 323.066L52.4118 322.643L50.1558 322.22L47.8999 321.796L45.6439 321.373L43.388 320.95L41.132 320.526L38.8761 320.103L36.6201 319.679L35.6031 322.526L34.5861 325.373L33.5691 328.219L35.8251 328.643L34.8081 331.489L33.7911 334.336L32.7741 337.183L31.7571 340.029L30.7401 342.876L29.6214 346.007L28.6044 348.854L30.8604 349.277L31.8774 346.431L32.9452 343.442ZM37.8591 322.949L40.115 323.373L42.371 323.796L44.6269 324.22L46.8829 324.643L49.1388 325.066L51.3948 325.49L53.6507 325.913L56.1323 326.379L58.3882 326.802L60.6441 327.226L62.9001 327.649L65.156 328.072L67.412 328.496L69.6679 328.919L71.9239 329.342L70.9069 332.189L68.6509 331.766L66.395 331.342L64.139 330.919L61.8831 330.496L59.6272 330.072L57.3712 329.649L55.1153 329.225L52.6337 328.76L50.3778 328.336L48.1218 327.913L45.8659 327.49L43.6099 327.066L41.354 326.643L39.098 326.219L36.8421 325.796L37.8591 322.949Z" fill="#9847FF"/>
<path d="M30.3954 368.144L31.3058 365.512L33.3562 365.91L34.2667 363.278L36.317 363.675L37.2275 361.043L39.1754 361.421L40.0858 358.789L40.9963 356.157L38.946 355.759L39.902 352.996L37.8516 352.598L38.7621 349.966L36.7117 349.569L37.6222 346.937L35.4693 346.52L33.4189 346.122L32.5085 348.754L34.5588 349.152L33.6484 351.784L35.8012 352.201L34.8452 354.964L36.8956 355.362L35.9851 357.994L35.0746 360.626L33.1268 360.248L32.2163 362.88L30.166 362.483L29.2555 365.115L27.2051 364.717L26.2946 367.349L28.345 367.747L30.3954 368.144Z" fill="#9847FF"/>
<path d="M43.4165 372.944L41.0513 372.5L39.9839 375.488L42.3491 375.932L43.4165 372.944Z" fill="#9847FF"/>
<path d="M39.8621 374.956L37.7119 374.553L36.7416 377.27L38.8918 377.673L39.8621 374.956Z" fill="#9847FF"/>
<path d="M45.0652 376.305L42.915 375.901L41.9447 378.618L44.0949 379.021L45.0652 376.305Z" fill="#9847FF"/>
<path d="M36.74 376.793L34.5898 376.389L33.6195 379.106L35.7697 379.509L36.74 376.793Z" fill="#9847FF"/>
<path d="M42.0701 378.151L39.6826 377.705L38.7018 380.442L41.0894 380.889L42.0701 378.151Z" fill="#9847FF"/>
<path d="M46.9031 379.424L44.7529 379.02L43.7826 381.737L45.9327 382.141L46.9031 379.424Z" fill="#9847FF"/>
<path d="M33.6208 378.63L31.4707 378.227L30.5004 380.943L32.6506 381.347L33.6208 378.63Z" fill="#9847FF"/>
<path d="M38.5779 379.913L36.4277 379.509L35.4574 382.226L37.6076 382.63L38.5779 379.913Z" fill="#9847FF"/>
<path d="M43.783 381.261L41.6328 380.858L40.6625 383.574L42.8127 383.978L43.783 381.261Z" fill="#9847FF"/>
<path d="M48.8631 382.576L46.7129 382.173L45.7426 384.889L47.8928 385.293L48.8631 382.576Z" fill="#9847FF"/>
<path d="M30.4998 380.466L28.3496 380.063L27.3793 382.78L29.5295 383.183L30.4998 380.466Z" fill="#9847FF"/>
<path d="M35.4568 381.75L33.3066 381.346L32.3364 384.063L34.4866 384.467L35.4568 381.75Z" fill="#9847FF"/>
<path d="M40.786 383.108L38.3984 382.662L37.4177 385.399L39.8052 385.846L40.786 383.108Z" fill="#9847FF"/>
<path d="M45.6194 384.382L43.4692 383.978L42.4989 386.695L44.649 387.099L45.6194 384.382Z" fill="#9847FF"/>
<path d="M50.7014 385.697L48.5513 385.293L47.581 388.01L49.7311 388.414L50.7014 385.697Z" fill="#9847FF"/>
<path d="M54.3768 392.053L55.3941 389.205L56.4114 386.357L57.4287 383.509L58.446 380.661L59.4633 377.813L60.5823 374.68L61.5996 371.832L59.3428 371.408L58.3255 374.256L57.2064 377.389L56.1891 380.237L55.1718 383.085L54.1545 385.933L53.1372 388.781L52.12 391.629L49.8631 391.206L50.8804 388.358L48.6235 387.934L47.6062 390.782L45.3494 390.358L46.3667 387.51L44.1098 387.087L43.0925 389.935L40.8356 389.511L41.8529 386.663L39.5961 386.24L38.5788 389.088L36.0962 388.622L37.1135 385.774L34.8567 385.35L33.8394 388.198L31.5825 387.774L32.5998 384.926L30.3429 384.503L29.3256 387.351L27.0688 386.927L28.0861 384.079L25.8292 383.655L24.8119 386.503L22.5551 386.08L23.5724 383.232L24.5897 380.384L25.607 377.536L26.6243 374.688L27.6416 371.84L28.7606 368.707L29.7779 365.859L27.521 365.435L26.5037 368.283L25.3847 371.416L24.3674 374.264L23.3501 377.112L22.3328 379.96L21.3155 382.808L20.2982 385.656L18.0413 385.233L17.024 388.081L16.0067 390.929L14.9894 393.777L17.2463 394.2L19.5032 394.624L21.76 395.048L24.0169 395.471L26.2737 395.895L28.5306 396.318L30.7875 396.742L33.0443 397.166L35.5269 397.632L37.7837 398.055L40.0406 398.479L42.2975 398.903L44.5543 399.326L46.8112 399.75L49.0681 400.173L51.3249 400.597L53.5818 401.021L54.5991 398.173L55.6164 395.325L56.6337 392.477L54.3768 392.053ZM52.3422 397.749L50.0854 397.325L47.8285 396.902L45.5716 396.478L43.3148 396.055L41.0579 395.631L38.801 395.207L36.5442 394.784L34.0616 394.318L31.8048 393.894L29.5479 393.47L27.291 393.047L25.0342 392.623L22.7773 392.2L20.5205 391.776L18.2636 391.352L19.2809 388.504L21.5378 388.928L23.7946 389.352L26.0515 389.775L28.3083 390.199L30.5652 390.622L32.8221 391.046L35.0789 391.47L37.5615 391.936L39.8183 392.359L42.0752 392.783L44.3321 393.207L46.5889 393.63L48.8458 394.054L51.1027 394.477L53.3595 394.901L52.3422 397.749Z" fill="#9847FF"/>
</g>
<g filter="url(#filter4_d_201_8220)">
<path d="M900.392 434.314C900.073 434.362 899.747 434.285 899.482 434.099C899.218 433.913 899.035 433.633 898.972 433.316L895.077 433.909C894.914 433.935 894.748 433.928 894.588 433.888C894.428 433.849 894.277 433.779 894.145 433.681C894.012 433.583 893.9 433.461 893.815 433.319C893.73 433.178 893.673 433.022 893.649 432.859L892.869 427.739C892.819 427.41 892.902 427.075 893.099 426.807C893.296 426.539 893.591 426.361 893.92 426.311L897.815 425.717L897.663 424.719C897.613 424.39 897.695 424.055 897.892 423.787C898.089 423.519 898.384 423.341 898.713 423.291L902.608 422.697L902.24 420.282C902.19 419.954 902.273 419.619 902.47 419.351C902.667 419.083 902.962 418.904 903.291 418.854L906.046 418.435L905.552 415.191C905.502 414.863 905.584 414.527 905.781 414.26C905.978 413.992 906.274 413.813 906.602 413.763L908.865 413.419L908.272 409.524C908.222 409.195 908.304 408.86 908.501 408.592C908.698 408.324 908.994 408.146 909.322 408.095L911.093 407.826L910.499 403.931C910.449 403.602 910.532 403.267 910.729 402.999C910.926 402.731 911.221 402.553 911.55 402.503L913.756 402.167L913.288 399.097C913.238 398.768 913.321 398.433 913.518 398.165C913.715 397.897 914.01 397.719 914.339 397.669L916.768 397.299L916.255 393.931C916.205 393.603 916.288 393.267 916.485 393C916.682 392.732 916.977 392.553 917.306 392.503L920.801 391.971L920.153 387.722C920.103 387.393 920.186 387.058 920.383 386.79C920.58 386.522 920.875 386.344 921.204 386.294L924.763 385.752L924.561 384.431C924.511 384.102 924.594 383.767 924.791 383.499C924.988 383.231 925.283 383.053 925.612 383.003L930.736 382.222C931.064 382.172 931.4 382.255 931.667 382.452C931.935 382.649 932.114 382.944 932.164 383.273L932.365 384.594L935.906 384.054C936.235 384.004 936.57 384.087 936.838 384.284C937.105 384.481 937.284 384.776 937.334 385.105L937.533 386.411L940.695 385.93C941.024 385.88 941.359 385.962 941.627 386.159C941.895 386.356 942.073 386.652 942.123 386.98L942.431 388.999L945.334 388.556C945.663 388.506 945.998 388.589 946.266 388.786C946.534 388.983 946.712 389.278 946.762 389.607L947.414 393.888L948.724 393.688C949.053 393.638 949.388 393.721 949.656 393.918C949.924 394.115 950.102 394.41 950.153 394.739L950.932 399.859C950.982 400.188 950.9 400.523 950.703 400.791C950.506 401.059 950.211 401.237 949.882 401.287L947.626 401.631L948.102 404.754C948.127 404.917 948.12 405.083 948.081 405.243C948.042 405.403 947.971 405.554 947.874 405.686C947.776 405.819 947.653 405.931 947.512 406.016C947.371 406.101 947.214 406.158 947.051 406.182L943.719 406.69L943.921 408.014C943.971 408.343 943.889 408.678 943.692 408.945C943.495 409.213 943.199 409.392 942.871 409.442L937.747 410.222C937.418 410.272 937.083 410.19 936.815 409.993C936.547 409.796 936.369 409.501 936.319 409.172L936.233 408.609L932.908 409.115C932.579 409.165 932.244 409.083 931.976 408.886C931.709 408.689 931.53 408.393 931.48 408.065L931.166 406.004L931.095 406.015L931.378 407.87C931.428 408.199 931.345 408.534 931.148 408.802C930.951 409.07 930.656 409.248 930.327 409.298L929.973 409.352L930.23 411.038L930.584 410.984C930.913 410.934 931.248 411.016 931.516 411.213C931.783 411.41 931.962 411.706 932.012 412.034L932.504 415.267L934.424 414.975C934.752 414.925 935.087 415.007 935.355 415.204C935.623 415.401 935.802 415.697 935.852 416.025L936.017 417.112L939.176 416.631C939.505 416.581 939.84 416.664 940.107 416.861C940.375 417.058 940.554 417.353 940.604 417.682L940.773 418.794L944.095 418.288C944.423 418.238 944.759 418.32 945.026 418.517C945.294 418.714 945.473 419.01 945.523 419.338L945.631 420.047L947.865 419.706L947.724 418.779C947.674 418.45 947.756 418.115 947.953 417.847C948.15 417.579 948.445 417.4 948.774 417.35L953.544 416.624C953.872 416.574 954.208 416.656 954.475 416.853C954.743 417.05 954.922 417.346 954.972 417.675L955.688 422.377C955.738 422.706 955.656 423.041 955.459 423.308C955.262 423.576 954.966 423.755 954.638 423.805L951.097 424.344L951.238 425.272C951.288 425.601 951.205 425.936 951.008 426.204C950.811 426.471 950.516 426.65 950.187 426.7L900.392 434.314Z" fill="#9847FF"/>
<path d="M930.917 383.485L931.307 386.045L936.091 385.316L936.477 387.851L940.878 387.181L941.374 390.439L945.517 389.808L946.358 395.328L948.915 394.939L949.694 400.059L946.2 400.591L946.864 404.953L942.293 405.65L942.683 408.213L937.559 408.994L937.285 407.191L932.721 407.887L932.218 404.586L929.669 404.975L930.14 408.07L928.55 408.312L929.184 412.476L930.774 412.234L931.455 416.706L934.614 416.225L934.968 418.551L939.366 417.881L939.724 420.233L944.285 419.538L944.583 421.492L949.296 420.775L948.965 418.608L953.735 417.881L954.451 422.583L949.682 423.31L950.012 425.477L900.202 433.064L900.021 431.877L894.901 432.657L894.121 427.537L899.241 426.757L898.9 424.519L904.027 423.738L903.471 420.084L907.465 419.476L906.782 414.993L910.284 414.46L909.506 409.35L912.519 408.891L911.739 403.771L915.185 403.246L914.528 398.937L918.197 398.378L917.496 393.775L922.23 393.054L921.393 387.558L926.191 386.828L925.801 384.267L930.925 383.487L930.917 383.485ZM930.547 381.008L925.423 381.789C924.766 381.889 924.175 382.246 923.781 382.782C923.387 383.317 923.222 383.988 923.322 384.645L923.335 384.726L921.015 385.08C920.358 385.18 919.767 385.537 919.373 386.073C918.979 386.608 918.814 387.278 918.914 387.936L919.374 390.953L917.118 391.296C916.461 391.396 915.87 391.754 915.476 392.289C915.082 392.825 914.917 393.495 915.017 394.152L915.341 396.277L914.154 396.458C913.497 396.558 912.906 396.915 912.512 397.451C912.118 397.986 911.953 398.656 912.053 399.314L912.332 401.145L911.362 401.292C910.704 401.392 910.114 401.75 909.72 402.285C909.326 402.821 909.161 403.491 909.261 404.149L909.663 406.79L909.128 406.871C908.471 406.972 907.88 407.329 907.486 407.864C907.092 408.4 906.927 409.07 907.027 409.728L907.43 412.369L906.406 412.525C905.749 412.625 905.158 412.982 904.764 413.518C904.37 414.054 904.205 414.724 904.305 415.381L904.61 417.385L903.095 417.616C902.438 417.716 901.847 418.074 901.453 418.609C901.059 419.145 900.894 419.815 900.994 420.472L901.173 421.648L898.531 422.05C897.913 422.141 897.351 422.46 896.956 422.944C896.56 423.428 896.36 424.042 896.394 424.666L893.741 425.07C893.084 425.17 892.493 425.527 892.099 426.063C891.705 426.598 891.54 427.268 891.64 427.926L892.42 433.046C892.52 433.703 892.877 434.294 893.413 434.688C893.949 435.082 894.619 435.247 895.276 435.147L898.283 434.689C898.56 435.019 898.918 435.272 899.322 435.423C899.726 435.574 900.162 435.618 900.588 435.552L950.38 427.968C950.988 427.88 951.542 427.573 951.938 427.104C952.334 426.635 952.544 426.037 952.529 425.423L954.838 425.072C955.495 424.971 956.086 424.614 956.48 424.079C956.874 423.543 957.039 422.873 956.939 422.215L956.222 417.513C956.122 416.856 955.765 416.265 955.229 415.871C954.694 415.477 954.024 415.312 953.366 415.412L948.597 416.138C948.535 416.665 948.309 417.159 947.949 417.549C947.589 417.938 947.115 418.204 946.595 418.308C946.075 418.411 945.535 418.347 945.054 418.124C944.573 417.902 944.174 417.532 943.916 417.069L941.83 417.386C941.701 416.756 941.334 416.2 940.806 415.833C940.278 415.465 939.629 415.315 938.994 415.413L937.089 415.703C936.954 415.078 936.585 414.529 936.059 414.166C935.532 413.804 934.887 413.657 934.256 413.754L933.576 413.858L933.272 411.864C933.186 411.296 932.907 410.774 932.482 410.387C932.693 410.41 932.907 410.405 933.118 410.373L935.274 410.045C935.5 410.541 935.882 410.95 936.362 411.21C936.841 411.47 937.392 411.566 937.932 411.484L943.055 410.704C943.713 410.604 944.303 410.246 944.697 409.711C945.091 409.175 945.256 408.505 945.156 407.847L945.143 407.763L947.236 407.444C947.894 407.344 948.484 406.987 948.878 406.451C949.272 405.915 949.437 405.245 949.337 404.588L949.05 402.704L950.074 402.548C950.731 402.448 951.322 402.091 951.716 401.555C952.11 401.019 952.275 400.349 952.175 399.692L951.395 394.572C951.295 393.914 950.938 393.324 950.402 392.93C949.866 392.535 949.196 392.37 948.539 392.47L948.457 392.483L947.994 389.441C947.894 388.784 947.537 388.193 947.001 387.799C946.465 387.405 945.795 387.24 945.138 387.34L943.474 387.594L943.353 386.804C943.253 386.147 942.896 385.556 942.36 385.162C941.825 384.768 941.155 384.603 940.497 384.703L938.574 384.996L938.564 384.928C938.464 384.271 938.107 383.68 937.571 383.286C937.036 382.892 936.365 382.727 935.708 382.827L933.403 383.178L933.39 383.097C933.29 382.44 932.933 381.849 932.398 381.455C931.862 381.061 931.192 380.896 930.534 380.996L930.547 381.008Z" fill="white"/>
<path d="M948.953 418.624L949.284 420.791L944.571 421.509L944.272 419.551L939.708 420.246L939.35 417.895L934.973 418.561L934.619 416.235L931.464 416.716L930.783 412.243L929.189 412.486L928.555 408.322L930.149 408.079L929.677 404.984L932.227 404.596L932.729 407.896L937.294 407.201L937.568 409.003L942.688 408.224L942.298 405.663L946.873 404.967L946.208 400.601L949.703 400.068L948.923 394.948L946.36 395.339L945.519 389.822L941.38 390.452L940.884 387.195L936.479 387.866L936.091 385.316L931.307 386.045L930.917 383.485L925.797 384.265L926.187 386.825L921.385 387.556L922.222 393.051L917.488 393.773L918.19 398.383L914.525 398.941L915.181 403.247L911.732 403.772L912.512 408.892L909.499 409.351L910.279 414.475L906.777 415.008L907.46 419.488L903.469 420.096L904.025 423.75L898.902 424.53L899.243 426.768L894.122 427.548L894.903 432.672L900.023 431.892L900.203 433.074L944.879 426.27L949.999 425.49L949.669 423.323L954.435 422.597L953.72 417.898L948.953 418.624Z" fill="#E4D1FF"/>
<path d="M899.242 426.768L894.122 427.548L894.902 432.668L900.022 431.888L899.242 426.768Z" fill="#9847FF"/>
<path d="M904.022 423.75L898.902 424.53L899.682 429.65L904.802 428.871L904.022 423.75Z" fill="#9847FF"/>
<path d="M908.589 419.316L903.469 420.095L904.249 425.216L909.369 424.436L908.589 419.316Z" fill="#9847FF"/>
<path d="M911.897 414.225L906.777 415.005L907.557 420.125L912.677 419.345L911.897 414.225Z" fill="#9847FF"/>
<path d="M914.619 408.571L909.499 409.351L910.279 414.472L915.399 413.692L914.619 408.571Z" fill="#9847FF"/>
<path d="M916.852 402.992L911.732 403.772L912.512 408.892L917.632 408.113L916.852 402.992Z" fill="#9847FF"/>
<path d="M919.646 398.161L914.525 398.941L915.305 404.061L920.425 403.281L919.646 398.161Z" fill="#9847FF"/>
<path d="M922.608 392.993L917.488 393.772L918.268 398.893L923.388 398.113L922.608 392.993Z" fill="#9847FF"/>
<path d="M926.505 386.776L921.385 387.556L922.421 394.358L927.541 393.578L926.505 386.776Z" fill="#9847FF"/>
<path d="M930.917 383.485L925.796 384.264L926.576 389.385L931.696 388.605L930.917 383.485Z" fill="#9847FF"/>
<path d="M936.09 385.316L931.307 386.045L932.087 391.165L936.87 390.436L936.09 385.316Z" fill="#9847FF"/>
<path d="M940.884 387.195L936.1 387.923L936.88 393.044L941.664 392.315L940.884 387.195Z" fill="#9847FF"/>
<path d="M945.519 389.818L940.735 390.547L941.66 396.62L946.444 395.891L945.519 389.818Z" fill="#9847FF"/>
<path d="M946.093 399.843L940.973 400.623L941.753 405.743L946.873 404.963L946.093 399.843Z" fill="#9847FF"/>
<path d="M948.92 394.949L943.8 395.729L944.58 400.849L949.7 400.069L948.92 394.949Z" fill="#9847FF"/>
<path d="M941.908 403.1L936.788 403.88L937.567 409L942.688 408.22L941.908 403.1Z" fill="#9847FF"/>
<path d="M937.069 401.993L931.949 402.772L932.729 407.893L937.849 407.113L937.069 401.993Z" fill="#9847FF"/>
<path d="M932.052 399.38L926.932 400.16L927.712 405.28L932.832 404.5L932.052 399.38Z" fill="#9847FF"/>
<path d="M929.433 403.381L924.313 404.16L925.029 408.859L930.149 408.079L929.433 403.381Z" fill="#9847FF"/>
<path d="M928.474 407.787L923.354 408.567L924.069 413.266L929.189 412.486L928.474 407.787Z" fill="#9847FF"/>
<path d="M930.783 412.243L925.663 413.023L926.378 417.722L931.498 416.942L930.783 412.243Z" fill="#9847FF"/>
<path d="M934.619 416.235L929.499 417.015L930.215 421.714L935.335 420.934L934.619 416.235Z" fill="#9847FF"/>
<path d="M939.35 417.895L934.229 418.675L934.945 423.373L940.065 422.594L939.35 417.895Z" fill="#9847FF"/>
<path d="M944.269 419.551L939.148 420.331L939.864 425.03L944.984 424.25L944.269 419.551Z" fill="#9847FF"/>
<path d="M949.284 420.791L944.164 421.571L944.879 426.27L949.999 425.49L949.284 420.791Z" fill="#9847FF"/>
<path d="M953.719 417.898L948.953 418.624L949.669 423.323L954.435 422.597L953.719 417.898Z" fill="#9847FF"/>
</g>
<g filter="url(#filter5_d_201_8220)">
<path d="M23.9123 63.0953C23.6065 63.034 23.336 62.8573 23.157 62.6019C22.9781 62.3464 22.9043 62.0319 22.9511 61.7235L19.221 60.9824C19.0649 60.9518 18.9163 60.8907 18.784 60.8026C18.6516 60.7145 18.538 60.601 18.4496 60.4688C18.3612 60.3366 18.2998 60.1882 18.269 60.0322C18.2381 59.8761 18.2385 59.7156 18.2699 59.5597L19.2442 54.6562C19.3067 54.3415 19.4918 54.0644 19.7586 53.8861C20.0254 53.7077 20.3521 53.6427 20.6669 53.7052L24.397 54.4464L24.587 53.4901C24.6496 53.1753 24.8346 52.8983 25.1014 52.7199C25.3682 52.5415 25.695 52.4765 26.0097 52.539L29.7399 53.2802L30.1994 50.9675C30.2619 50.6527 30.447 50.3757 30.7138 50.1973C30.9806 50.019 31.3073 49.9539 31.6221 50.0165L34.2603 50.5407L34.8775 47.4345C34.9401 47.1197 35.1251 46.8427 35.3919 46.6643C35.6587 46.4859 35.9854 46.4209 36.3002 46.4834L38.467 46.914L39.2082 43.1838C39.2707 42.869 39.4558 42.592 39.7226 42.4137C39.9894 42.2353 40.3161 42.1702 40.6309 42.2328L42.3264 42.5697L43.0676 38.8395C43.1301 38.5247 43.3151 38.2477 43.5819 38.0694C43.8488 37.891 44.1755 37.8259 44.4903 37.8885L46.6029 38.3082L47.187 35.3682C47.2496 35.0535 47.4346 34.7764 47.7014 34.5981C47.9682 34.4197 48.2949 34.3546 48.6097 34.4172L50.936 34.8794L51.5768 31.6545C51.6393 31.3397 51.8243 31.0627 52.0912 30.8844C52.358 30.706 52.6847 30.6409 52.9995 30.7035L56.3464 31.3685L57.1549 27.2992C57.2175 26.9845 57.4025 26.7074 57.6693 26.5291C57.9361 26.3507 58.2628 26.2857 58.5776 26.3482L61.9856 27.0253L62.2369 25.7605C62.2995 25.4457 62.4845 25.1686 62.7513 24.9903C63.0181 24.8119 63.3448 24.7469 63.6596 24.8095L68.5665 25.7844C68.8812 25.847 69.1583 26.0319 69.3366 26.2988C69.515 26.5656 69.58 26.8923 69.5175 27.2071L69.2662 28.472L72.6572 29.1457C72.972 29.2083 73.249 29.3933 73.4274 29.6601C73.6057 29.9269 73.6708 30.2536 73.6083 30.5684L73.3596 31.8197L76.3879 32.4214C76.7027 32.4839 76.9797 32.669 77.1581 32.9358C77.3364 33.2026 77.4015 33.5293 77.3389 33.8441L76.9549 35.777L79.7355 36.3295C80.0503 36.392 80.3273 36.577 80.5057 36.8438C80.684 37.1106 80.7491 37.4374 80.6866 37.7522L79.872 41.8519L81.1266 42.1012C81.4414 42.1638 81.7184 42.3488 81.8968 42.6156C82.0752 42.8824 82.1402 43.2092 82.0777 43.5239L81.1034 48.4274C81.0409 48.7421 80.8558 49.0192 80.589 49.1975C80.3222 49.3759 79.9955 49.4409 79.6807 49.3784L77.5206 48.9492L76.9263 51.9401C76.8957 52.0962 76.8347 52.2447 76.7465 52.3771C76.6584 52.5095 76.545 52.6231 76.4128 52.7115C76.2806 52.7999 76.1322 52.8612 75.9761 52.8921C75.8201 52.9229 75.6595 52.9226 75.5036 52.8912L72.3127 52.2571L72.0607 53.5254C71.9981 53.8402 71.8131 54.1172 71.5463 54.2956C71.2795 54.4739 70.9528 54.539 70.638 54.4764L65.7312 53.5015C65.4164 53.4389 65.1393 53.2539 64.961 52.9871C64.7826 52.7203 64.7176 52.3936 64.7801 52.0788L64.8872 51.5396L61.7031 50.9069C61.3883 50.8444 61.1112 50.6594 60.9328 50.3926C60.7545 50.1257 60.6895 49.799 60.7521 49.4842L61.1442 47.5107L61.0763 47.4972L60.7232 49.2741C60.6607 49.5888 60.4757 49.8659 60.2089 50.0442C59.9421 50.2226 59.6153 50.2877 59.3006 50.2251L58.9615 50.1577L58.6407 51.7719L58.9798 51.8392C59.2946 51.9018 59.5716 52.0868 59.75 52.3536C59.9283 52.6204 59.9934 52.9472 59.9309 53.2619L59.3157 56.358L61.1537 56.7232C61.4685 56.7857 61.7455 56.9707 61.9239 57.2375C62.1022 57.5044 62.1673 57.8311 62.1048 58.1459L61.8979 59.1869L64.9227 59.7879C65.2375 59.8504 65.5145 60.0355 65.6929 60.3023C65.8712 60.5691 65.9363 60.8958 65.8737 61.2106L65.6622 62.2754L68.8429 62.9074C69.1577 62.9699 69.4348 63.155 69.6132 63.4218C69.7915 63.6886 69.8565 64.0153 69.794 64.3301L69.6592 65.0083L71.799 65.4334L71.9755 64.545C72.0381 64.2302 72.2231 63.9532 72.4899 63.7748C72.7567 63.5965 73.0834 63.5314 73.3982 63.5939L77.9659 64.5015C78.2807 64.5641 78.5577 64.7491 78.7361 65.0159C78.9144 65.2827 78.9795 65.6094 78.917 65.9242L78.0222 70.4275C77.9596 70.7423 77.7746 71.0193 77.5078 71.1977C77.241 71.376 76.9143 71.4411 76.5995 71.3786L73.2085 70.7048L73.0319 71.5932C72.9694 71.908 72.7843 72.185 72.5175 72.3634C72.2507 72.5417 71.924 72.6068 71.6092 72.5443L23.9123 63.0953Z" fill="#9847FF"/>
<path d="M68.3164 26.9897L67.8293 29.4414L72.4106 30.3517L71.9281 32.7797L76.1433 33.6172L75.5234 36.737L79.4909 37.5253L78.4405 42.8119L80.8888 43.2984L79.9145 48.2018L76.5675 47.5368L75.7374 51.7146L71.3596 50.8447L70.8718 53.2999L65.965 52.3249L66.3079 50.5988L61.9369 49.7304L62.5649 46.5699L60.1232 46.0848L59.5344 49.0486L58.0118 48.746L57.2194 52.7339L58.742 53.0364L57.891 57.3193L60.9159 57.9203L60.4732 60.1482L64.6848 60.9851L64.2375 63.2367L68.6051 64.1045L68.2332 65.9764L72.7467 66.8732L73.159 64.7979L77.7267 65.7055L76.832 70.2088L72.2642 69.3012L71.8519 71.3765L24.1501 61.8985L24.3758 60.7624L19.4724 59.7881L20.4467 54.8847L25.3501 55.859L25.7759 53.7159L30.6861 54.6915L31.3815 51.1919L35.2066 51.952L36.0596 47.6589L39.4133 48.3253L40.3856 43.432L43.2714 44.0054L44.2456 39.1019L47.5451 39.7575L48.3651 35.6306L51.8783 36.3287L52.7542 31.9203L57.288 32.8211L58.3337 27.5582L62.9286 28.4712L63.4157 26.0195L68.3225 26.9944L68.3164 26.9897ZM68.7942 24.6207L63.8873 23.6458C63.2578 23.5207 62.6043 23.6508 62.0707 24.0075C61.5371 24.3642 61.167 24.9183 61.042 25.5478L61.0265 25.6258L58.8053 25.1845C58.1758 25.0594 57.5223 25.1895 56.9887 25.5463C56.4551 25.903 56.085 26.457 55.9599 27.0866L55.3859 29.9758L53.2258 29.5466C52.5963 29.4215 51.9428 29.5516 51.4092 29.9083C50.8756 30.265 50.5055 30.8191 50.3805 31.4487L49.9762 33.4833L48.8401 33.2576C48.2106 33.1325 47.5571 33.2626 47.0235 33.6193C46.4899 33.976 46.1199 34.5301 45.9948 35.1596L45.6464 36.9128L44.7173 36.7282C44.0877 36.6031 43.4343 36.7332 42.9007 37.0899C42.3671 37.4466 41.997 38.0007 41.8719 38.6303L41.3693 41.16L40.8572 41.0583C40.2277 40.9332 39.5742 41.0633 39.0406 41.42C38.507 41.7767 38.1369 42.3308 38.0118 42.9603L37.5092 45.49L36.5292 45.2953C35.8997 45.1702 35.2462 45.3004 34.7126 45.6571C34.179 46.0138 33.8089 46.5679 33.6839 47.1974L33.3025 49.1168L31.8511 48.8284C31.2216 48.7033 30.5681 48.8334 30.0345 49.1901C29.5009 49.5468 29.1308 50.1009 29.0057 50.7305L28.782 51.8563L26.2523 51.3536C25.6613 51.2333 25.0467 51.338 24.5288 51.6472C24.0109 51.9564 23.6272 52.4478 23.4528 53.0251L20.9129 52.5205C20.2833 52.3954 19.6299 52.5255 19.0963 52.8823C18.5627 53.239 18.1926 53.793 18.0675 54.4226L17.0932 59.326C16.9681 59.9556 17.0983 60.6091 17.455 61.1427C17.8117 61.6763 18.3658 62.0463 18.9953 62.1714L21.8743 62.7434C22.0179 63.134 22.2598 63.481 22.5767 63.7508C22.8936 64.0206 23.2747 64.2041 23.6832 64.2837L71.368 73.7584C71.9482 73.8784 72.5524 73.7815 73.0659 73.486C73.5793 73.1904 73.9665 72.7167 74.1541 72.1547L76.3651 72.594C76.9946 72.7191 77.6481 72.589 78.1817 72.2323C78.7153 71.8756 79.0854 71.3215 79.2105 70.6919L80.1052 66.1886C80.2303 65.5591 80.1002 64.9056 79.7435 64.372C79.3868 63.8384 78.8327 63.4684 78.2031 63.3433L73.6354 62.4357C73.4067 62.8937 73.0386 63.2673 72.5841 63.5029C72.1297 63.7385 71.6122 63.8239 71.1061 63.7468C70.6 63.6698 70.1313 63.4342 69.7676 63.074C69.4038 62.7139 69.1636 62.2476 69.0815 61.7423L67.0842 61.3455C67.1737 60.7311 67.0237 60.1058 66.6651 59.5989C66.3066 59.0921 65.767 58.7424 65.1579 58.6222L63.3334 58.2597C63.4163 57.6484 63.2626 57.0285 62.9037 56.5267C62.5448 56.025 62.0077 55.6792 61.4024 55.5601L60.7513 55.4308L61.1307 53.5216C61.2392 52.9773 61.1573 52.4122 60.8988 51.921C61.0831 52.0117 61.2786 52.0778 61.4801 52.1176L63.5453 52.528C63.5875 53.0527 63.7997 53.5494 64.1496 53.9427C64.4996 54.336 64.9682 54.6045 65.4845 54.7074L70.3913 55.6824C71.0209 55.8075 71.6743 55.6774 72.2079 55.3207C72.7415 54.964 73.1116 54.4099 73.2367 53.7803L73.2529 53.6989L75.257 54.0971C75.8866 54.2222 76.54 54.0921 77.0736 53.7354C77.6073 53.3787 77.9773 52.8246 78.1024 52.1951L78.4609 50.391L79.4408 50.5858C80.0704 50.7109 80.7238 50.5807 81.2574 50.224C81.7911 49.8673 82.1611 49.3132 82.2862 48.6837L83.2605 43.7802C83.3856 43.1506 83.2555 42.4972 82.8987 41.9636C82.542 41.43 81.988 41.0599 81.3584 40.9348L81.2804 40.9193L81.8592 38.0064C81.9843 37.3769 81.8542 36.7234 81.4974 36.1898C81.1407 35.6562 80.5867 35.2861 79.9571 35.1611L78.3634 34.8444L78.5136 34.0882C78.6387 33.4586 78.5086 32.8052 78.1518 32.2716C77.7951 31.738 77.2411 31.3679 76.6115 31.2428L74.7701 30.8769L74.7829 30.8125C74.908 30.183 74.778 29.5295 74.4212 28.9959C74.0645 28.4623 73.5104 28.0922 72.8808 27.9671L70.6733 27.5285L70.6888 27.4505C70.8139 26.8209 70.6838 26.1675 70.3271 25.6339C69.9704 25.1003 69.4162 24.7302 68.7867 24.6051L68.7942 24.6207Z" fill="white"/>
<path d="M73.1422 64.8087L72.7298 66.884L68.2163 65.9872L68.5889 64.112L64.2179 63.2435L64.6653 60.9918L60.4739 60.159L60.9166 57.9311L57.8952 57.3308L58.7462 53.0479L57.2202 52.7447L58.0126 48.7568L59.5385 49.06L60.1274 46.0963L62.569 46.5814L61.941 49.7418L66.3121 50.6103L65.9691 52.3364L70.8726 53.3107L71.3597 50.8589L75.7409 51.7295L76.5717 47.5483L79.9187 48.2133L80.893 43.3099L78.4378 42.8221L79.4876 37.5388L75.5235 36.7512L76.1433 33.6314L71.9249 32.7932L72.41 30.3517L67.8287 29.4414L68.3158 26.9897L63.4124 26.0154L62.9253 28.4671L58.327 27.5535L57.2813 32.8164L52.7475 31.9155L51.8702 36.3307L48.3605 35.6333L47.5412 39.7568L44.2383 39.1005L43.264 44.004L40.3782 43.4306L39.4033 48.3374L36.0495 47.6711L35.1972 51.9607L31.3755 51.2014L30.6801 54.701L25.7733 53.726L25.3475 55.8691L20.444 54.8948L19.4691 59.8017L24.3725 60.776L24.1475 61.9086L66.9323 70.4097L71.8357 71.384L72.2481 69.3086L76.8124 70.2155L77.7065 65.7156L73.1422 64.8087Z" fill="#E4D1FF"/>
<path d="M25.3478 55.8693L20.4443 54.895L19.47 59.7985L24.3735 60.7728L25.3478 55.8693Z" fill="#9847FF"/>
<path d="M30.6769 54.7001L25.7734 53.7258L24.7992 58.6293L29.7026 59.6036L30.6769 54.7001Z" fill="#9847FF"/>
<path d="M36.2794 52.1755L31.376 51.2012L30.4017 56.1046L35.3051 57.0789L36.2794 52.1755Z" fill="#9847FF"/>
<path d="M40.9547 48.6425L36.0513 47.6682L35.077 52.5717L39.9804 53.5459L40.9547 48.6425Z" fill="#9847FF"/>
<path d="M45.2824 44.4047L40.3789 43.4304L39.4046 48.3339L44.3081 49.3082L45.2824 44.4047Z" fill="#9847FF"/>
<path d="M49.1417 40.0746L44.2383 39.1003L43.264 44.0038L48.1674 44.9781L49.1417 40.0746Z" fill="#9847FF"/>
<path d="M53.2643 36.6076L48.3608 35.6333L47.3866 40.5367L52.29 41.511L53.2643 36.6076Z" fill="#9847FF"/>
<path d="M57.652 32.8901L52.7485 31.9158L51.7742 36.8192L56.6777 37.7935L57.652 32.8901Z" fill="#9847FF"/>
<path d="M63.2306 28.528L58.3271 27.5537L57.0328 34.0679L61.9363 35.0422L63.2306 28.528Z" fill="#9847FF"/>
<path d="M68.3165 26.9897L63.4131 26.0154L62.4388 30.9188L67.3422 31.8931L68.3165 26.9897Z" fill="#9847FF"/>
<path d="M72.4104 30.3519L67.8291 29.4417L66.8548 34.3451L71.4361 35.2554L72.4104 30.3519Z" fill="#9847FF"/>
<path d="M76.1438 33.6315L71.5625 32.7212L70.5882 37.6246L75.1695 38.5349L76.1438 33.6315Z" fill="#9847FF"/>
<path d="M79.488 37.5353L74.9067 36.625L73.7512 42.4406L78.3325 43.3509L79.488 37.5353Z" fill="#9847FF"/>
<path d="M76.7164 46.8229L71.813 45.8486L70.8387 50.7521L75.7421 51.7264L76.7164 46.8229Z" fill="#9847FF"/>
<path d="M80.8908 43.3092L75.9873 42.335L75.013 47.2384L79.9165 48.2127L80.8908 43.3092Z" fill="#9847FF"/>
<path d="M71.8473 48.4037L66.9438 47.4294L65.9696 52.3329L70.873 53.3072L71.8473 48.4037Z" fill="#9847FF"/>
<path d="M67.82 45.8092L62.9165 44.835L61.9422 49.7384L66.8457 50.7127L67.82 45.8092Z" fill="#9847FF"/>
<path d="M64.1242 41.7897L59.2207 40.8154L58.2464 45.7189L63.1499 46.6932L64.1242 41.7897Z" fill="#9847FF"/>
<path d="M60.4332 44.56L55.5298 43.5857L54.6357 48.0856L59.5391 49.0599L60.4332 44.56Z" fill="#9847FF"/>
<path d="M58.1154 48.2445L53.2119 47.2703L52.3178 51.7702L57.2213 52.7445L58.1154 48.2445Z" fill="#9847FF"/>
<path d="M58.7467 53.048L53.8433 52.0737L52.9492 56.5736L57.8526 57.5479L58.7467 53.048Z" fill="#9847FF"/>
<path d="M60.9176 57.9308L56.0142 56.9565L55.1201 61.4565L60.0235 62.4307L60.9176 57.9308Z" fill="#9847FF"/>
<path d="M64.6652 60.9921L59.7617 60.0178L58.8676 64.5177L63.7711 65.492L64.6652 60.9921Z" fill="#9847FF"/>
<path d="M68.5856 64.1115L63.6821 63.1372L62.788 67.6371L67.6915 68.6114L68.5856 64.1115Z" fill="#9847FF"/>
<path d="M72.7301 66.8842L67.8267 65.9099L66.9326 70.4098L71.836 71.3841L72.7301 66.8842Z" fill="#9847FF"/>
<path d="M77.7064 65.7157L73.1421 64.8088L72.248 69.3088L76.8123 70.2157L77.7064 65.7157Z" fill="#9847FF"/>
</g>
<defs>
<filter id="filter0_d_201_8220" x="911.171" y="46.3298" width="57.3134" height="72.5066" filterUnits="userSpaceOnUse" color-interpolation-filters="sRGB">
<feFlood flood-opacity="0" result="BackgroundImageFix"/>
<feColorMatrix in="SourceAlpha" type="matrix" values="0 0 0 0 0 0 0 0 0 0 0 0 0 0 0 0 0 0 127 0" result="hardAlpha"/>
<feOffset dx="2.21816" dy="2.95755"/>
<feComposite in2="hardAlpha" operator="out"/>
<feColorMatrix type="matrix" values="0 0 0 0 0.596078 0 0 0 0 0.278431 0 0 0 0 1 0 0 0 0.25 0"/>
<feBlend mode="normal" in2="BackgroundImageFix" result="effect1_dropShadow_201_8220"/>
<feBlend mode="normal" in="SourceGraphic" in2="effect1_dropShadow_201_8220" result="shape"/>
</filter>
<filter id="filter1_d_201_8220" x="880.104" y="3.38525" width="31.8729" height="40.4049" filterUnits="userSpaceOnUse" color-interpolation-filters="sRGB">
<feFlood flood-opacity="0" result="BackgroundImageFix"/>
<feColorMatrix in="SourceAlpha" type="matrix" values="0 0 0 0 0 0 0 0 0 0 0 0 0 0 0 0 0 0 127 0" result="hardAlpha"/>
<feOffset dx="2.40756" dy="3.21008"/>
<feComposite in2="hardAlpha" operator="out"/>
<feColorMatrix type="matrix" values="0 0 0 0 0.596078 0 0 0 0 0.278431 0 0 0 0 1 0 0 0 0.25 0"/>
<feBlend mode="normal" in2="BackgroundImageFix" result="effect1_dropShadow_201_8220"/>
<feBlend mode="normal" in="SourceGraphic" in2="effect1_dropShadow_201_8220" result="shape"/>
</filter>
<filter id="filter2_d_201_8220" x="984.675" y="24.012" width="21.3798" height="27.4447" filterUnits="userSpaceOnUse" color-interpolation-filters="sRGB">
<feFlood flood-opacity="0" result="BackgroundImageFix"/>
<feColorMatrix in="SourceAlpha" type="matrix" values="0 0 0 0 0 0 0 0 0 0 0 0 0 0 0 0 0 0 127 0" result="hardAlpha"/>
<feOffset dx="1.32417" dy="2.12735"/>
<feComposite in2="hardAlpha" operator="out"/>
<feColorMatrix type="matrix" values="0 0 0 0 0.596078 0 0 0 0 0.278431 0 0 0 0 1 0 0 0 0.25 0"/>
<feBlend mode="normal" in2="BackgroundImageFix" result="effect1_dropShadow_201_8220"/>
<feBlend mode="normal" in="SourceGraphic" in2="effect1_dropShadow_201_8220" result="shape"/>
</filter>
<filter id="filter3_d_201_8220" x="11.144" y="315.579" width="70.701" height="93.0422" filterUnits="userSpaceOnUse" color-interpolation-filters="sRGB">
<feFlood flood-opacity="0" result="BackgroundImageFix"/>
<feColorMatrix in="SourceAlpha" type="matrix" values="0 0 0 0 0 0 0 0 0 0 0 0 0 0 0 0 0 0 127 0" result="hardAlpha"/>
<feOffset dx="2.85828" dy="3.81104"/>
<feComposite in2="hardAlpha" operator="out"/>
<feColorMatrix type="matrix" values="0 0 0 0 0.596078 0 0 0 0 0.278431 0 0 0 0 1 0 0 0 0.25 0"/>
<feBlend mode="normal" in2="BackgroundImageFix" result="effect1_dropShadow_201_8220"/>
<feBlend mode="normal" in="SourceGraphic" in2="effect1_dropShadow_201_8220" result="shape"/>
</filter>
<filter id="filter4_d_201_8220" x="891.612" y="380.967" width="67.5736" height="57.5723" filterUnits="userSpaceOnUse" color-interpolation-filters="sRGB">
<feFlood flood-opacity="0" result="BackgroundImageFix"/>
<feColorMatrix in="SourceAlpha" type="matrix" values="0 0 0 0 0 0 0 0 0 0 0 0 0 0 0 0 0 0 127 0" result="hardAlpha"/>
<feOffset dx="2.21816" dy="2.95755"/>
<feComposite in2="hardAlpha" operator="out"/>
<feColorMatrix type="matrix" values="0 0 0 0 0.596078 0 0 0 0 0.278431 0 0 0 0 1 0 0 0 0.25 0"/>
<feBlend mode="normal" in2="BackgroundImageFix" result="effect1_dropShadow_201_8220"/>
<feBlend mode="normal" in="SourceGraphic" in2="effect1_dropShadow_201_8220" result="shape"/>
</filter>
<filter id="filter5_d_201_8220" x="17.0469" y="23.5994" width="68.4784" height="53.1668" filterUnits="userSpaceOnUse" color-interpolation-filters="sRGB">
<feFlood flood-opacity="0" result="BackgroundImageFix"/>
<feColorMatrix in="SourceAlpha" type="matrix" values="0 0 0 0 0 0 0 0 0 0 0 0 0 0 0 0 0 0 127 0" result="hardAlpha"/>
<feOffset dx="2.21816" dy="2.95755"/>
<feComposite in2="hardAlpha" operator="out"/>
<feColorMatrix type="matrix" values="0 0 0 0 0.596078 0 0 0 0 0.278431 0 0 0 0 1 0 0 0 0.25 0"/>
<feBlend mode="normal" in2="BackgroundImageFix" result="effect1_dropShadow_201_8220"/>
<feBlend mode="normal" in="SourceGraphic" in2="effect1_dropShadow_201_8220" result="shape"/>
</filter>
</defs>
</svg>
