<svg width="1039" height="500" viewBox="0 0 1039 500" fill="none" xmlns="http://www.w3.org/2000/svg">
<g filter="url(#filter0_d_1_5)">
<path d="M62.3828 354.297V359.01H60.0527V361.34H57.6696V363.67H55.3395V366.053H53.0094V368.383H48.2963V370.713H41.253V373.096H31.8796V370.713H24.8363V368.383H20.1232V366.053H17.7931V363.67H15.463V361.34H13.0799V359.01H10.7498V354.297H8.41968V347.253H6.03662V337.88H8.41968V330.837H10.7498V326.124H13.0799V323.794H15.463V321.463H17.7931V319.08H20.1232V316.75H24.8363V314.42H31.8796V312.037H41.253V314.42H48.2963V316.75H53.0094V319.08H55.3395V321.463H57.6696V323.794H60.0527V326.124H62.3828V330.837H64.7129V337.88H67.096V347.253H64.7129V354.297H62.3828Z" fill="#B3BDFF"/>
<path d="M69.4263 337.88H67.0962V347.253H69.4263V337.88Z" fill="#1130FF"/>
<path d="M67.043 347.253H64.7129V354.296H67.043V347.253Z" fill="#1130FF"/>
<path d="M67.043 330.837H64.7129V337.88H67.043V330.837Z" fill="#1130FF"/>
<path d="M64.7129 326.123H62.3828V330.836H64.7129V326.123Z" fill="#1130FF"/>
<path d="M64.7129 354.296H62.3828V359.01H64.7129V354.296Z" fill="#1130FF"/>
<path d="M62.3828 323.793H60.0527V326.123H62.3828V323.793Z" fill="#1130FF"/>
<path d="M62.3828 359.009H60.0527V361.339H62.3828V359.009Z" fill="#1130FF"/>
<path d="M60 321.463H57.6699V323.793H60V321.463Z" fill="#1130FF"/>
<path d="M60 361.339H57.6699V363.669H60V361.339Z" fill="#1130FF"/>
<path d="M57.6699 319.08H55.3398V321.41H57.6699V319.08Z" fill="#1130FF"/>
<path d="M57.6699 363.669H55.3398V366H57.6699V363.669Z" fill="#1130FF"/>
<path d="M55.3394 316.75H53.0093V319.08H55.3394V316.75Z" fill="#1130FF"/>
<path d="M55.3394 366.053H53.0093V368.383H55.3394V366.053Z" fill="#1130FF"/>
<path d="M53.0096 314.419H48.2964V316.75H53.0096V314.419Z" fill="#1130FF"/>
<path d="M53.0096 368.383H48.2964V370.713H53.0096V368.383Z" fill="#1130FF"/>
<path d="M48.2962 370.713H41.2529V373.043H48.2962V370.713Z" fill="#1130FF"/>
<path d="M48.2962 312.037H41.2529V314.367H48.2962V312.037Z" fill="#1130FF"/>
<path d="M41.2533 373.096H31.8799V375.426H41.2533V373.096Z" fill="#1130FF"/>
<path d="M41.2533 309.707H31.8799V312.037H41.2533V309.707Z" fill="#1130FF"/>
<path d="M31.8797 370.713H24.8364V373.043H31.8797V370.713Z" fill="#1130FF"/>
<path d="M31.8797 312.037H24.8364V314.367H31.8797V312.037Z" fill="#1130FF"/>
<path d="M24.8367 314.419H20.1235V316.75H24.8367V314.419Z" fill="#1130FF"/>
<path d="M24.8367 368.383H20.1235V370.713H24.8367V368.383Z" fill="#1130FF"/>
<path d="M20.1231 316.75H17.793V319.08H20.1231V316.75Z" fill="#1130FF"/>
<path d="M20.1231 366.053H17.793V368.383H20.1231V366.053Z" fill="#1130FF"/>
<path d="M17.7935 319.08H15.4634V321.41H17.7935V319.08Z" fill="#1130FF"/>
<path d="M17.7935 363.669H15.4634V366H17.7935V363.669Z" fill="#1130FF"/>
<path d="M15.4102 321.463H13.0801V323.793H15.4102V321.463Z" fill="#1130FF"/>
<path d="M15.4102 361.339H13.0801V363.669H15.4102V361.339Z" fill="#1130FF"/>
<path d="M13.0796 323.793H10.7495V326.123H13.0796V323.793Z" fill="#1130FF"/>
<path d="M13.0796 359.009H10.7495V361.339H13.0796V359.009Z" fill="#1130FF"/>
<path d="M10.75 326.123H8.41992V330.836H10.75V326.123Z" fill="#1130FF"/>
<path d="M10.75 354.296H8.41992V359.01H10.75V354.296Z" fill="#1130FF"/>
<path d="M8.36673 330.837H6.03662V337.88H8.36673V330.837Z" fill="#1130FF"/>
<path d="M8.36673 347.253H6.03662V354.296H8.36673V347.253Z" fill="#1130FF"/>
<path d="M6.03665 337.88H3.70654V347.253H6.03665V337.88Z" fill="#1130FF"/>
<path d="M69.4266 377.756V380.139H62.3833V377.756H60.0532V370.712H62.3833V368.382H69.4266V370.712H71.7567V377.756H69.4266Z" fill="#B3BDFF"/>
<path d="M74.0869 370.712H71.7568V377.756H74.0869V370.712Z" fill="#1130FF"/>
<path d="M71.7569 377.755H69.4268V380.085H71.7569V377.755Z" fill="#1130FF"/>
<path d="M71.7569 368.382H69.4268V370.712H71.7569V368.382Z" fill="#1130FF"/>
<path d="M69.4271 380.138H62.3838V382.468H69.4271V380.138Z" fill="#1130FF"/>
<path d="M69.4271 366.052H62.3838V368.382H69.4271V366.052Z" fill="#1130FF"/>
<path d="M62.3833 368.382H60.0532V370.712H62.3833V368.382Z" fill="#1130FF"/>
<path d="M62.3833 377.755H60.0532V380.085H62.3833V377.755Z" fill="#1130FF"/>
<path d="M60.0005 370.712H57.6704V377.756H60.0005V370.712Z" fill="#1130FF"/>
<path d="M78.8528 382.47H74.1396V387.183H78.8528V382.47Z" fill="#B3BDFF"/>
<path d="M81.1299 382.47H78.7998V387.183H81.1299V382.47Z" fill="#1130FF"/>
<path d="M78.8528 380.139H74.1396V382.469H78.8528V380.139Z" fill="#1130FF"/>
<path d="M78.8528 387.13H74.1396V389.46H78.8528V387.13Z" fill="#1130FF"/>
<path d="M74.0869 382.47H71.7568V387.183H74.0869V382.47Z" fill="#1130FF"/>
<path d="M41.2535 309.707V312.037H48.2967V314.367H53.0099V316.697H55.34V319.027H57.6701V321.358H60.0002V323.688H62.3303V326.124H64.6604V330.837H66.9905V337.88H69.3206V347.253H66.9905V354.297H64.6604V359.01H62.3303V361.34H60.0002V363.67H57.6701V366H55.34V368.33H53.0099V370.66H48.2967V372.991H41.2535V375.321H31.8801V372.991H24.8368V370.66H20.1236V368.33H17.7935V366H15.4634V363.67H13.1333V361.34H10.8032V359.01H8.47311V354.297H6.14301V347.253H3.70699V337.88H6.03709V330.837H8.3672V326.124H10.6973V323.794H13.0274V321.463H15.3575V319.133H17.6876V316.803H20.1236V314.473H24.8368V312.143H31.8801V309.707H41.2535ZM69.4266 366.053V368.383H71.7567V370.713H74.0868V377.757H71.7567V380.087H69.4266V382.417H62.3833V380.14H60.0532V377.81H57.7231V370.766H60.0532V368.436H62.3833V366.106H69.4266V366.053ZM78.7999 380.14V382.47H81.13V387.183H78.7999V389.513H74.1397V387.183H71.8096V382.47H74.1397V380.14H78.7999ZM44.9604 306H41.2535H31.8801H28.1731V308.33H24.8368H21.1298V310.66H20.1236H16.4167V312.99H14.0865V315.32H11.7564V317.651H9.42634V319.981H7.09623V322.417H4.71317V326.124V327.13H2.33011V330.837V334.173H0V337.88V347.253V350.96H2.33011V354.297V358.004H4.66021V359.01V362.717H6.99032V365.047H9.32042V367.377H11.6505V369.707H13.9806V372.037H16.4167V374.367H20.1236H21.1298V376.698H24.8368H28.1731V379.028H31.8801H41.2535H44.9604V376.698H48.2967H52.0037V374.367H53.0099H54.0161V377.704V381.411H56.3462V383.741H58.6763V386.071H62.3833H68.0497V387.077V390.784H70.3798V393.114H74.0868H78.7999H82.5069V390.784H84.837V387.077V382.364V378.657H82.5069V376.433H78.7999H77.8467V370.766V367.059H75.5166V364.729H73.1865V362.399H69.4795H68.4733V359.063V358.057H70.8034V354.35V351.013H73.1335V347.306V337.88V334.173H70.8034V330.837V327.13H68.4733V326.124V322.417H66.1432V320.087H63.8131V317.756H61.483V315.426H59.1529V313.096H56.8228V310.713H53.1158H52.1096V308.33H48.4026H45.0664V306H44.9604Z" fill="white"/>
</g>
<g filter="url(#filter1_d_1_5)">
<path d="M1030.54 23.6936L1029.95 23.5364L1030.11 22.9496C1031 19.6243 1028.99 16.1521 1025.67 15.2611L1013.25 11.933C1009.92 11.042 1006.45 13.0466 1005.56 16.3719L1005.4 16.9587L1004.81 16.8015C1003.64 16.487 1002.49 16.4921 1001.45 16.8431C1000.73 16.0204 999.729 15.4388 998.556 15.1243L998.36 15.0719L998.517 14.4851C999.408 11.1598 997.404 7.6876 994.078 6.7966L981.266 3.36363C977.941 2.47263 974.567 4.50352 973.676 7.82877L973.518 8.41558L973.323 8.36317C969.997 7.47217 966.551 9.37905 965.66 12.7043L960.445 32.1669C959.554 35.4921 961.559 38.9643 964.884 39.8553L965.08 39.9077L964.923 40.4945C964.032 43.8198 966.036 47.292 969.362 48.183L969.557 48.2354L969.4 48.8222C968.509 52.1475 970.514 55.6197 973.839 56.5107L974.426 56.6679L974.269 57.2548C973.378 60.58 975.382 64.0522 978.708 64.9432L978.903 64.9956L978.746 65.5825C977.855 68.9077 979.86 72.3799 983.185 73.2709L989.444 74.9481C992.769 75.8391 996.242 73.8344 997.133 70.5092L997.29 69.9224L997.877 70.0796C1001.2 70.9706 1004.67 68.9659 1005.57 65.6406L1005.72 65.0538L1005.92 65.1062C1009.24 65.9972 1012.72 63.9926 1013.61 60.6673L1013.76 60.0805L1013.96 60.1329C1017.28 61.0239 1020.76 59.0192 1021.65 55.694L1021.81 55.1072L1022.39 55.2644C1025.72 56.1554 1029.19 54.1507 1030.08 50.8254L1035.3 31.3629C1035.89 27.959 1033.86 24.5846 1030.54 23.6936Z" fill="white"/>
<path d="M1016.23 26.2542L1009.87 24.5508L1008.09 31.2014L1001.73 29.498L999.974 36.0507L993.617 34.3473L995.372 27.7946L989.015 26.0912L990.797 19.4407L984.44 17.7373L978.083 16.0339L976.301 22.6845L974.545 29.2372L972.789 35.7899L979.147 37.4933L977.391 44.046L983.748 45.7494L981.966 52.3999L988.323 54.1033L986.567 60.656L992.924 62.3594L994.68 55.8066L1001.04 57.51L1002.82 50.8595L1009.18 52.5629L1010.93 46.0102L1017.29 47.7136L1019.04 41.1608L1020.8 34.6081L1022.58 27.9576L1016.23 26.2542Z" fill="#B3BDFF"/>
<path d="M992.923 62.3577L986.566 60.6543L984.81 67.207L991.167 68.9104L992.923 62.3577Z" fill="#1130FF"/>
<path d="M1001.04 57.5071L994.68 55.8037L992.924 62.3564L999.281 64.0598L1001.04 57.5071Z" fill="#1130FF"/>
<path d="M988.324 54.1004L981.967 52.397L980.211 58.9497L986.568 60.6531L988.324 54.1004Z" fill="#1130FF"/>
<path d="M1009.18 52.5623L1002.82 50.8589L1001.06 57.4116L1007.42 59.115L1009.18 52.5623Z" fill="#1130FF"/>
<path d="M983.746 45.7483L977.389 44.0449L975.633 50.5976L981.99 52.301L983.746 45.7483Z" fill="#1130FF"/>
<path d="M1017.29 47.7117L1010.93 46.0083L1009.18 52.561L1015.53 54.2644L1017.29 47.7117Z" fill="#1130FF"/>
<path d="M979.145 37.49L972.788 35.7866L971.032 42.3393L977.389 44.0427L979.145 37.49Z" fill="#1130FF"/>
<path d="M1001.73 29.4949L995.371 27.7915L993.615 34.3442L999.972 36.0476L1001.73 29.4949Z" fill="#1130FF"/>
<path d="M976.299 22.6804L978.081 16.0299L971.626 14.3003L969.844 20.9508L968.089 27.5035L966.333 34.0562L972.788 35.7858L974.544 29.2331L976.299 22.6804Z" fill="#1130FF"/>
<path d="M1022.58 27.958L1020.8 34.6085L1019.05 41.1612L1017.29 47.714L1023.65 49.4173L1025.4 42.8646L1027.16 36.3119L1028.94 29.6614L1022.58 27.958Z" fill="#1130FF"/>
<path d="M1009.87 24.5471L1003.51 22.8438L1001.76 29.3965L1008.11 31.0998L1009.87 24.5471Z" fill="#1130FF"/>
<path d="M997.153 21.1419L990.796 19.4385L989.04 25.9912L995.397 27.6946L997.153 21.1419Z" fill="#1130FF"/>
<path d="M1022.58 27.9556L1024.34 21.4029L1017.98 19.6995L1011.62 17.9961L1009.87 24.5488L1016.22 26.2522L1022.58 27.9556Z" fill="#1130FF"/>
<path d="M990.798 19.4378L992.554 12.885L986.196 11.1817L979.839 9.47827L978.084 16.031L984.441 17.7344L990.798 19.4378Z" fill="#1130FF"/>
</g>
<g filter="url(#filter2_d_1_5)">
<path d="M844.721 490.61C843.803 490.509 843.089 489.618 843.19 488.7L843.948 481.815C844.05 480.897 844.941 480.183 845.859 480.284L846.433 480.347L848.051 465.661C848.152 464.743 849.044 464.028 849.962 464.129L850.536 464.193L850.599 463.619C850.7 462.701 851.592 461.986 852.51 462.087L853.083 462.151L853.146 461.577C853.248 460.659 854.139 459.944 855.057 460.046L855.631 460.109L855.694 459.535C855.795 458.617 856.687 457.903 857.605 458.004L858.064 458.054L858.19 456.907L857.616 456.844C856.699 456.743 855.984 455.851 856.085 454.933L856.148 454.359L855.575 454.296C854.657 454.195 853.942 453.303 854.043 452.385L854.106 451.812L853.533 451.748C852.615 451.647 851.9 450.756 852.001 449.838L852.065 449.264L851.491 449.201C850.573 449.1 849.858 448.208 849.959 447.29L851.578 432.604L851.004 432.54C850.086 432.439 849.372 431.548 849.473 430.63L850.244 423.631C850.345 422.713 851.237 421.998 852.155 422.099L891.624 426.449C892.542 426.55 893.257 427.442 893.156 428.359L892.385 435.358C892.283 436.276 891.392 436.991 890.474 436.89L889.9 436.827L888.282 451.513C888.181 452.431 887.289 453.146 886.371 453.044L885.797 452.981L885.734 453.555C885.633 454.473 884.741 455.187 883.823 455.086L883.25 455.023L883.187 455.597C883.085 456.515 882.194 457.229 881.276 457.128L880.702 457.065L880.639 457.639C880.538 458.557 879.646 459.271 878.728 459.17L878.155 459.107L878.028 460.254L878.717 460.33C879.634 460.431 880.349 461.323 880.248 462.241L880.185 462.815L880.758 462.878C881.676 462.979 882.391 463.871 882.29 464.788L882.227 465.362L882.8 465.425C883.718 465.527 884.433 466.418 884.332 467.336L884.268 467.91L884.842 467.973C885.76 468.074 886.475 468.966 886.374 469.884L884.768 484.455L885.342 484.519C886.259 484.62 886.974 485.511 886.873 486.429L886.114 493.314C886.013 494.232 885.121 494.946 884.204 494.845L844.734 490.496L844.721 490.61Z" fill="white"/>
<path d="M891.435 428.171L891.182 430.466L890.929 432.76L890.676 435.055L888.382 434.802L888.129 437.097L887.876 439.392L887.623 441.686L887.37 443.981L887.117 446.276L886.839 448.8L886.586 451.095L884.291 450.842L884.039 453.137L881.744 452.884L881.491 455.179L879.196 454.926L878.943 457.221L876.649 456.968L876.396 459.262L876.143 461.557L876.258 461.57L878.552 461.823L878.299 464.118L880.594 464.37L880.341 466.665L882.636 466.918L882.383 469.213L884.678 469.466L884.425 471.76L884.147 474.285L883.894 476.579L883.641 478.874L883.388 481.169L883.135 483.464L882.883 485.758L885.177 486.011L884.924 488.306L884.672 490.601L884.419 492.896L882.124 492.643L879.829 492.39L877.534 492.137L875.24 491.884L872.945 491.631L870.65 491.378L868.355 491.125L866.061 490.873L863.536 490.594L861.242 490.342L858.947 490.089L856.652 489.836L854.357 489.583L852.063 489.33L849.768 489.077L847.473 488.824L845.178 488.571L845.431 486.277L845.684 483.982L845.937 481.687L848.232 481.94L848.485 479.645L848.738 477.351L848.99 475.056L849.243 472.761L849.496 470.466L849.774 467.942L850.027 465.647L852.322 465.9L852.575 463.605L854.87 463.858L855.122 461.564L857.417 461.816L857.67 459.522L859.85 459.762L860.103 457.467L860.356 455.172L858.061 454.919L858.314 452.625L855.79 452.347L856.043 450.052L853.748 449.799L854.001 447.504L851.706 447.251L851.959 444.957L852.237 442.432L852.49 440.138L852.743 437.843L852.996 435.548L853.248 433.253L853.501 430.959L851.207 430.706L851.459 428.411L851.712 426.116L851.965 423.821L854.26 424.074L856.555 424.327L858.849 424.58L861.144 424.833L863.439 425.086L865.734 425.339L868.028 425.592L870.323 425.844L872.847 426.123L875.142 426.375L877.437 426.628L879.732 426.881L882.026 427.134L884.321 427.387L886.616 427.64L888.911 427.893L891.435 428.171ZM891.814 424.729L889.519 424.476L887.225 424.223L884.93 423.97L882.635 423.717L880.34 423.464L878.046 423.211L875.751 422.959L873.456 422.706L870.932 422.428L868.637 422.175L866.342 421.922L864.048 421.669L861.753 421.416L859.229 421.138L856.934 420.885L854.639 420.632L852.344 420.379C850.394 420.164 848.738 421.492 848.523 423.442L848.27 425.737L848.017 428.032L847.764 430.326C847.6 431.818 848.379 433.181 849.705 433.792L849.553 435.169L849.301 437.464L849.048 439.758L848.795 442.053L848.517 444.577L848.264 446.872C848.087 448.478 848.98 449.854 850.307 450.465C850.524 451.65 851.239 452.542 852.348 453.013C852.566 454.198 853.396 455.102 854.39 455.56C854.442 456.147 854.736 456.643 855.042 457.026C854.66 457.332 854.38 457.765 854.214 458.212C853.029 458.43 852.137 459.144 851.667 460.254C850.481 460.471 849.577 461.301 849.119 462.296C847.692 462.603 846.52 463.751 846.343 465.357L846.09 467.652L845.812 470.176L845.559 472.471L845.306 474.766L845.053 477.061L844.902 478.438C843.474 478.745 842.417 479.906 842.253 481.397L842 483.692L841.747 485.987L841.494 488.282C841.279 490.232 842.606 491.888 844.557 492.103L846.852 492.356L849.146 492.609L851.441 492.862L853.736 493.114L856.031 493.367L858.326 493.62L860.62 493.873L862.915 494.126L865.439 494.404L867.734 494.657L870.029 494.91L872.324 495.163L874.618 495.416L876.913 495.668L879.208 495.921L881.503 496.174L883.797 496.427C885.748 496.642 887.404 495.315 887.619 493.364L887.872 491.07L888.124 488.775L888.377 486.48C888.542 484.988 887.763 483.625 886.437 483.014L886.588 481.638L886.841 479.343L887.094 477.048L887.347 474.753L887.625 472.229L887.878 469.934C888.055 468.328 887.161 466.952 885.835 466.341C885.617 465.156 884.903 464.265 883.793 463.794C883.575 462.609 882.746 461.704 881.751 461.246C881.7 460.66 881.406 460.163 881.1 459.781C881.482 459.475 881.762 459.041 881.927 458.595C883.113 458.377 884.017 457.547 884.475 456.553C885.66 456.335 886.552 455.62 887.023 454.511C888.45 454.204 889.622 453.055 889.799 451.449L890.052 449.154L890.33 446.63L890.583 444.335L890.836 442.04L891.088 439.746L891.24 438.369C892.668 438.062 893.725 436.901 893.889 435.409L894.142 433.114L894.395 430.82L894.648 428.525C895.092 426.6 893.765 424.944 891.814 424.729Z" fill="white"/>
<path d="M869.89 454.014L867.366 453.736L867.113 456.031L869.638 456.309L869.89 454.014Z" fill="#1130FF"/>
<path d="M879.574 450.436L879.321 452.731L877.027 452.478L876.774 454.773L874.479 454.52L874.213 456.93L871.919 456.677L871.666 458.971L871.413 461.266L873.708 461.519L873.937 461.544L873.684 463.839L875.979 464.092L875.726 466.387L878.021 466.64L877.768 468.934L880.063 469.187L882.358 469.44L882.61 467.145L880.316 466.893L880.569 464.598L878.274 464.345L878.527 462.05L876.232 461.797L876.002 461.772L876.255 459.477L876.508 457.182L878.803 457.435L879.068 455.026L881.478 455.291L881.731 452.997L884.026 453.249L884.278 450.955L881.984 450.702L879.574 450.436Z" fill="#1130FF"/>
<path d="M872.691 449.679L870.396 449.426L870.143 451.721L872.438 451.974L872.691 449.679Z" fill="#1130FF"/>
<path d="M867.871 449.148L865.577 448.896L865.324 451.19L867.619 451.443L867.871 449.148Z" fill="#1130FF"/>
<path d="M875.238 447.637L872.943 447.384L872.69 449.679L874.985 449.932L875.238 447.637Z" fill="#1130FF"/>
<path d="M870.649 447.132L868.125 446.854L867.872 449.148L870.396 449.426L870.649 447.132Z" fill="#1130FF"/>
<path d="M865.83 446.601L863.535 446.348L863.282 448.642L865.577 448.895L865.83 446.601Z" fill="#1130FF"/>
<path d="M877.811 445.365L875.516 445.112L875.238 447.637L877.533 447.889L877.811 445.365Z" fill="#1130FF"/>
<path d="M873.222 444.859L870.927 444.606L870.649 447.131L872.943 447.384L873.222 444.859Z" fill="#1130FF"/>
<path d="M868.402 444.33L866.107 444.077L865.829 446.601L868.124 446.854L868.402 444.33Z" fill="#1130FF"/>
<path d="M863.813 443.822L861.518 443.569L861.24 446.094L863.535 446.346L863.813 443.822Z" fill="#1130FF"/>
<path d="M854.519 442.799L854.772 440.505L855.025 438.21L855.278 435.915L855.531 433.62L855.784 431.326L858.078 431.578L860.373 431.831L862.668 432.084L864.963 432.337L867.257 432.59L869.552 432.843L872.076 433.121L874.371 433.374L876.666 433.627L878.961 433.88L881.255 434.132L883.55 434.385L885.845 434.638L885.592 436.933L885.339 439.228L885.086 441.522L884.833 443.817L884.581 446.112L884.302 448.636L884.049 450.931L886.344 451.184L886.597 448.889L886.875 446.365L887.128 444.07L887.381 441.775L887.634 439.481L887.887 437.186L888.14 434.891L890.434 435.144L890.7 432.734L890.953 430.44L891.206 428.145L888.911 427.892L886.616 427.639L884.321 427.386L882.027 427.133L879.732 426.881L877.437 426.628L875.142 426.375L872.848 426.122L870.323 425.844L868.029 425.591L865.734 425.338L863.439 425.085L861.144 424.832L858.85 424.579L856.555 424.327L854.26 424.074L851.965 423.821L851.712 426.116L851.46 428.41L851.207 430.705L853.501 430.958L853.249 433.253L852.996 435.547L852.743 437.842L852.49 440.137L852.237 442.432L851.959 444.956L851.706 447.251L854.001 447.504L854.254 445.209L854.519 442.799ZM854.007 426.368L856.302 426.621L858.597 426.874L860.891 427.127L863.186 427.38L865.481 427.633L867.776 427.886L870.07 428.139L872.595 428.417L874.889 428.67L877.184 428.922L879.479 429.175L881.774 429.428L884.068 429.681L886.363 429.934L888.658 430.187L888.405 432.482L886.11 432.229L883.816 431.976L881.521 431.723L879.226 431.47L876.931 431.217L874.637 430.964L872.342 430.711L869.818 430.433L867.523 430.18L865.228 429.928L862.933 429.675L860.639 429.422L858.344 429.169L856.049 428.916L853.754 428.663L854.007 426.368Z" fill="#1130FF"/>
<path d="M856.772 466.622L857.025 464.328L859.32 464.581L859.573 462.286L861.867 462.539L862.12 460.244L864.3 460.484L864.553 458.189L864.806 455.895L862.511 455.642L862.777 453.232L860.482 452.979L860.735 450.685L858.44 450.432L858.693 448.137L856.284 447.872L853.989 447.619L853.736 449.913L856.031 450.166L855.778 452.461L858.187 452.727L857.922 455.136L860.217 455.389L859.964 457.684L859.711 459.978L857.531 459.738L857.278 462.033L854.983 461.78L854.73 464.075L852.436 463.822L852.183 466.117L854.477 466.37L856.772 466.622Z" fill="#1130FF"/>
<path d="M868.336 470.219L865.812 469.941L865.534 472.465L868.058 472.743L868.336 470.219Z" fill="#1130FF"/>
<path d="M865.42 472.453L863.125 472.2L862.873 474.494L865.167 474.747L865.42 472.453Z" fill="#1130FF"/>
<path d="M870.238 472.984L867.943 472.731L867.69 475.026L869.985 475.279L870.238 472.984Z" fill="#1130FF"/>
<path d="M862.872 474.494L860.578 474.241L860.325 476.535L862.62 476.788L862.872 474.494Z" fill="#1130FF"/>
<path d="M867.806 475.037L865.282 474.759L865.029 477.054L867.553 477.332L867.806 475.037Z" fill="#1130FF"/>
<path d="M872.281 475.53L869.986 475.277L869.733 477.572L872.028 477.825L872.281 475.53Z" fill="#1130FF"/>
<path d="M860.324 476.536L858.029 476.283L857.776 478.578L860.071 478.831L860.324 476.536Z" fill="#1130FF"/>
<path d="M864.913 477.041L862.619 476.788L862.366 479.083L864.661 479.336L864.913 477.041Z" fill="#1130FF"/>
<path d="M869.734 477.573L867.439 477.32L867.186 479.615L869.481 479.867L869.734 477.573Z" fill="#1130FF"/>
<path d="M874.437 478.091L872.142 477.838L871.889 480.133L874.184 480.386L874.437 478.091Z" fill="#1130FF"/>
<path d="M857.777 478.578L855.482 478.325L855.229 480.619L857.524 480.872L857.777 478.578Z" fill="#1130FF"/>
<path d="M862.366 479.083L860.071 478.831L859.818 481.125L862.113 481.378L862.366 479.083Z" fill="#1130FF"/>
<path d="M867.3 479.627L864.776 479.349L864.523 481.643L867.047 481.922L867.3 479.627Z" fill="#1130FF"/>
<path d="M871.775 480.121L869.48 479.868L869.227 482.162L871.522 482.415L871.775 480.121Z" fill="#1130FF"/>
<path d="M876.479 480.639L874.184 480.386L873.931 482.68L876.226 482.933L876.479 480.639Z" fill="#1130FF"/>
<path d="M882.845 486.102L883.098 483.808L883.351 481.513L883.604 479.218L883.857 476.923L884.11 474.628L884.388 472.104L884.641 469.81L882.346 469.557L882.093 471.851L881.815 474.376L881.562 476.67L881.309 478.965L881.056 481.26L880.804 483.555L880.551 485.849L878.256 485.597L878.509 483.302L876.214 483.049L875.961 485.344L873.666 485.091L873.919 482.796L871.625 482.543L871.372 484.838L869.077 484.585L869.33 482.29L867.035 482.037L866.782 484.332L864.258 484.054L864.511 481.759L862.216 481.506L861.963 483.801L859.668 483.548L859.921 481.254L857.627 481.001L857.374 483.295L855.079 483.043L855.332 480.748L853.037 480.495L852.784 482.79L850.489 482.537L850.742 480.242L850.995 477.947L851.248 475.653L851.501 473.358L851.754 471.063L852.032 468.539L852.285 466.244L849.99 465.991L849.737 468.286L849.459 470.81L849.206 473.105L848.953 475.4L848.7 477.694L848.448 479.989L848.195 482.284L845.9 482.031L845.647 484.326L845.394 486.621L845.141 488.915L847.436 489.168L849.731 489.421L852.026 489.674L854.32 489.927L856.615 490.18L858.91 490.433L861.205 490.685L863.499 490.938L866.024 491.216L868.318 491.469L870.613 491.722L872.908 491.975L875.203 492.228L877.497 492.481L879.792 492.734L882.087 492.987L884.382 493.239L884.634 490.945L884.887 488.65L885.14 486.355L882.845 486.102ZM882.34 490.692L880.045 490.439L877.75 490.186L875.455 489.933L873.161 489.68L870.866 489.427L868.571 489.175L866.276 488.922L863.752 488.644L861.457 488.391L859.163 488.138L856.868 487.885L854.573 487.632L852.278 487.379L849.984 487.126L847.689 486.873L847.942 484.579L850.237 484.832L852.531 485.084L854.826 485.337L857.121 485.59L859.416 485.843L861.71 486.096L864.005 486.349L866.529 486.627L868.824 486.88L871.119 487.133L873.414 487.386L875.708 487.638L878.003 487.891L880.298 488.144L882.593 488.397L882.34 490.692Z" fill="#1130FF"/>
</g>
<defs>
<filter id="filter0_d_1_5" x="0" y="306" width="87.0551" height="90.0718" filterUnits="userSpaceOnUse" color-interpolation-filters="sRGB">
<feFlood flood-opacity="0" result="BackgroundImageFix"/>
<feColorMatrix in="SourceAlpha" type="matrix" values="0 0 0 0 0 0 0 0 0 0 0 0 0 0 0 0 0 0 127 0" result="hardAlpha"/>
<feOffset dx="2.21816" dy="2.95755"/>
<feComposite in2="hardAlpha" operator="out"/>
<feColorMatrix type="matrix" values="0 0 0 0 0.596078 0 0 0 0 0.278431 0 0 0 0 1 0 0 0 0.25 0"/>
<feBlend mode="normal" in2="BackgroundImageFix" result="effect1_dropShadow_1_5"/>
<feBlend mode="normal" in="SourceGraphic" in2="effect1_dropShadow_1_5" result="shape"/>
</filter>
<filter id="filter1_d_1_5" x="960.234" y="3.15356" width="77.3837" height="74.9637" filterUnits="userSpaceOnUse" color-interpolation-filters="sRGB">
<feFlood flood-opacity="0" result="BackgroundImageFix"/>
<feColorMatrix in="SourceAlpha" type="matrix" values="0 0 0 0 0 0 0 0 0 0 0 0 0 0 0 0 0 0 127 0" result="hardAlpha"/>
<feOffset dx="2.21816" dy="2.95755"/>
<feComposite in2="hardAlpha" operator="out"/>
<feColorMatrix type="matrix" values="0 0 0 0 0.596078 0 0 0 0 0.278431 0 0 0 0 1 0 0 0 0.25 0"/>
<feBlend mode="normal" in2="BackgroundImageFix" result="effect1_dropShadow_1_5"/>
<feBlend mode="normal" in="SourceGraphic" in2="effect1_dropShadow_1_5" result="shape"/>
</filter>
<filter id="filter2_d_1_5" x="841.471" y="420.356" width="55.4804" height="79.0508" filterUnits="userSpaceOnUse" color-interpolation-filters="sRGB">
<feFlood flood-opacity="0" result="BackgroundImageFix"/>
<feColorMatrix in="SourceAlpha" type="matrix" values="0 0 0 0 0 0 0 0 0 0 0 0 0 0 0 0 0 0 127 0" result="hardAlpha"/>
<feOffset dx="2.21816" dy="2.95755"/>
<feComposite in2="hardAlpha" operator="out"/>
<feColorMatrix type="matrix" values="0 0 0 0 0.596078 0 0 0 0 0.278431 0 0 0 0 1 0 0 0 0.25 0"/>
<feBlend mode="normal" in2="BackgroundImageFix" result="effect1_dropShadow_1_5"/>
<feBlend mode="normal" in="SourceGraphic" in2="effect1_dropShadow_1_5" result="shape"/>
</filter>
</defs>
</svg>
