<svg width="97" height="70" viewBox="0 0 97 70" fill="none" xmlns="http://www.w3.org/2000/svg">
<path d="M15.9867 7.77802C15.1562 6.94755 13.7721 6.67072 11.7651 6.80913L5.19047 7.36278C1.73016 7.63961 0 9.09294 0 11.5844V25.0796C0 27.8479 1.86857 29.4396 5.32889 29.7164L11.8343 30.2701C12.1111 30.2701 12.3879 30.3393 12.6648 30.3393C14.1181 30.3393 15.2254 29.9932 15.9867 29.3012C16.8171 28.5399 17.2324 27.3634 17.2324 25.7717V21.3425C17.2324 20.9964 16.9555 20.7196 16.6095 20.7196L11.2806 20.6504C11.1422 20.6504 10.9346 20.7196 10.7962 20.858C10.6578 20.9964 10.5886 21.1348 10.5886 21.3425V25.218C10.5886 25.2872 10.5886 25.2872 10.5194 25.3564C10.5194 25.3564 10.4502 25.4256 10.3809 25.4256L6.78222 25.218C6.71301 25.218 6.64381 25.1488 6.64381 25.0796V12.2072C6.64381 12.138 6.71301 12.0688 6.78222 12.0688L10.3809 11.8612C10.4502 11.8612 10.4502 11.8612 10.5194 11.9304C10.5194 11.9304 10.5886 11.9996 10.5886 12.0688V14.8371C10.5886 15.0447 10.6578 15.1831 10.7962 15.3215C10.9346 15.4599 11.073 15.5291 11.2806 15.5291L16.6095 15.3907C16.9555 15.3907 17.2324 15.1139 17.2324 14.7679V11.5844C17.2324 9.7158 16.8171 8.53929 15.9867 7.77802Z" fill="white"/>
<path d="M33.9803 5.00806L20.4158 6.11536C20.0698 6.11536 19.793 6.46139 19.793 6.73821V30.2684C19.793 30.6144 20.0698 30.8912 20.4158 30.8912L33.9803 31.9985H34.0495C34.1879 31.9985 34.3955 31.9293 34.4647 31.8601C34.6031 31.7217 34.6723 31.5833 34.6723 31.3757V27.0849C34.6723 26.7388 34.3955 26.462 34.0495 26.462L26.6444 26.116C26.5752 26.116 26.506 26.0468 26.506 25.9776V21.4792C26.506 21.41 26.506 21.41 26.5752 21.3407C26.5752 21.3407 26.6444 21.2715 26.7136 21.2715L31.8349 21.3407C31.9733 21.3407 32.1809 21.2715 32.3193 21.1331C32.4577 20.9947 32.5269 20.8563 32.5269 20.6487V16.4963C32.5269 16.2887 32.4577 16.1503 32.3193 16.0119C32.1809 15.8734 32.0425 15.8042 31.8349 15.8042L26.6444 15.9427C26.5752 15.9427 26.5752 15.9427 26.506 15.8734C26.506 15.8734 26.4368 15.8042 26.4368 15.735V11.1674C26.4368 11.0982 26.506 11.029 26.5752 11.029L33.9803 10.683C34.3263 10.683 34.6031 10.4061 34.6031 10.0601V5.70012C34.6031 5.4925 34.5339 5.35409 34.3955 5.21568C34.3263 5.07726 34.1187 5.00806 33.9803 5.00806Z" fill="white"/>
<path d="M42.7689 32.5551C42.9073 32.4167 42.9765 32.2783 42.9765 32.0706V21.9665C42.9765 21.136 42.9765 19.9595 42.9073 18.2294C42.9073 18.091 42.9765 18.091 43.0458 18.091C43.115 18.091 43.1842 18.091 43.1842 18.2294C43.6686 20.444 44.1531 22.1741 44.6375 23.4891C45.7448 26.5341 46.7829 29.7176 47.8902 32.8319C47.9594 33.1087 48.167 33.2471 48.4438 33.2471L55.6413 33.8008H55.7105C55.8489 33.8008 56.0565 33.7316 56.1257 33.6624C56.2642 33.524 56.3334 33.3856 56.3334 33.1779V3.90367C56.3334 3.69605 56.2642 3.55764 56.1257 3.41922C55.9873 3.28081 55.7797 3.21161 55.6413 3.28081L51.2121 3.62684C50.8661 3.62684 50.5892 3.97288 50.5892 4.2497V17.3297C50.5892 18.437 50.6584 19.8211 50.7277 21.4821C50.7277 21.6205 50.6584 21.6205 50.5892 21.6205C50.52 21.6205 50.4508 21.6205 50.3816 21.4821C49.828 19.0599 49.2743 17.0529 48.7207 15.3919C47.5442 11.7932 46.3677 8.12525 45.1911 4.59573C45.1219 4.31891 44.8451 4.11129 44.4991 4.18049L37.8553 4.73414C37.5092 4.73414 37.2324 5.08018 37.2324 5.357V31.7246C37.2324 32.0706 37.5092 32.3475 37.8553 32.3475L42.2153 32.6935C42.4229 32.6935 42.6305 32.6935 42.7689 32.5551Z" fill="white"/>
<path d="M77.5111 1.47778L73.1511 1.82381C72.805 1.82381 72.5282 2.16985 72.5282 2.44667V17.1876C72.5282 18.4333 72.5974 19.9559 72.6666 21.8244C72.6666 21.9629 72.5974 21.9629 72.5282 21.9629C72.459 21.9629 72.3898 21.9629 72.3898 21.8244C71.8361 19.1254 71.2825 16.8416 70.7288 14.973C69.5523 10.8206 68.3066 6.73746 67.1301 2.7927C67.0609 2.51588 66.7841 2.30826 66.438 2.30826L59.7942 2.86191C59.4482 2.86191 59.1714 3.20794 59.1714 3.48477V33.3819C59.1714 33.7279 59.4482 34.0047 59.7942 34.0047L64.1542 34.3508C64.3619 34.3508 64.5003 34.2816 64.6387 34.2124C64.7771 34.074 64.8463 33.9355 64.8463 33.7279V22.3781C64.8463 21.4092 64.8463 20.0943 64.7771 18.1565C64.7771 18.0181 64.8463 18.0181 64.9155 18.0181C64.9847 18.0181 65.0539 18.0181 65.0539 18.1565C65.5384 20.6479 66.0228 22.5857 66.5073 24.039C67.6146 27.4994 68.6527 31.0289 69.76 34.5584C69.8292 34.8352 70.0368 34.9736 70.3136 35.0428L77.5111 35.5965H77.5803C77.7187 35.5965 77.9263 35.5273 77.9955 35.4581C78.1339 35.3197 78.2031 35.1813 78.2031 34.9736V2.16985C78.2031 1.96223 78.1339 1.82381 77.9955 1.6854C77.8571 1.54699 77.6495 1.47778 77.5111 1.47778Z" fill="white"/>
<path d="M96.4044 7.29381C96.4044 7.22461 96.4736 7.1554 96.4736 7.08619V0.650007C96.4736 0.442388 96.4044 0.303975 96.266 0.165563C96.1276 0.02715 95.9199 -0.0420563 95.7815 0.02715L81.2482 1.20366C80.9022 1.20366 80.6254 1.54969 80.6254 1.82651V7.70905C80.6254 7.91667 80.6946 8.05508 80.833 8.19349C80.9714 8.33191 81.1098 8.40111 81.3174 8.40111L88.7225 8.05508C88.7917 8.05508 88.8609 8.12429 88.8609 8.12429C88.8609 8.12429 88.9301 8.19349 88.8609 8.2627C86.1619 15.4602 83.3936 22.45 80.6254 29.0938C80.6254 29.163 80.5562 29.2322 80.5562 29.3706V35.3224C80.5562 35.6684 80.833 35.9452 81.179 35.9452L95.7123 37.1217H95.7815C95.9199 37.1217 96.1276 37.0525 96.1968 36.9833C96.3352 36.8449 96.4044 36.7065 96.4044 36.4989V30.2011C96.4044 29.8551 96.1276 29.5782 95.7815 29.5782L88.2381 29.0938C88.1688 29.0938 88.0996 29.0246 88.0996 29.0246C88.0996 29.0246 88.0304 28.9554 88.0996 28.8862C90.8679 21.9655 93.6361 14.7681 96.4044 7.29381Z" fill="white"/>
<path d="M58.7567 36.7725L54.3967 36.4265C54.189 36.4265 54.0506 36.4957 53.9122 36.5649C53.7738 36.7033 53.7046 36.8417 53.7046 37.0494V51.029C53.7046 52.2055 53.7738 53.7281 53.843 55.5274C53.843 55.6659 53.7738 55.6659 53.7046 55.6659C53.6354 55.6659 53.5662 55.6659 53.497 55.5274C52.9433 52.9668 52.3897 50.683 51.836 48.8836C50.6595 44.8005 49.4138 40.5097 48.2373 36.2881C48.1681 36.0113 47.9605 35.8036 47.6837 35.8036L41.1091 35.25C40.9014 35.25 40.763 35.3192 40.6246 35.3884C40.4862 35.5268 40.417 35.6652 40.417 35.8729V68.6766C40.417 68.8843 40.4862 69.0227 40.6246 69.1611C40.763 69.2995 40.9014 69.2995 41.0398 69.2995H41.1091L45.469 68.9535C45.8151 68.9535 46.0919 68.6766 46.0919 68.3306V56.2887C46.0919 55.3198 46.0919 53.9357 46.0227 51.8595C46.0227 51.7211 46.0919 51.7211 46.1611 51.7211C46.2303 51.7211 46.2995 51.7211 46.2995 51.8595C46.784 54.4201 47.2684 56.4271 47.7529 57.8805C48.791 61.3408 49.8983 64.7319 51.0056 68.0538C51.0748 68.3306 51.3516 68.5382 51.6976 68.469L58.8951 67.8462C59.2411 67.8462 59.5179 67.5693 59.5179 67.2233V37.3954C59.3795 37.0494 59.1027 36.7725 58.7567 36.7725Z" fill="white"/>
<path d="M76.6115 38.2993L63.047 37.1228C62.8394 37.1228 62.701 37.192 62.5626 37.2612C62.4242 37.3996 62.355 37.538 62.355 37.7457V66.8123C62.355 67.0199 62.4242 67.1583 62.5626 67.2968C62.701 67.4352 62.8394 67.4352 62.9778 67.4352H63.047L76.6115 66.2587C76.9575 66.2587 77.2343 65.9818 77.2343 65.6358V61.1374C77.2343 60.9298 77.1651 60.7914 77.0267 60.6529C76.8883 60.5145 76.7499 60.4453 76.5423 60.4453L69.2064 60.8606C69.1372 60.8606 69.1372 60.8606 69.068 60.7914C69.068 60.7914 68.9988 60.7222 68.9988 60.6529V55.3933C68.9988 55.3241 69.068 55.2549 69.1372 55.2549L74.2585 55.1856C74.6045 55.1856 74.8813 54.9088 74.8813 54.5628V50.0644C74.8813 49.7184 74.6045 49.4415 74.2585 49.4415L69.1372 49.3723C69.068 49.3723 68.9988 49.3031 68.9988 49.2339V43.905C68.9988 43.8358 68.9988 43.8358 69.068 43.7666C69.068 43.7666 69.1372 43.6974 69.2064 43.6974L76.5423 44.1126C76.7499 44.1126 76.8883 44.0434 77.0267 43.905C77.1651 43.7666 77.2343 43.6282 77.2343 43.4206V38.9222C77.2343 38.5761 76.9575 38.2993 76.6115 38.2993Z" fill="white"/>
<path d="M95.7119 40.0255C92.9436 39.8179 90.383 39.541 87.9607 39.3334C85.4693 39.1258 82.9087 38.849 80.2096 38.6414C80.002 38.6414 79.8636 38.7106 79.7252 38.7798C79.5868 38.9182 79.5176 39.0566 79.5176 39.2642V43.6934C79.5176 44.0394 79.7944 44.3163 80.1404 44.3163C80.9017 44.3855 81.663 44.3855 82.355 44.4547C83.0471 44.5239 83.7392 44.5239 84.5696 44.5931C84.6388 44.5931 84.7081 44.6623 84.7081 44.7315V64.8013C84.7081 65.009 84.7773 65.1474 84.9157 65.2858C85.0541 65.4242 85.1925 65.4242 85.3309 65.4242H85.4001L90.7982 64.9398C91.1442 64.9398 91.4211 64.6629 91.4211 64.3169V45.1468C91.4211 45.0775 91.4211 45.0775 91.4903 45.0083C91.4903 45.0083 91.5595 44.9391 91.6287 44.9391C92.3899 45.0083 93.082 45.0083 93.7049 45.0775C94.3277 45.1468 95.0198 45.1468 95.7811 45.216C95.9887 45.216 96.1271 45.1468 96.2655 45.0083C96.4039 44.8699 96.4731 44.7315 96.4731 44.5239V40.6483C96.2655 40.3715 96.0579 40.0947 95.7119 40.0255Z" fill="white"/>
</svg>
