<svg width="56" height="56" viewBox="0 0 56 56" fill="none" xmlns="http://www.w3.org/2000/svg">
<rect x="56" y="56" width="56" height="56" transform="rotate(-180 56 56)" fill="white"/>
<path d="M37 21.1663C37.8284 21.1663 38.5 20.4948 38.5 19.6663C38.5 18.8379 37.8284 18.1663 37 18.1663L37 21.1663ZM16.5096 18.1663C15.6812 18.1663 15.0096 18.8379 15.0096 19.6663C15.0096 20.4948 15.6812 21.1663 16.5096 21.1663L16.5096 18.1663ZM37 18.1663L16.5096 18.1663L16.5096 21.1663L37 21.1663L37 18.1663Z" fill="#1130FF"/>
<path d="M12.0625 18.9687C11.7812 19.25 11.7812 19.7187 12.0625 20L18.125 26.0937C18.4375 26.375 18.9062 26.375 19.1875 26.0937L19.9062 25.375C20.1875 25.0937 20.1875 24.625 19.9062 24.3125L15.0937 19.5L19.9062 14.6562C20.1875 14.3437 20.1875 13.875 19.9062 13.5937L19.1875 12.875C18.9062 12.5937 18.4375 12.5937 18.125 12.875L12.0625 18.9687Z" fill="#1130FF"/>
<path d="M19 33.8337C18.1716 33.8337 17.5 34.5052 17.5 35.3337C17.5 36.1621 18.1716 36.8337 19 36.8337L19 33.8337ZM39.4904 36.8337C40.3188 36.8337 40.9904 36.1621 40.9904 35.3337C40.9904 34.5052 40.3188 33.8337 39.4904 33.8337L39.4904 36.8337ZM19 36.8337L39.4904 36.8337L39.4904 33.8337L19 33.8337L19 36.8337Z" fill="#1130FF"/>
<path d="M43.9375 36.0313C44.2188 35.75 44.2188 35.2813 43.9375 35L37.875 28.9063C37.5625 28.625 37.0938 28.625 36.8125 28.9063L36.0938 29.625C35.8125 29.9063 35.8125 30.375 36.0938 30.6875L40.9063 35.5L36.0938 40.3438C35.8125 40.6563 35.8125 41.125 36.0938 41.4063L36.8125 42.125C37.0938 42.4063 37.5625 42.4063 37.875 42.125L43.9375 36.0313Z" fill="#1130FF"/>
</svg>
