<svg width="43" height="58" viewBox="0 0 43 58" fill="none" xmlns="http://www.w3.org/2000/svg">
<path d="M29.1135 24.2352L29.036 24.1966H28.9495H28.9144C28.7475 24.1966 28.6371 24.153 28.5431 24.0593L24.5606 20.0895C24.5564 20.0828 24.552 20.0761 24.5474 20.0696C24.5154 20.024 24.4792 19.9931 24.4552 19.9752C24.4382 19.9459 24.4112 19.9057 24.3719 19.8665L24.3458 19.8405C24.3425 19.8358 24.3381 19.8293 24.3303 19.8177C24.3225 19.8059 24.3094 19.7864 24.2955 19.7672C24.2877 19.7565 24.2772 19.7426 24.2642 19.7273C24.1022 19.477 24.0244 19.2059 24.0244 18.939V16.9124V16.5252L23.6376 16.5453L19.6067 16.7549L19.2582 16.7731V17.1221V41.1257V41.4809L19.6132 41.4931L23.6791 41.6329L24.0594 41.6459V41.2654V32.7401C24.0594 32.35 24.1949 32.024 24.4771 31.7427L24.4839 31.7359L24.4904 31.7287C24.7223 31.4718 25.1043 31.3265 25.4768 31.3259C25.4777 31.3259 25.4785 31.3259 25.4794 31.3259L37.146 31.5005V31.5006H37.1515C37.4027 31.5006 37.5854 31.5536 37.7757 31.662L37.8197 31.687L37.8688 31.6993C37.9278 31.714 37.9767 31.7409 38.0487 31.8126L38.0498 31.8137L42.2549 35.9704C42.255 35.9706 42.2552 35.9707 42.2554 35.9709C42.3775 36.0929 42.4172 36.221 42.395 36.398L42.3864 36.4664L42.4032 36.5332C42.4115 36.5666 42.4189 36.5951 42.4254 36.62C42.4514 36.7208 42.4622 36.7627 42.4622 36.8281V46.6112C42.4622 50.0723 41.5014 52.6154 39.6715 54.307C37.9729 55.8673 35.5504 56.6556 32.3845 56.6556C31.821 56.6556 31.2099 56.6553 30.6023 56.588L30.6023 56.5878L30.5915 56.5869L16.3631 55.4341C16.3627 55.4341 16.3623 55.4341 16.3619 55.434C13.214 55.158 10.6823 54.367 8.78294 53.1499L8.73209 53.1173L8.67348 53.1027C8.64971 53.0967 8.63337 53.0891 8.61064 53.0747C8.59653 53.0658 8.58132 53.0551 8.5576 53.038C8.54315 53.0276 8.52488 53.0144 8.50448 53.0002L8.49362 52.9894L8.47156 52.9674L8.44612 52.9494C8.26114 52.8188 7.83195 52.4389 7.25637 51.8977C6.68957 51.3647 6.00116 50.6948 5.30872 50.0024C3.91375 48.6075 2.53427 47.1526 2.08125 46.5338C1.19762 45.3268 0.71513 43.4224 0.71513 41.3703V11.8462C0.71513 9.07592 1.66717 6.94143 3.53386 5.4088C5.41592 3.86357 8.2669 2.89811 12.1196 2.56926C12.12 2.56922 12.1205 2.56918 12.121 2.56914L26.5243 1.45131L26.5273 1.45105C30.9716 1.07034 33.9959 1.77256 35.8811 3.48205L35.8812 3.48219L35.8951 3.49621L35.9439 3.5455L36.1179 3.7216C36.2654 3.87092 36.4722 4.08076 36.7184 4.33139C37.2109 4.83271 37.8608 5.49692 38.5084 6.1664C39.1564 6.83631 39.8003 7.50979 40.2816 8.03023C40.5227 8.29096 40.7201 8.51017 40.8561 8.67011C40.9154 8.73994 40.9598 8.79468 40.9901 8.83459V8.83927L41.0433 8.92711C42.01 10.5221 42.4622 12.6806 42.4622 15.6197V22.6076C42.4622 23.3789 41.8574 23.9929 41.0663 24.0221C41.0656 24.0221 41.0649 24.0221 41.0642 24.0221L29.4011 24.3014C29.2845 24.3009 29.2014 24.279 29.1135 24.2352ZM24.4786 20.0194C24.4787 20.0196 24.4784 20.0191 24.4776 20.0175C24.4782 20.0185 24.4785 20.0192 24.4786 20.0194ZM38.8832 7.95208L38.0144 7.08602L38.2637 8.28717C38.4664 9.26356 38.5361 10.3862 38.5015 11.6615L38.5014 11.6615V11.6715V18.6594C38.5014 18.8316 38.4721 18.9933 38.4227 19.1165L38.3351 19.3349L38.4967 19.5059L40.775 21.9168L41.4099 22.5885V21.6642V15.5847C41.4099 12.0271 40.7069 9.62557 39.1232 8.15643C39.0747 8.10881 39.0196 8.06493 38.9814 8.03445L38.9756 8.02984C38.9276 7.9916 38.9011 7.96984 38.8832 7.95208ZM29.1807 23.1126L29.292 23.2235L29.4491 23.2197L39.5439 22.9752L40.3666 22.9552L39.8028 22.3557L37.6997 20.1196L37.5125 19.9205L37.2828 20.035C37.2803 20.0354 37.277 20.0358 37.2728 20.0362C37.2498 20.0385 37.2237 20.0388 37.1866 20.0388V20.0387L37.1775 20.0389L27.2229 20.2835L26.3637 20.3046L26.9724 20.9114L29.1807 23.1126ZM16.4407 54.4547L16.4424 54.4548L30.6705 55.5727C30.671 55.5727 30.6716 55.5728 30.6721 55.5728C34.3606 55.8907 37.1479 55.2638 38.975 53.5928C40.6603 52.0979 41.4449 49.7399 41.4449 46.6811V36.898V36.8979V36.8979V36.8979V36.8978V36.8978V36.8978V36.8977V36.8977V36.8976V36.8976V36.8975V36.8975V36.8975V36.8974V36.8974V36.8973V36.8973V36.8973V36.8972V36.8972V36.8972V36.8971V36.8971V36.897V36.897V36.897V36.8969V36.8969V36.8968V36.8968V36.8968V36.8967V36.8967V36.8966V36.8966V36.8965V36.8965V36.8965V36.8964V36.8964V36.8963V36.8963V36.8962V36.8962V36.8961V36.896V36.896V36.8959V36.8959V36.8958V36.8958V36.8957V36.8957V36.8956V36.8955V36.8955V36.8954V36.8954V36.8953V36.8952V36.8952V36.8951V36.8951V36.895V36.8949V36.8949V36.8948V36.8947V36.8947V36.8946V36.8945V36.8944V36.8944V36.8943V36.8942V36.8942V36.8941V36.894V36.8939V36.8939V36.8938V36.8937V36.8936V36.8936V36.8935V36.8934V36.8933V36.8932V36.8932V36.8931V36.893V36.8929V36.8928V36.8927V36.8927V36.8926V36.8925V36.8924V36.8923V36.8922V36.8921V36.8921V36.892V36.8919V36.8918V36.8917V36.8916V36.8915V36.8914V36.8913V36.8912V36.8911V36.891V36.8909V36.8909V36.8908V36.8907V36.8906V36.8905V36.8904V36.8903V36.8902V36.8901V36.89V36.8899V36.8898V36.8896V36.8895V36.8894V36.8893V36.8892V36.8891V36.889V36.8889V36.8888V36.8887V36.8886V36.8885V36.8884V36.8883V36.8881V36.888V36.8879V36.8878V36.8877V36.8876V36.8875V36.8874V36.8872V36.8871V36.887V36.8869V36.8868V36.8867V36.8865V36.8864V36.8863V36.8862V36.8861V36.8859V36.8858V36.8857V36.8856V36.8854V36.8853V36.8852V36.8851V36.8849V36.8848V36.8847V36.8846V36.8844V36.8843V36.8842V36.8841V36.8839V36.8838V36.8837V36.8835V36.8834V36.8833V36.8831V36.883V36.8829V36.8827V36.8826V36.8825V36.8823V36.8822V36.8821V36.8819V36.8818V36.8817V36.8815V36.8814V36.8813V36.8811V36.881V36.8808V36.8807V36.8806V36.8804V36.8803V36.8801V36.88V36.8798V36.8797V36.8796V36.8794V36.8793V36.8791V36.879V36.8788V36.8787V36.8785V36.8784V36.8782V36.8781V36.8779V36.8778V36.8776V36.8775V36.8773V36.8772V36.877V36.8769V36.8767V36.8766V36.8764V36.8763V36.8761V36.876V36.8758V36.8757V36.8755V36.8754V36.8752V36.875V36.8749V36.8747V36.8746V36.8744V36.8743V36.8741V36.8739V36.8738V36.8736V36.8735V36.8733V36.8731V36.873V36.8728V36.8727V36.8725V36.8723V36.8722V36.872V36.8718V36.8717V36.8715V36.8714V36.8712V36.871V36.8709V36.8707V36.8705V36.8704V36.8702V36.87V36.8699V36.8697V36.8695V36.8694V36.8692V36.869V36.8688V36.8687V36.8685V36.8683V36.8682V36.868V36.8678V36.8676V36.8675V36.8673V36.8671V36.867V36.8668V36.8666V36.8664V36.8663V36.8661V36.8659V36.8657V36.8656V36.8654V36.8652V36.865V36.8648V36.8647V36.8645V36.8643V36.8641V36.864V36.8638V36.8636V36.8634V36.8632V36.8631V36.8629V36.8627V36.8625V36.8623V36.8622V36.862V36.8618V36.8616V36.8614V36.8613V36.8611V36.8609V36.8607V36.8605V36.8603V36.8601V36.86V36.8598V36.8596V36.8594V36.8592V36.859V36.8589V36.8587V36.8585V36.8583V36.8581V36.8579V36.8577V36.8575V36.8574V36.8572V36.857V36.8568V36.8566V36.8564V36.8562V36.856V36.8558V36.8557V36.8555V36.8553V36.8551V36.8549V36.8547V36.8545V36.8543V36.8541V36.8539V36.8537V36.8536V36.8534V36.8532V36.853V36.8528V36.8526V36.8524V36.8522V36.852V36.8518V36.8516V36.8514V36.8512V36.851V36.8508V36.8507V36.8505V36.8503V36.8501V36.8499V36.8497V36.8495V36.8493V36.8491V36.8489V36.8487V36.8485V36.8483V36.8481V36.8479V36.8477V36.8475V36.8473V36.8471V36.8469V36.8467V36.8465V36.8463V36.8461V36.8459V36.8457V36.8455V36.8453V36.8451V36.8449V36.8447V36.8445V36.8443V36.8441V36.8439V36.8437V36.8435V36.8433V36.8431V36.8429V36.8427V36.8425V36.8423V36.8421V36.8419V36.8417V36.8415V36.8413V36.8411V36.8409V36.8407V36.8405V36.8403V36.8401V36.8399V36.8397V36.8395V36.8393V36.8391V36.8389V36.8387V36.8385V36.8383V36.8381V36.8379V36.8377V36.8375V36.8373V36.8371V36.8369V36.8367V36.8365V36.8363V36.8361V36.8359V36.8357V36.8354V36.8352V36.835V36.8348V36.8346V36.8344V36.8342V36.834V36.8338V36.8336V36.8334V36.8332V36.833V36.8328V36.8326V36.8324V36.8322V36.832V36.8318V36.8316V36.8314V36.8312V36.831V36.8308V36.8305V36.8303V36.8301V36.8299V36.8297V36.8295V36.8293V36.8291V36.8289V36.8287V36.8285V36.8283V36.8281V36.6737L41.3347 36.5656L39.1615 34.4343L38.5365 33.8213V34.6968V42.7329C38.5365 46.194 37.5756 48.7371 35.7458 50.4287C34.0471 51.9889 31.6246 52.7773 28.4588 52.7773C27.8952 52.7773 27.2842 52.7769 26.6766 52.7097L26.6766 52.7095L26.6658 52.7086L12.4349 51.5556L12.434 51.5555C11.1239 51.4524 9.95225 51.2463 8.84874 50.9713L7.55871 50.6499L8.50029 51.5884L9.23637 52.3222L9.26405 52.3498L9.29692 52.3709C11.0467 53.4974 13.4599 54.2071 16.4407 54.4547ZM15.3324 40.916V41.2664L15.6823 41.2833L17.8555 41.3881L18.2409 41.4067V41.0209V17.0871C18.2409 16.954 18.2688 16.7915 18.3196 16.665L18.4109 16.4375L18.2359 16.2657L15.9576 14.0296L15.3324 13.416V14.292V40.916ZM19.5616 15.7078H19.5651L19.5745 15.7073L23.6755 15.4977L24.0244 15.4798V15.1305V12.7896V12.4041L23.6393 12.4223L17.0146 12.7368L16.1824 12.7763L16.7724 13.3644L19.0508 15.6355L19.1584 15.7427H19.3103C19.3555 15.7427 19.3967 15.7373 19.4255 15.7328C19.4551 15.7282 19.4845 15.7222 19.5049 15.7182C19.5283 15.7135 19.5427 15.7107 19.5548 15.7088C19.5579 15.7083 19.5602 15.708 19.5616 15.7078Z" fill="#1130FF" stroke="#1130FF" stroke-width="0.735283"/>
</svg>
