<svg width="34" height="34" viewBox="0 0 34 34" fill="none" xmlns="http://www.w3.org/2000/svg">
<circle cx="16.625" cy="16.625" r="16.625" fill="#1130FF"/>
<mask id="mask0_144_5471" style="mask-type:alpha" maskUnits="userSpaceOnUse" x="9" y="7" width="16" height="20">
<path fill-rule="evenodd" clip-rule="evenodd" d="M9.5 7.125H24.9375V26.125H9.5V7.125Z" fill="white"/>
</mask>
<g mask="url(#mask0_144_5471)">
<path fill-rule="evenodd" clip-rule="evenodd" d="M22.0327 21.9724C22.033 21.9514 22.0332 21.9305 22.0332 21.9097V19.7369L23.4761 18.567V19.5472C23.4761 20.3764 23.1038 21.1562 22.4548 21.6861C22.3251 21.7925 22.1833 21.8887 22.0327 21.9724ZM15.9336 23.031L19.8635 23.7347C19.8686 23.7355 19.8738 23.7364 19.8792 23.737C19.7564 23.8891 19.6525 23.9984 19.5526 24.0803C18.9053 24.6101 18.0592 24.8287 17.2311 24.6798L13.2858 23.9739C11.9391 23.7322 10.9615 22.5671 10.9615 21.2037V13.7273C10.9615 12.9015 11.3329 12.1237 11.9803 11.593C12.1114 11.4859 12.2544 11.3895 12.4053 11.3063C12.4047 11.3315 12.4046 11.3566 12.4046 11.3819V18.8798C12.4046 20.9184 13.8887 22.6642 15.9336 23.031ZM18.5104 10.2533L14.5656 9.54713C14.5587 9.54596 14.552 9.54479 14.5451 9.54361L14.5414 9.54303C14.6471 9.42098 14.7636 9.30773 14.8876 9.2062C15.5294 8.6811 16.4001 8.45649 17.2168 8.60535L21.1468 9.30919C22.4964 9.55109 23.4761 10.7034 23.4761 12.049V13.4786L22.0332 14.6484V14.3968C22.0332 12.3615 20.5517 10.6189 18.5104 10.2533ZM20.9452 16.9138C21.1756 17.0203 21.441 16.9876 21.6374 16.8285L24.7038 14.3397C24.8524 14.2188 24.9375 14.041 24.9375 13.8517V12.049C24.9375 10.0101 23.4534 8.26442 21.4085 7.89814L17.4786 7.19444C16.2207 6.96837 14.9354 7.30008 13.9521 8.10501C13.4759 8.49415 13.075 9.02189 12.7928 9.63109C12.1532 9.78141 11.5488 10.079 11.0449 10.4917C10.0632 11.295 9.5 12.4743 9.5 13.7273V21.24C9.5 23.2753 10.982 25.0181 13.0241 25.3836L16.9676 26.0897C17.1395 26.1209 17.3107 26.125 17.4556 26.125C17.5041 26.125 17.5524 26.1246 17.6 26.1238L17.7435 26.1229C18.7874 26.1229 19.7368 25.7974 20.4894 25.1815C20.9827 24.7781 21.3838 24.2608 21.6496 23.6853C22.6937 23.4362 23.6169 22.7822 24.2499 21.8435C24.6998 21.1764 24.9375 20.3731 24.9375 19.5204V17.0417C24.9375 16.762 24.7771 16.5139 24.5191 16.3945C24.2607 16.2753 23.9638 16.3119 23.7438 16.4902L20.816 18.8631C20.6697 18.9818 20.5714 19.2011 20.5714 19.409V21.9097C20.5714 22.0486 20.5601 22.1911 20.5377 22.3334C20.5133 22.3341 20.4888 22.3347 20.4643 22.3356L20.4581 22.3358C20.3426 22.3394 20.2336 22.3428 20.1267 22.3234L16.1967 21.6197C14.8463 21.3781 13.8662 20.226 13.8662 18.8798V11.3819C13.8662 11.2402 13.878 11.095 13.9012 10.9503C14.0393 10.9556 14.1748 10.9701 14.3042 10.9934L18.2471 11.6631C19.5938 11.9048 20.5714 13.0545 20.5714 14.3968V16.3359C20.5714 16.5859 20.7146 16.8074 20.9452 16.9138Z" fill="white"/>
</g>
</svg>
