<?xml version="1.0" encoding="iso-8859-1"?>
<!-- Generator: Adobe Illustrator 19.0.0, SVG Export Plug-In . SVG Version: 6.00 Build 0)  -->
<svg version="1.1" id="Layer_1" xmlns="http://www.w3.org/2000/svg" xmlns:xlink="http://www.w3.org/1999/xlink" x="0px" y="0px"
	 viewBox="0 0 511.999 511.999" style="enable-background:new 0 0 511.999 511.999;" xml:space="preserve">
<path style="fill:#BF0079;" d="M449.136,511.688H210.347c-34.664,0-62.864-28.202-62.864-62.866V210.036
	c0-34.664,28.202-62.866,62.864-62.866h238.787c34.664,0,62.864,28.202,62.864,62.866v140.036c0,8.144-6.603,14.748-14.748,14.748
	c-8.145,0-14.748-6.604-14.748-14.748V210.036c0-18.4-14.969-33.369-33.368-33.369H210.347c-18.4,0-33.368,14.969-33.368,33.369
	v238.786c0,18.4,14.969,33.369,33.368,33.369h238.787c18.4,0,33.368-14.969,33.368-33.369v-22.296
	c0-8.144,6.603-14.748,14.748-14.748c8.145,0,14.748,6.604,14.748,14.748v22.296C512,483.486,483.8,511.688,449.136,511.688z"/>
<path style="fill:#F3D1FF;" d="M162.231,210.036c0-26.576,21.543-48.118,48.118-48.118h139.423V63.176
	c0-26.575-21.543-48.118-48.118-48.118H62.866c-26.575,0-48.118,21.543-48.118,48.118v238.787c0,26.575,21.543,48.116,48.118,48.116
	h99.365V210.036z"/>
<g>
	<path style="fill:#BF0079;" d="M162.231,364.828H62.864C28.202,364.828,0,336.628,0,301.964V63.176
		C0,28.512,28.202,0.31,62.864,0.31h238.787c34.664,0,62.864,28.202,62.864,62.866v98.742c0,8.144-6.603,14.748-14.748,14.748
		H210.345c-18.4,0-33.368,14.969-33.368,33.369V350.08C176.979,358.225,170.376,364.828,162.231,364.828z M62.864,29.807
		c-18.398,0-33.368,14.969-33.368,33.369v238.787c0,18.4,14.969,33.368,33.368,33.368h84.618V210.036
		c0-34.664,28.202-62.866,62.864-62.866h124.674V63.176c0-18.4-14.969-33.369-33.368-33.369
		C301.653,29.807,62.864,29.807,62.864,29.807z"/>
	<path style="fill:#BF0079;" d="M132.734,150.976c-3.776,0-7.548-1.441-10.428-4.32L16.86,41.209
		c-5.759-5.759-5.759-15.098,0-20.858c5.759-5.758,15.098-5.756,20.857,0l105.447,105.447c5.759,5.759,5.759,15.098,0,20.858
		C140.284,149.536,136.51,150.976,132.734,150.976z"/>
	<path style="fill:#BF0079;" d="M170.711,492.024c-3.774,0-7.55-1.441-10.428-4.32L16.86,344.282
		c-5.759-5.759-5.759-15.098,0-20.858c5.759-5.758,15.098-5.758,20.858,0l143.422,143.422c5.759,5.759,5.759,15.098,0,20.858
		C178.261,490.585,174.485,492.024,170.711,492.024z"/>
	<path style="fill:#BF0079;" d="M481.157,188.951c-3.774,0-7.55-1.441-10.428-4.32L327.306,41.209
		c-5.759-5.759-5.759-15.098,0-20.858c5.759-5.758,15.098-5.758,20.858,0l143.422,143.422c5.759,5.759,5.759,15.098,0,20.858
		C488.705,187.511,484.931,188.951,481.157,188.951z"/>
</g>
<g>
</g>
<g>
</g>
<g>
</g>
<g>
</g>
<g>
</g>
<g>
</g>
<g>
</g>
<g>
</g>
<g>
</g>
<g>
</g>
<g>
</g>
<g>
</g>
<g>
</g>
<g>
</g>
<g>
</g>
</svg>
