<?xml version="1.0" encoding="UTF-8"?>
<svg width="80px" height="80px" viewBox="0 0 80 80" xmlns="http://www.w3.org/2000/svg" xmlns:xlink="http://www.w3.org/1999/xlink" version="1.1">
 <!-- Generated by Pixelmator Pro 2.0.8 -->
 <g id="group">
  <path id="Path" d="M27.077 1.921 C9.794 8.172 -1.237 25.21 0.111 43.228 1.337 57.569 9.917 70.194 23.032 76.568 28.916 79.51 31.367 80 40.315 80 49.263 80 51.714 79.51 57.598 76.568 65.81 72.646 73.777 64.433 77.455 56.343 79.416 51.931 80.029 48.131 80.151 40.164 80.151 31.216 79.661 28.765 76.719 22.881 72.797 14.669 64.462 6.701 56.495 3.024 48.405 -0.53 35.412 -1.021 27.077 1.921 Z M57.108 6.211 C64.217 9.888 70.958 16.752 74.758 24.229 78.803 32.074 78.803 46.783 74.881 55.608 71.326 63.453 63.604 71.052 55.637 74.729 46.934 78.652 32.225 78.652 24.381 74.607 16.904 70.807 10.162 64.066 6.24 56.711 3.543 51.441 3.053 48.989 3.053 40.164 3.053 31.706 3.543 28.765 5.872 24.229 11.143 14.056 20.826 5.966 31.122 3.269 37.741 1.431 50.611 3.024 57.108 6.211 Z" fill="#000000" fill-opacity="1" stroke="none"/>
  <path id="Path-1" d="M39.089 7.069 C39.089 7.682 39.702 8.295 40.315 8.295 41.05 8.295 41.541 7.682 41.541 7.069 41.541 6.334 41.05 5.843 40.315 5.843 39.702 5.843 39.089 6.334 39.089 7.069 Z" fill="#000000" fill-opacity="1" stroke="none"/>
  <path id="Path-2" d="M15.8 16.875 C15.8 17.488 16.413 18.101 17.026 18.101 17.762 18.101 18.252 17.488 18.252 16.875 18.252 16.14 17.762 15.649 17.026 15.649 16.413 15.649 15.8 16.14 15.8 16.875 Z" fill="#000000" fill-opacity="1" stroke="none"/>
  <path id="Path-3" d="M62.378 16.875 C62.378 17.488 62.991 18.101 63.604 18.101 64.339 18.101 64.83 17.488 64.83 16.875 64.83 16.14 64.339 15.649 63.604 15.649 62.991 15.649 62.378 16.14 62.378 16.875 Z" fill="#000000" fill-opacity="1" stroke="none"/>
  <path id="Path-4" d="M33.574 22.023 C30.019 23.862 28.058 26.803 28.058 29.99 28.058 32.319 28.671 32.809 31.735 32.809 34.064 32.809 35.78 31.951 36.638 30.235 38.354 27.171 43.134 27.539 43.747 30.848 44.115 32.197 42.644 34.403 39.825 36.732 36.638 39.428 35.412 41.267 35.412 43.964 35.412 47.273 35.78 47.518 39.702 47.518 43.012 47.518 43.992 47.028 43.992 45.312 43.992 44.209 45.953 41.635 48.282 39.796 51.714 37.1 52.572 35.506 52.572 32.197 52.572 29.99 52.205 27.171 51.837 26.068 49.998 21.533 39.089 18.959 33.574 22.023 Z M47.424 24.965 C51.837 28.029 51.101 34.403 45.831 38.448 43.502 40.164 41.541 42.493 41.541 43.351 41.541 44.331 40.683 45.067 39.702 45.067 36.638 45.067 37.618 42.002 42.154 37.835 47.057 33.422 47.792 28.765 44.115 26.681 40.56 24.842 38.109 25.21 35.412 27.907 34.064 29.255 32.47 30.358 31.735 30.358 29.774 30.358 30.264 28.152 32.961 25.455 35.902 22.513 43.502 22.146 47.424 24.965 Z" fill="#000000" fill-opacity="1" stroke="none"/>
  <path id="Path-5" d="M5.995 40.164 C5.995 40.777 6.608 41.39 7.22 41.39 7.956 41.39 8.446 40.777 8.446 40.164 8.446 39.428 7.956 38.938 7.22 38.938 6.608 38.938 5.995 39.428 5.995 40.164 Z" fill="#000000" fill-opacity="1" stroke="none"/>
  <path id="Path-6" d="M72.184 40.164 C72.184 40.777 72.797 41.39 73.41 41.39 74.145 41.39 74.635 40.777 74.635 40.164 74.635 39.428 74.145 38.938 73.41 38.938 72.797 38.938 72.184 39.428 72.184 40.164 Z" fill="#000000" fill-opacity="1" stroke="none"/>
  <path id="Path-7" d="M35.657 51.441 C32.225 54.873 35.29 60.266 40.438 59.53 44.115 59.04 46.199 55.485 44.483 52.666 42.766 50.092 37.741 49.357 35.657 51.441 Z M42.521 54.505 C43.134 56.589 39.334 58.059 37.618 56.343 36.883 55.608 36.76 54.505 37.251 53.647 38.354 51.931 41.786 52.544 42.521 54.505 Z" fill="#000000" fill-opacity="1" stroke="none"/>
  <path id="Path-8" d="M15.8 63.453 C15.8 64.066 16.413 64.678 17.026 64.678 17.762 64.678 18.252 64.066 18.252 63.453 18.252 62.717 17.762 62.227 17.026 62.227 16.413 62.227 15.8 62.717 15.8 63.453 Z" fill="#000000" fill-opacity="1" stroke="none"/>
  <path id="Path-9" d="M62.378 63.453 C62.378 64.066 62.991 64.678 63.604 64.678 64.339 64.678 64.83 64.066 64.83 63.453 64.83 62.717 64.339 62.227 63.604 62.227 62.991 62.227 62.378 62.717 62.378 63.453 Z" fill="#000000" fill-opacity="1" stroke="none"/>
  <path id="Path-10" d="M39.089 73.258 C39.089 73.871 39.702 74.484 40.315 74.484 41.05 74.484 41.541 73.871 41.541 73.258 41.541 72.523 41.05 72.033 40.315 72.033 39.702 72.033 39.089 72.523 39.089 73.258 Z" fill="#000000" fill-opacity="1" stroke="none"/>
 </g>
</svg>
