<?xml version="1.0" encoding="utf-8"?>
<!-- Generator: Adobe Illustrator 26.0.3, SVG Export Plug-In . SVG Version: 6.00 Build 0)  -->
<svg version="1.1" id="Layer_1" xmlns="http://www.w3.org/2000/svg" xmlns:xlink="http://www.w3.org/1999/xlink" x="0px" y="0px"
	 viewBox="0 0 285 285" style="enable-background:new 0 0 285 285;" xml:space="preserve">
<style type="text/css">
	.st0{fill:#75FFFF;}
	.st1{fill:#FFFFFF;}
</style>
<circle class="st0" cx="142.5" cy="142.5" r="142.5"/>
<g>
	<path d="M156.9,111.5c0.1,0.1,0.2,0.3,0.3,0.4l0.1,0.1c0.1,0.1,0.1,0.2,0.2,0.3c0.1,0.1,0.2,0.1,0.2,0.2l12,12.1
		c0.5,0.5,1.1,0.7,1.9,0.7h0.1c0.4,0.2,0.8,0.3,1.4,0.3l34.8-0.8c2.9-0.1,5.2-2.4,5.2-5.4V98.5c0-8.9-1.4-15.7-4.4-20.7
		c0-0.7-15.4-16.4-15.6-16.6c-6-5.5-15.4-7.6-28.7-6.4l-42.9,3.4c-23.2,2-35,11.8-35,29.1v89c0,6.3,1.5,12.3,4.3,16.2
		s16.7,17.8,19.2,19.6l0.1,0.1c0.3,0.2,0.5,0.4,0.9,0.5c5.9,3.8,13.6,6.2,23.1,7.1l42.4,3.5c1.9,0.2,3.8,0.2,5.4,0.2
		c9.6,0,17.1-2.4,22.5-7.4c5.7-5.4,8.7-13.4,8.7-24v-29.5c0-0.4-0.1-0.7-0.2-1.2c0.1-0.8-0.1-1.6-0.7-2.2l-12.5-12.5
		c-0.3-0.3-0.6-0.5-1-0.6c-0.7-0.4-1.5-0.6-2.4-0.6l-34.8-0.5c-1.4,0-2.8,0.5-3.8,1.6s-1.6,2.3-1.6,3.8v25.7l-12.1-0.4V103l12-0.6
		v6.1C156,109.5,156.3,110.6,156.9,111.5z M200.6,76.2c0.2,0.2,0.5,0.4,0.7,0.6c4.4,4.1,6.5,10.9,6.5,21.6v18.3l-6.8-7.3
		c0.2-0.5,0.3-1.2,0.3-1.8v-21C201.5,82.7,201.2,79.2,200.6,76.2z M173.2,120.3l-6.6-6.6l29.7-0.7c0.2,0,0.5,0,0.7-0.1l6.3,6.7
		L173.2,120.3z M207.9,162.6v29.5c0,9.1-2.3,15.8-7,20c-5.1,4.7-13.1,6.6-23.9,5.7l-42.4-3.4c-8.8-0.7-15.8-2.8-20.8-6.1l-2.2-2.2
		c3.3,0.8,6.9,1.5,10.9,1.8l42.4,3.5c1.9,0.2,3.8,0.2,5.4,0.2c9.6,0,17.1-2.4,22.5-7.4c5.7-5.4,8.7-13.4,8.7-24V156l6.5,6.4
		C207.9,162.5,207.9,162.6,207.9,162.6z M132.3,174.7V94.5l6.8,6.7c-0.2,0.5-0.3,1.2-0.3,1.7V175L132.3,174.7z M143.8,97.6
		c-0.2,0-0.5,0.1-0.7,0.1l-6.8-6.8L156,90v7L143.8,97.6z"/>
	<g>
		<path d="M141.9,161.8l0.9-5h-26l-0.7,5h-4l-0.9-5H85.1l-0.8,5H81l-0.7-5H54.2l13.2,72.7h4.1l0.9,5h28.4l0.8-5h3.8l0.9,5h28.4
			l13.1-72.7H141.9z M101.3,196.6L101.3,196.6l-2.6-15.2H98l-7,42.4l0,0H76.2h-4.1L61,162.5h14.3l0.7,5l5.7,42h0.7l2-12.3l3.1-19.3
			l2.5-15.4h0h16.5l0.9,5l7.3,42.1h0.7l1.5-11.2l4.9-35.9H136l-0.9,5L125,223.8h-14.7h-4.1L101.3,196.6z"/>
		<polygon class="st1" points="121.7,162.5 116.8,198.4 115.3,209.6 114.7,209.6 107.3,167.5 106.4,162.5 90,162.5 89.9,162.5 
			87.5,177.9 84.4,197.2 82.4,209.5 81.7,209.5 76,167.5 75.3,162.5 61,162.5 72.1,223.8 76.2,223.8 91,223.8 91,223.8 98,181.4 
			98.7,181.4 101.3,196.6 101.3,196.6 106.1,223.8 110.2,223.8 124.9,223.8 135.1,167.5 136,162.5 		"/>
	</g>
</g>
</svg>
